G04*
G04 #@! TF.GenerationSoftware,Altium Limited,Altium Designer,20.1.14 (287)*
G04*
G04 Layer_Physical_Order=1*
G04 Layer_Color=255*
%FSLAX25Y25*%
%MOIN*%
G70*
G04*
G04 #@! TF.SameCoordinates,21C75208-3808-4449-9246-B6B9823AEBA8*
G04*
G04*
G04 #@! TF.FilePolarity,Positive*
G04*
G01*
G75*
%ADD12C,0.01000*%
%ADD25R,0.01968X0.12992*%
%ADD26R,0.05906X0.03937*%
%ADD27R,0.04000X0.03000*%
%ADD28R,0.06000X0.04000*%
%ADD29R,0.03000X0.04000*%
%ADD30R,0.07874X0.23622*%
%ADD31R,0.01968X0.02953*%
%ADD32R,0.02756X0.03937*%
%ADD33C,0.05000*%
%ADD34C,0.02500*%
%ADD35C,0.03937*%
%ADD36C,0.05906*%
%ADD37R,0.05906X0.05906*%
%ADD38C,0.05000*%
%ADD39C,0.03150*%
G36*
X262559Y278189D02*
X257441D01*
Y288032D01*
X259409Y290000D01*
X257441Y291968D01*
Y301811D01*
X262559D01*
Y278189D01*
D02*
G37*
G36*
X290059Y265689D02*
X284941D01*
Y275532D01*
X286910Y277500D01*
X284941Y279468D01*
Y289311D01*
X290059D01*
Y265689D01*
D02*
G37*
G36*
X235059D02*
X229941D01*
Y275532D01*
X231909Y277500D01*
X229941Y279468D01*
Y289311D01*
X235059D01*
Y265689D01*
D02*
G37*
G36*
X290059Y224468D02*
X288090Y222500D01*
X290059Y220532D01*
Y210689D01*
X284941D01*
Y234311D01*
X290059D01*
Y224468D01*
D02*
G37*
G36*
X235059D02*
X233090Y222500D01*
X235059Y220532D01*
Y210689D01*
X229941D01*
Y234311D01*
X235059D01*
Y224468D01*
D02*
G37*
G36*
X290059Y169468D02*
X288090Y167500D01*
X290059Y165532D01*
Y155689D01*
X284941D01*
Y179311D01*
X290059D01*
Y169468D01*
D02*
G37*
G36*
X235059D02*
X233090Y167500D01*
X235059Y165532D01*
Y155689D01*
X229941D01*
Y179311D01*
X235059D01*
Y169468D01*
D02*
G37*
D12*
X221500Y296500D02*
X223499D01*
X222500D01*
Y302498D01*
X221500Y301498D01*
D25*
X293012Y167500D02*
D03*
X281988D02*
D03*
X293012Y222500D02*
D03*
X281988D02*
D03*
Y277500D02*
D03*
X293012D02*
D03*
X254488Y290000D02*
D03*
X265512D02*
D03*
X226988Y277500D02*
D03*
X238012D02*
D03*
Y222500D02*
D03*
X226988D02*
D03*
X238012Y167500D02*
D03*
X226988D02*
D03*
D26*
X278100D02*
D03*
X296900D02*
D03*
X278100Y222500D02*
D03*
X296900D02*
D03*
Y277500D02*
D03*
X278100D02*
D03*
X269400Y290000D02*
D03*
X250600D02*
D03*
X241900Y277500D02*
D03*
X223100D02*
D03*
Y222500D02*
D03*
X241900D02*
D03*
X223100Y167500D02*
D03*
X241900D02*
D03*
D27*
X273000Y150376D02*
D03*
Y156624D02*
D03*
X247000D02*
D03*
Y150376D02*
D03*
X239000Y197124D02*
D03*
Y190876D02*
D03*
Y245876D02*
D03*
Y252124D02*
D03*
D28*
X254500Y151000D02*
D03*
Y164000D02*
D03*
X265500Y151000D02*
D03*
Y164000D02*
D03*
D29*
X252624Y240000D02*
D03*
X246376D02*
D03*
Y185000D02*
D03*
X252624D02*
D03*
X242376Y207000D02*
D03*
X248624D02*
D03*
X242376Y262000D02*
D03*
X248624D02*
D03*
D30*
X282000Y250000D02*
D03*
X260500D02*
D03*
Y195000D02*
D03*
X282000D02*
D03*
D31*
X252669Y178500D02*
D03*
X261331D02*
D03*
Y233500D02*
D03*
X252669D02*
D03*
D32*
X252240Y201118D02*
D03*
Y190882D02*
D03*
X244760Y201118D02*
D03*
X248500D02*
D03*
X244760Y190882D02*
D03*
X252240Y256118D02*
D03*
Y245882D02*
D03*
X244760Y256118D02*
D03*
X248500D02*
D03*
X244760Y245882D02*
D03*
D33*
X242500Y290000D02*
X250600D01*
X269400D02*
X277500D01*
X234173Y135827D02*
X242500Y127500D01*
X277500D01*
X285827Y135827D01*
Y142327D01*
X234173Y135827D02*
Y142327D01*
X234000Y142500D02*
X234173Y142327D01*
X223827Y142673D02*
X224000Y142500D01*
X234000D02*
X241876Y150376D01*
X247000D01*
X273000D02*
X288124D01*
X295827Y142673D01*
X254000Y142500D02*
X254250Y142750D01*
Y150750D01*
X254500Y151000D01*
X265750Y142750D02*
X266000Y142500D01*
X265750Y142750D02*
Y150750D01*
X265500Y151000D02*
X265750Y150750D01*
X296900Y167500D02*
Y178100D01*
X244173Y135827D02*
X245000Y135000D01*
X244000Y142500D02*
X244173Y142327D01*
Y135827D02*
Y142327D01*
X275000Y135000D02*
X275827Y135827D01*
Y142327D02*
X276000Y142500D01*
X275827Y135827D02*
Y142327D01*
X224000Y142500D02*
X224173Y142327D01*
X285827D02*
X286000Y142500D01*
X286000Y142500D02*
X286000Y142500D01*
X245000Y135000D02*
X275000D01*
X282000Y187126D02*
Y195000D01*
X278100Y183226D02*
X282000Y187126D01*
X278100Y167500D02*
Y183226D01*
X223100Y167500D02*
Y178100D01*
X239000Y180677D02*
X241646Y178032D01*
X239000Y180677D02*
Y190876D01*
X241646Y167754D02*
Y178032D01*
X223100Y222500D02*
Y277500D01*
X296900Y222500D02*
Y277500D01*
X239000Y190876D02*
X244754D01*
X244760Y190882D01*
X241646Y167754D02*
X241900Y167500D01*
X278100Y222500D02*
Y238226D01*
X282000Y242126D01*
Y250000D01*
X239000Y235678D02*
Y245876D01*
Y235678D02*
X241646Y233032D01*
Y222754D02*
Y233032D01*
Y222754D02*
X241900Y222500D01*
X239005Y245882D02*
X244760D01*
X239000Y245876D02*
X239005Y245882D01*
X247500Y277500D02*
X252500Y272500D01*
X267500D02*
X272500Y277500D01*
X252500Y272500D02*
X267500D01*
X241900Y277500D02*
X247500D01*
X272500D02*
X278100D01*
D34*
X247500Y175000D02*
Y180000D01*
X246626Y180874D02*
X247500Y180000D01*
X237000Y207000D02*
X242376D01*
X231500Y186500D02*
Y194000D01*
X234624Y197124D02*
X239000D01*
X231500Y194000D02*
X234624Y197124D01*
X231500Y241500D02*
Y249000D01*
X234624Y252124D01*
X239000D01*
X246626Y235874D02*
X247500Y235000D01*
Y230000D02*
Y235000D01*
X246626Y235874D02*
Y239750D01*
X242376Y207000D02*
X242626Y206750D01*
X248874Y207250D02*
Y211698D01*
X249000Y211824D02*
Y212000D01*
X248874Y211698D02*
X249000Y211824D01*
X265500Y164000D02*
Y171500D01*
X248624Y207000D02*
X253500D01*
X254500Y164000D02*
Y171500D01*
X246376Y185000D02*
X246626Y184750D01*
Y180874D02*
Y184750D01*
X272500Y156624D02*
X273000D01*
X267250Y161874D02*
X272500Y156624D01*
X267250Y161874D02*
Y163250D01*
X266500Y164000D02*
X267250Y163250D01*
X265500Y164000D02*
X266500D01*
X247000Y156624D02*
X247500D01*
X252750Y161874D01*
Y163250D01*
X253500Y164000D01*
X254500D01*
X246376Y240000D02*
X246626Y239750D01*
X252646Y178523D02*
Y185477D01*
X248562Y261938D02*
X248624Y262000D01*
X248562Y256180D02*
Y261938D01*
X248500Y256118D02*
X248562Y256180D01*
X249000Y266824D02*
Y267000D01*
X248874Y266698D02*
X249000Y266824D01*
X248874Y262250D02*
Y266698D01*
X248624Y262000D02*
X248874Y262250D01*
X248624Y262000D02*
X253500D01*
X248624Y207000D02*
X248874Y207250D01*
X248562Y206938D02*
X248624Y207000D01*
X248562Y201180D02*
Y206938D01*
X248500Y201118D02*
X248562Y201180D01*
X237000Y262000D02*
X242376D01*
X242626Y261750D01*
X244760Y201118D02*
Y201709D01*
X242626Y203842D02*
X244760Y201709D01*
X242626Y203842D02*
Y206750D01*
X252585Y233415D02*
X252669Y233500D01*
X261331Y178500D02*
Y194169D01*
X260500Y195000D02*
X261331Y194169D01*
Y233500D02*
Y249169D01*
X260500Y250000D02*
X261331Y249169D01*
X252646Y233523D02*
X252669Y233500D01*
X252646Y233523D02*
Y239977D01*
X252624Y240000D02*
X252646Y239977D01*
Y178523D02*
X252669Y178500D01*
X258313Y256118D02*
X260500Y253931D01*
X252240Y256118D02*
X258313D01*
X244760D02*
Y256709D01*
X242626Y258842D02*
X244760Y256709D01*
X242626Y258842D02*
Y261750D01*
X239000Y252124D02*
X239224Y251900D01*
X246813D01*
X252240Y246472D01*
Y245882D02*
Y246472D01*
Y240883D02*
Y245882D01*
Y240883D02*
X252624Y240500D01*
Y240000D02*
Y240500D01*
X252240Y185883D02*
Y190882D01*
Y185883D02*
X252646Y185477D01*
X239000Y197124D02*
X239224Y196900D01*
X246813D01*
X252240Y191472D01*
Y190882D02*
Y191472D01*
Y201118D02*
X257813D01*
X260500Y198431D01*
Y195000D02*
Y198431D01*
Y250000D02*
Y253931D01*
D35*
X287500Y163500D02*
D03*
Y171500D02*
D03*
Y218500D02*
D03*
Y226500D02*
D03*
Y281500D02*
D03*
Y273500D02*
D03*
X260000Y294000D02*
D03*
Y286000D02*
D03*
X232500Y281500D02*
D03*
Y273500D02*
D03*
Y218500D02*
D03*
Y226500D02*
D03*
Y163500D02*
D03*
Y171500D02*
D03*
D36*
X224000Y142500D02*
D03*
X234000D02*
D03*
X244000D02*
D03*
X296000D02*
D03*
X286000D02*
D03*
X276000D02*
D03*
D37*
X254000D02*
D03*
X266000D02*
D03*
D38*
X242500Y290000D02*
D03*
X277500D02*
D03*
X231500Y186500D02*
D03*
Y241500D02*
D03*
X296900Y178100D02*
D03*
X223100D02*
D03*
D39*
X247500Y175000D02*
D03*
X237000Y207000D02*
D03*
X247500Y230000D02*
D03*
Y235000D02*
D03*
X249000Y212000D02*
D03*
X254500Y171500D02*
D03*
X265500D02*
D03*
X253500Y207000D02*
D03*
X247500Y180000D02*
D03*
X249000Y267000D02*
D03*
X253500Y262000D02*
D03*
X237000D02*
D03*
M02*
