G04*
G04 #@! TF.GenerationSoftware,Altium Limited,Altium Designer,20.1.14 (287)*
G04*
G04 Layer_Physical_Order=2*
G04 Layer_Color=16711680*
%FSLAX25Y25*%
%MOIN*%
G70*
G04*
G04 #@! TF.SameCoordinates,21C75208-3808-4449-9246-B6B9823AEBA8*
G04*
G04*
G04 #@! TF.FilePolarity,Positive*
G04*
G01*
G75*
%ADD12C,0.01000*%
%ADD33C,0.05000*%
%ADD34C,0.02500*%
%ADD35C,0.03937*%
%ADD36C,0.05906*%
%ADD37R,0.05906X0.05906*%
%ADD38C,0.05000*%
%ADD39C,0.03150*%
G36*
X300000Y285631D02*
X299500Y285461D01*
X299396Y285596D01*
X292496Y292496D01*
X291765Y293057D01*
X290914Y293410D01*
X290000Y293530D01*
X277500D01*
X276586Y293410D01*
X275735Y293057D01*
X275004Y292496D01*
X274443Y291765D01*
X274090Y290914D01*
X273970Y290000D01*
X274090Y289086D01*
X274443Y288235D01*
X275004Y287504D01*
X275735Y286943D01*
X276586Y286590D01*
X277500Y286470D01*
X288538D01*
X293370Y281638D01*
Y178100D01*
X293490Y177186D01*
X293843Y176335D01*
X294404Y175604D01*
X295135Y175043D01*
X295986Y174690D01*
X296900Y174570D01*
X297814Y174690D01*
X298665Y175043D01*
X299396Y175604D01*
X299500Y175739D01*
X300000Y175569D01*
Y144479D01*
X299500Y144379D01*
X299453Y144493D01*
X298819Y145319D01*
X297993Y145953D01*
X297032Y146351D01*
X296000Y146487D01*
X294968Y146351D01*
X294007Y145953D01*
X293181Y145319D01*
X292547Y144493D01*
X292149Y143532D01*
X292013Y142500D01*
X292149Y141468D01*
X292470Y140694D01*
Y138962D01*
X279538Y126030D01*
X240462D01*
X227530Y138962D01*
Y140694D01*
X227851Y141468D01*
X227987Y142500D01*
X227851Y143532D01*
X227453Y144493D01*
X226819Y145319D01*
X225993Y145953D01*
X225032Y146351D01*
X224000Y146487D01*
X222968Y146351D01*
X222007Y145953D01*
X221181Y145319D01*
X220547Y144493D01*
X220500Y144379D01*
X220000Y144479D01*
Y175569D01*
X220500Y175739D01*
X220604Y175604D01*
X221335Y175043D01*
X222186Y174690D01*
X223100Y174570D01*
X224014Y174690D01*
X224865Y175043D01*
X225596Y175604D01*
X226157Y176335D01*
X226510Y177186D01*
X226630Y178100D01*
Y188149D01*
X227092Y188340D01*
X228082Y187350D01*
X227970Y186500D01*
X228090Y185586D01*
X228443Y184735D01*
X229004Y184004D01*
X236470Y176538D01*
Y162373D01*
X236590Y161459D01*
X236943Y160607D01*
X237504Y159876D01*
X240470Y156910D01*
Y144306D01*
X240149Y143532D01*
X240013Y142500D01*
X240149Y141468D01*
X240547Y140507D01*
X241181Y139681D01*
X242007Y139047D01*
X242968Y138649D01*
X244000Y138513D01*
X245032Y138649D01*
X245993Y139047D01*
X246819Y139681D01*
X247453Y140507D01*
X247851Y141468D01*
X247987Y142500D01*
X247851Y143532D01*
X247530Y144306D01*
Y158372D01*
X247410Y159286D01*
X247057Y160138D01*
X246496Y160869D01*
X243530Y163835D01*
Y178000D01*
X243530Y178000D01*
X243410Y178914D01*
X243057Y179765D01*
X242496Y180496D01*
X233996Y188996D01*
X233265Y189557D01*
X232414Y189910D01*
X231950Y189971D01*
X230144Y191777D01*
Y215936D01*
X230644Y216182D01*
X231003Y215907D01*
X231725Y215608D01*
X232000Y215572D01*
Y218500D01*
Y221428D01*
X231725Y221392D01*
X231003Y221093D01*
X230644Y220818D01*
X230144Y221064D01*
Y223936D01*
X230644Y224182D01*
X231003Y223907D01*
X231725Y223608D01*
X232000Y223572D01*
Y226500D01*
Y229428D01*
X231725Y229392D01*
X231003Y229093D01*
X230644Y228818D01*
X230144Y229064D01*
Y236223D01*
X231950Y238029D01*
X232414Y238090D01*
X233265Y238443D01*
X233996Y239004D01*
X234557Y239735D01*
X234910Y240586D01*
X235030Y241500D01*
X234910Y242414D01*
X234557Y243265D01*
X233996Y243996D01*
X233265Y244557D01*
X232414Y244910D01*
X231500Y245030D01*
X230586Y244910D01*
X229735Y244557D01*
X229004Y243996D01*
X228443Y243265D01*
X228090Y242414D01*
X227970Y241500D01*
X228082Y240650D01*
X227092Y239660D01*
X226630Y239851D01*
Y281638D01*
X231462Y286470D01*
X242500D01*
X243414Y286590D01*
X244265Y286943D01*
X244996Y287504D01*
X245557Y288235D01*
X245910Y289086D01*
X246030Y290000D01*
X245910Y290914D01*
X245557Y291765D01*
X244996Y292496D01*
X244265Y293057D01*
X243414Y293410D01*
X242500Y293530D01*
X230000D01*
X229086Y293410D01*
X228235Y293057D01*
X227504Y292496D01*
X220604Y285596D01*
X220500Y285461D01*
X220000Y285631D01*
Y294500D01*
X236000D01*
Y302500D01*
X300000D01*
Y285631D01*
D02*
G37*
%LPC*%
G36*
X260500Y296928D02*
Y294500D01*
X262928D01*
X262892Y294775D01*
X262593Y295497D01*
X262117Y296117D01*
X261497Y296593D01*
X260775Y296892D01*
X260500Y296928D01*
D02*
G37*
G36*
X259500D02*
X259225Y296892D01*
X258503Y296593D01*
X257883Y296117D01*
X257407Y295497D01*
X257108Y294775D01*
X257072Y294500D01*
X259500D01*
Y296928D01*
D02*
G37*
G36*
X262928Y293500D02*
X260500D01*
Y291072D01*
X260775Y291108D01*
X261497Y291407D01*
X262117Y291883D01*
X262593Y292503D01*
X262892Y293225D01*
X262928Y293500D01*
D02*
G37*
G36*
X259500D02*
X257072D01*
X257108Y293225D01*
X257407Y292503D01*
X257883Y291883D01*
X258503Y291407D01*
X259225Y291108D01*
X259500Y291072D01*
Y293500D01*
D02*
G37*
G36*
X260500Y288928D02*
Y286500D01*
X262928D01*
X262892Y286775D01*
X262593Y287497D01*
X262117Y288117D01*
X261497Y288593D01*
X260775Y288892D01*
X260500Y288928D01*
D02*
G37*
G36*
X259500D02*
X259225Y288892D01*
X258503Y288593D01*
X257883Y288117D01*
X257407Y287497D01*
X257108Y286775D01*
X257072Y286500D01*
X259500D01*
Y288928D01*
D02*
G37*
G36*
X262928Y285500D02*
X260500D01*
Y283072D01*
X260775Y283108D01*
X261497Y283407D01*
X262117Y283883D01*
X262593Y284503D01*
X262892Y285225D01*
X262928Y285500D01*
D02*
G37*
G36*
X259500D02*
X257072D01*
X257108Y285225D01*
X257407Y284503D01*
X257883Y283883D01*
X258503Y283407D01*
X259225Y283108D01*
X259500Y283072D01*
Y285500D01*
D02*
G37*
G36*
X288000Y284428D02*
Y282000D01*
X290428D01*
X290392Y282275D01*
X290093Y282997D01*
X289617Y283617D01*
X288997Y284093D01*
X288275Y284392D01*
X288000Y284428D01*
D02*
G37*
G36*
X287000D02*
X286725Y284392D01*
X286003Y284093D01*
X285383Y283617D01*
X284907Y282997D01*
X284608Y282275D01*
X284572Y282000D01*
X287000D01*
Y284428D01*
D02*
G37*
G36*
X233000D02*
Y282000D01*
X235428D01*
X235392Y282275D01*
X235093Y282997D01*
X234617Y283617D01*
X233997Y284093D01*
X233275Y284392D01*
X233000Y284428D01*
D02*
G37*
G36*
X232000D02*
X231725Y284392D01*
X231003Y284093D01*
X230383Y283617D01*
X229907Y282997D01*
X229608Y282275D01*
X229572Y282000D01*
X232000D01*
Y284428D01*
D02*
G37*
G36*
X290428Y281000D02*
X288000D01*
Y278572D01*
X288275Y278608D01*
X288997Y278907D01*
X289617Y279383D01*
X290093Y280003D01*
X290392Y280725D01*
X290428Y281000D01*
D02*
G37*
G36*
X287000D02*
X284572D01*
X284608Y280725D01*
X284907Y280003D01*
X285383Y279383D01*
X286003Y278907D01*
X286725Y278608D01*
X287000Y278572D01*
Y281000D01*
D02*
G37*
G36*
X235428D02*
X233000D01*
Y278572D01*
X233275Y278608D01*
X233997Y278907D01*
X234617Y279383D01*
X235093Y280003D01*
X235392Y280725D01*
X235428Y281000D01*
D02*
G37*
G36*
X232000D02*
X229572D01*
X229608Y280725D01*
X229907Y280003D01*
X230383Y279383D01*
X231003Y278907D01*
X231725Y278608D01*
X232000Y278572D01*
Y281000D01*
D02*
G37*
G36*
X288000Y276428D02*
Y274000D01*
X290428D01*
X290392Y274275D01*
X290093Y274997D01*
X289617Y275617D01*
X288997Y276093D01*
X288275Y276392D01*
X288000Y276428D01*
D02*
G37*
G36*
X287000D02*
X286725Y276392D01*
X286003Y276093D01*
X285383Y275617D01*
X284907Y274997D01*
X284608Y274275D01*
X284572Y274000D01*
X287000D01*
Y276428D01*
D02*
G37*
G36*
X233000D02*
Y274000D01*
X235428D01*
X235392Y274275D01*
X235093Y274997D01*
X234617Y275617D01*
X233997Y276093D01*
X233275Y276392D01*
X233000Y276428D01*
D02*
G37*
G36*
X232000D02*
X231725Y276392D01*
X231003Y276093D01*
X230383Y275617D01*
X229907Y274997D01*
X229608Y274275D01*
X229572Y274000D01*
X232000D01*
Y276428D01*
D02*
G37*
G36*
X290428Y273000D02*
X288000D01*
Y270572D01*
X288275Y270608D01*
X288997Y270907D01*
X289617Y271383D01*
X290093Y272003D01*
X290392Y272725D01*
X290428Y273000D01*
D02*
G37*
G36*
X287000D02*
X284572D01*
X284608Y272725D01*
X284907Y272003D01*
X285383Y271383D01*
X286003Y270907D01*
X286725Y270608D01*
X287000Y270572D01*
Y273000D01*
D02*
G37*
G36*
X235428D02*
X233000D01*
Y270572D01*
X233275Y270608D01*
X233997Y270907D01*
X234617Y271383D01*
X235093Y272003D01*
X235392Y272725D01*
X235428Y273000D01*
D02*
G37*
G36*
X232000D02*
X229572D01*
X229608Y272725D01*
X229907Y272003D01*
X230383Y271383D01*
X231003Y270907D01*
X231725Y270608D01*
X232000Y270572D01*
Y273000D01*
D02*
G37*
G36*
X249500Y269531D02*
Y267500D01*
X251531D01*
X251508Y267672D01*
X251249Y268299D01*
X250836Y268836D01*
X250299Y269249D01*
X249672Y269509D01*
X249500Y269531D01*
D02*
G37*
G36*
X248500D02*
X248328Y269509D01*
X247702Y269249D01*
X247164Y268836D01*
X246751Y268299D01*
X246492Y267672D01*
X246469Y267500D01*
X248500D01*
Y269531D01*
D02*
G37*
G36*
X251531Y266500D02*
X249500D01*
Y264469D01*
X249672Y264492D01*
X250299Y264751D01*
X250836Y265164D01*
X251249Y265702D01*
X251508Y266328D01*
X251531Y266500D01*
D02*
G37*
G36*
X248500D02*
X246469D01*
X246492Y266328D01*
X246751Y265702D01*
X247164Y265164D01*
X247702Y264751D01*
X248328Y264492D01*
X248500Y264469D01*
Y266500D01*
D02*
G37*
G36*
X254000Y264531D02*
Y262500D01*
X256031D01*
X256009Y262672D01*
X255749Y263299D01*
X255336Y263836D01*
X254799Y264249D01*
X254172Y264509D01*
X254000Y264531D01*
D02*
G37*
G36*
X253000D02*
X252828Y264509D01*
X252202Y264249D01*
X251664Y263836D01*
X251251Y263299D01*
X250992Y262672D01*
X250969Y262500D01*
X253000D01*
Y264531D01*
D02*
G37*
G36*
X256031Y261500D02*
X254000D01*
Y259469D01*
X254172Y259491D01*
X254799Y259751D01*
X255336Y260164D01*
X255749Y260701D01*
X256009Y261328D01*
X256031Y261500D01*
D02*
G37*
G36*
X253000D02*
X250969D01*
X250992Y261328D01*
X251251Y260701D01*
X251664Y260164D01*
X252202Y259751D01*
X252828Y259491D01*
X253000Y259469D01*
Y261500D01*
D02*
G37*
G36*
X248000Y237531D02*
Y235500D01*
X250031D01*
X250009Y235672D01*
X249749Y236298D01*
X249336Y236836D01*
X248798Y237249D01*
X248172Y237509D01*
X248000Y237531D01*
D02*
G37*
G36*
X247000D02*
X246828Y237509D01*
X246201Y237249D01*
X245664Y236836D01*
X245251Y236298D01*
X244991Y235672D01*
X244969Y235500D01*
X247000D01*
Y237531D01*
D02*
G37*
G36*
X250031Y234500D02*
X244969D01*
X244991Y234328D01*
X245251Y233701D01*
X245664Y233164D01*
X246168Y232776D01*
X246204Y232508D01*
Y232492D01*
X246168Y232224D01*
X245664Y231836D01*
X245251Y231298D01*
X244991Y230672D01*
X244969Y230500D01*
X250031D01*
X250009Y230672D01*
X249749Y231298D01*
X249336Y231836D01*
X248832Y232224D01*
X248796Y232492D01*
Y232508D01*
X248832Y232776D01*
X249336Y233164D01*
X249749Y233701D01*
X250009Y234328D01*
X250031Y234500D01*
D02*
G37*
G36*
Y229500D02*
X248000D01*
Y227469D01*
X248172Y227491D01*
X248798Y227751D01*
X249336Y228164D01*
X249749Y228701D01*
X250009Y229328D01*
X250031Y229500D01*
D02*
G37*
G36*
X247000D02*
X244969D01*
X244991Y229328D01*
X245251Y228701D01*
X245664Y228164D01*
X246201Y227751D01*
X246828Y227491D01*
X247000Y227469D01*
Y229500D01*
D02*
G37*
G36*
X288000Y229428D02*
Y227000D01*
X290428D01*
X290392Y227275D01*
X290093Y227997D01*
X289617Y228617D01*
X288997Y229093D01*
X288275Y229392D01*
X288000Y229428D01*
D02*
G37*
G36*
X233000D02*
Y227000D01*
X235428D01*
X235392Y227275D01*
X235093Y227997D01*
X234617Y228617D01*
X233997Y229093D01*
X233275Y229392D01*
X233000Y229428D01*
D02*
G37*
G36*
X287000D02*
X286725Y229392D01*
X286003Y229093D01*
X285383Y228617D01*
X284907Y227997D01*
X284608Y227275D01*
X284572Y227000D01*
X287000D01*
Y229428D01*
D02*
G37*
G36*
X290428Y226000D02*
X288000D01*
Y223572D01*
X288275Y223608D01*
X288997Y223907D01*
X289617Y224383D01*
X290093Y225003D01*
X290392Y225725D01*
X290428Y226000D01*
D02*
G37*
G36*
X235428D02*
X233000D01*
Y223572D01*
X233275Y223608D01*
X233997Y223907D01*
X234617Y224383D01*
X235093Y225003D01*
X235392Y225725D01*
X235428Y226000D01*
D02*
G37*
G36*
X287000D02*
X284572D01*
X284608Y225725D01*
X284907Y225003D01*
X285383Y224383D01*
X286003Y223907D01*
X286725Y223608D01*
X287000Y223572D01*
Y226000D01*
D02*
G37*
G36*
X288000Y221428D02*
Y219000D01*
X290428D01*
X290392Y219275D01*
X290093Y219997D01*
X289617Y220617D01*
X288997Y221093D01*
X288275Y221392D01*
X288000Y221428D01*
D02*
G37*
G36*
X233000D02*
Y219000D01*
X235428D01*
X235392Y219275D01*
X235093Y219997D01*
X234617Y220617D01*
X233997Y221093D01*
X233275Y221392D01*
X233000Y221428D01*
D02*
G37*
G36*
X287000D02*
X286725Y221392D01*
X286003Y221093D01*
X285383Y220617D01*
X284907Y219997D01*
X284608Y219275D01*
X284572Y219000D01*
X287000D01*
Y221428D01*
D02*
G37*
G36*
X290428Y218000D02*
X288000D01*
Y215572D01*
X288275Y215608D01*
X288997Y215907D01*
X289617Y216383D01*
X290093Y217003D01*
X290392Y217725D01*
X290428Y218000D01*
D02*
G37*
G36*
X235428D02*
X233000D01*
Y215572D01*
X233275Y215608D01*
X233997Y215907D01*
X234617Y216383D01*
X235093Y217003D01*
X235392Y217725D01*
X235428Y218000D01*
D02*
G37*
G36*
X287000D02*
X284572D01*
X284608Y217725D01*
X284907Y217003D01*
X285383Y216383D01*
X286003Y215907D01*
X286725Y215608D01*
X287000Y215572D01*
Y218000D01*
D02*
G37*
G36*
X249500Y214531D02*
Y212500D01*
X251531D01*
X251508Y212672D01*
X251249Y213299D01*
X250836Y213836D01*
X250299Y214249D01*
X249672Y214509D01*
X249500Y214531D01*
D02*
G37*
G36*
X248500D02*
X248328Y214509D01*
X247702Y214249D01*
X247164Y213836D01*
X246751Y213299D01*
X246492Y212672D01*
X246469Y212500D01*
X248500D01*
Y214531D01*
D02*
G37*
G36*
X251531Y211500D02*
X249500D01*
Y209469D01*
X249672Y209491D01*
X250299Y209751D01*
X250836Y210164D01*
X251249Y210701D01*
X251508Y211328D01*
X251531Y211500D01*
D02*
G37*
G36*
X248500D02*
X246469D01*
X246492Y211328D01*
X246751Y210701D01*
X247164Y210164D01*
X247702Y209751D01*
X248328Y209491D01*
X248500Y209469D01*
Y211500D01*
D02*
G37*
G36*
X254000Y209531D02*
Y207500D01*
X256031D01*
X256009Y207672D01*
X255749Y208298D01*
X255336Y208836D01*
X254799Y209249D01*
X254172Y209508D01*
X254000Y209531D01*
D02*
G37*
G36*
X253000D02*
X252828Y209508D01*
X252202Y209249D01*
X251664Y208836D01*
X251251Y208298D01*
X250992Y207672D01*
X250969Y207500D01*
X253000D01*
Y209531D01*
D02*
G37*
G36*
X256031Y206500D02*
X254000D01*
Y204469D01*
X254172Y204491D01*
X254799Y204751D01*
X255336Y205164D01*
X255749Y205701D01*
X256009Y206328D01*
X256031Y206500D01*
D02*
G37*
G36*
X253000D02*
X250969D01*
X250992Y206328D01*
X251251Y205701D01*
X251664Y205164D01*
X252202Y204751D01*
X252828Y204491D01*
X253000Y204469D01*
Y206500D01*
D02*
G37*
G36*
X248000Y182531D02*
Y180500D01*
X250031D01*
X250009Y180672D01*
X249749Y181298D01*
X249336Y181836D01*
X248798Y182249D01*
X248172Y182509D01*
X248000Y182531D01*
D02*
G37*
G36*
X247000D02*
X246828Y182509D01*
X246201Y182249D01*
X245664Y181836D01*
X245251Y181298D01*
X244991Y180672D01*
X244969Y180500D01*
X247000D01*
Y182531D01*
D02*
G37*
G36*
X250031Y179500D02*
X244969D01*
X244991Y179328D01*
X245251Y178701D01*
X245664Y178164D01*
X246168Y177777D01*
X246204Y177508D01*
Y177492D01*
X246168Y177224D01*
X245664Y176836D01*
X245251Y176298D01*
X244991Y175672D01*
X244969Y175500D01*
X250031D01*
X250009Y175672D01*
X249749Y176298D01*
X249336Y176836D01*
X248832Y177224D01*
X248796Y177492D01*
Y177508D01*
X248832Y177777D01*
X249336Y178164D01*
X249749Y178701D01*
X250009Y179328D01*
X250031Y179500D01*
D02*
G37*
G36*
Y174500D02*
X248000D01*
Y172469D01*
X248172Y172492D01*
X248798Y172751D01*
X249336Y173164D01*
X249749Y173702D01*
X250009Y174328D01*
X250031Y174500D01*
D02*
G37*
G36*
X247000D02*
X244969D01*
X244991Y174328D01*
X245251Y173702D01*
X245664Y173164D01*
X246201Y172751D01*
X246828Y172492D01*
X247000Y172469D01*
Y174500D01*
D02*
G37*
G36*
X288000Y174428D02*
Y172000D01*
X290428D01*
X290392Y172275D01*
X290093Y172997D01*
X289617Y173617D01*
X288997Y174093D01*
X288275Y174392D01*
X288000Y174428D01*
D02*
G37*
G36*
X233000D02*
Y172000D01*
X235428D01*
X235392Y172275D01*
X235093Y172997D01*
X234617Y173617D01*
X233997Y174093D01*
X233275Y174392D01*
X233000Y174428D01*
D02*
G37*
G36*
X287000D02*
X286725Y174392D01*
X286003Y174093D01*
X285383Y173617D01*
X284907Y172997D01*
X284608Y172275D01*
X284572Y172000D01*
X287000D01*
Y174428D01*
D02*
G37*
G36*
X232000D02*
X231725Y174392D01*
X231003Y174093D01*
X230383Y173617D01*
X229907Y172997D01*
X229608Y172275D01*
X229572Y172000D01*
X232000D01*
Y174428D01*
D02*
G37*
G36*
X237000Y264597D02*
X236328Y264509D01*
X235701Y264249D01*
X235164Y263836D01*
X234751Y263299D01*
X234491Y262672D01*
X234403Y262000D01*
X234491Y261328D01*
X234751Y260701D01*
X235164Y260164D01*
X235701Y259751D01*
X236219Y259537D01*
X263206Y232550D01*
Y172690D01*
X262991Y172172D01*
X262903Y171500D01*
X262991Y170828D01*
X263251Y170202D01*
X263664Y169664D01*
X264201Y169251D01*
X264828Y168991D01*
X265500Y168903D01*
X266172Y168991D01*
X266798Y169251D01*
X267336Y169664D01*
X267749Y170202D01*
X268008Y170828D01*
X268097Y171500D01*
X268008Y172172D01*
X267794Y172690D01*
Y233500D01*
X267619Y234378D01*
X267122Y235122D01*
X239463Y262781D01*
X239249Y263299D01*
X238836Y263836D01*
X238299Y264249D01*
X237672Y264509D01*
X237000Y264597D01*
D02*
G37*
G36*
Y209597D02*
X236328Y209508D01*
X235701Y209249D01*
X235164Y208836D01*
X234751Y208298D01*
X234491Y207672D01*
X234403Y207000D01*
X234491Y206328D01*
X234751Y205701D01*
X235164Y205164D01*
X235701Y204751D01*
X236219Y204537D01*
X252206Y188550D01*
Y172690D01*
X251992Y172172D01*
X251903Y171500D01*
X251992Y170828D01*
X252251Y170202D01*
X252664Y169664D01*
X253202Y169251D01*
X253828Y168991D01*
X254500Y168903D01*
X255172Y168991D01*
X255799Y169251D01*
X256336Y169664D01*
X256749Y170202D01*
X257009Y170828D01*
X257097Y171500D01*
X257009Y172172D01*
X256794Y172690D01*
Y189500D01*
X256620Y190378D01*
X256122Y191122D01*
X239463Y207781D01*
X239249Y208298D01*
X238836Y208836D01*
X238299Y209249D01*
X237672Y209508D01*
X237000Y209597D01*
D02*
G37*
G36*
X290428Y171000D02*
X288000D01*
Y168572D01*
X288275Y168608D01*
X288997Y168907D01*
X289617Y169383D01*
X290093Y170003D01*
X290392Y170725D01*
X290428Y171000D01*
D02*
G37*
G36*
X235428D02*
X233000D01*
Y168572D01*
X233275Y168608D01*
X233997Y168907D01*
X234617Y169383D01*
X235093Y170003D01*
X235392Y170725D01*
X235428Y171000D01*
D02*
G37*
G36*
X287000D02*
X284572D01*
X284608Y170725D01*
X284907Y170003D01*
X285383Y169383D01*
X286003Y168907D01*
X286725Y168608D01*
X287000Y168572D01*
Y171000D01*
D02*
G37*
G36*
X232000D02*
X229572D01*
X229608Y170725D01*
X229907Y170003D01*
X230383Y169383D01*
X231003Y168907D01*
X231725Y168608D01*
X232000Y168572D01*
Y171000D01*
D02*
G37*
G36*
X233000Y166428D02*
Y164000D01*
X235428D01*
X235392Y164275D01*
X235093Y164997D01*
X234617Y165617D01*
X233997Y166093D01*
X233275Y166392D01*
X233000Y166428D01*
D02*
G37*
G36*
X288000D02*
Y164000D01*
X290428D01*
X290392Y164275D01*
X290093Y164997D01*
X289617Y165617D01*
X288997Y166093D01*
X288275Y166392D01*
X288000Y166428D01*
D02*
G37*
G36*
X232000D02*
X231725Y166392D01*
X231003Y166093D01*
X230383Y165617D01*
X229907Y164997D01*
X229608Y164275D01*
X229572Y164000D01*
X232000D01*
Y166428D01*
D02*
G37*
G36*
X287000D02*
X286725Y166392D01*
X286003Y166093D01*
X285383Y165617D01*
X284907Y164997D01*
X284608Y164275D01*
X284572Y164000D01*
X287000D01*
Y166428D01*
D02*
G37*
G36*
X290428Y163000D02*
X288000D01*
Y160572D01*
X288275Y160608D01*
X288997Y160907D01*
X289617Y161383D01*
X290093Y162003D01*
X290392Y162725D01*
X290428Y163000D01*
D02*
G37*
G36*
X235428D02*
X233000D01*
Y160572D01*
X233275Y160608D01*
X233997Y160907D01*
X234617Y161383D01*
X235093Y162003D01*
X235392Y162725D01*
X235428Y163000D01*
D02*
G37*
G36*
X287000D02*
X284572D01*
X284608Y162725D01*
X284907Y162003D01*
X285383Y161383D01*
X286003Y160907D01*
X286725Y160608D01*
X287000Y160572D01*
Y163000D01*
D02*
G37*
G36*
X232000D02*
X229572D01*
X229608Y162725D01*
X229907Y162003D01*
X230383Y161383D01*
X231003Y160907D01*
X231725Y160608D01*
X232000Y160572D01*
Y163000D01*
D02*
G37*
G36*
X257953Y146453D02*
X254500D01*
Y143000D01*
X257953D01*
Y146453D01*
D02*
G37*
G36*
X269953D02*
X266500D01*
Y143000D01*
X269953D01*
Y146453D01*
D02*
G37*
G36*
X265500D02*
X262047D01*
Y143000D01*
X265500D01*
Y146453D01*
D02*
G37*
G36*
X253500D02*
X250047D01*
Y143000D01*
X253500D01*
Y146453D01*
D02*
G37*
G36*
X269953Y142000D02*
X266500D01*
Y138547D01*
X269953D01*
Y142000D01*
D02*
G37*
G36*
X265500D02*
X262047D01*
Y138547D01*
X265500D01*
Y142000D01*
D02*
G37*
G36*
X257953D02*
X254500D01*
Y138547D01*
X257953D01*
Y142000D01*
D02*
G37*
G36*
X253500D02*
X250047D01*
Y138547D01*
X253500D01*
Y142000D01*
D02*
G37*
G36*
X286000Y146487D02*
X284968Y146351D01*
X284007Y145953D01*
X283181Y145319D01*
X282547Y144493D01*
X282149Y143532D01*
X282013Y142500D01*
X282149Y141468D01*
X282547Y140507D01*
X283181Y139681D01*
X284007Y139047D01*
X284968Y138649D01*
X286000Y138513D01*
X287032Y138649D01*
X287993Y139047D01*
X288819Y139681D01*
X289453Y140507D01*
X289851Y141468D01*
X289987Y142500D01*
X289851Y143532D01*
X289453Y144493D01*
X288819Y145319D01*
X287993Y145953D01*
X287032Y146351D01*
X286000Y146487D01*
D02*
G37*
G36*
X276000D02*
X274968Y146351D01*
X274007Y145953D01*
X273181Y145319D01*
X272547Y144493D01*
X272149Y143532D01*
X272013Y142500D01*
X272149Y141468D01*
X272547Y140507D01*
X273181Y139681D01*
X274007Y139047D01*
X274968Y138649D01*
X276000Y138513D01*
X277032Y138649D01*
X277993Y139047D01*
X278819Y139681D01*
X279453Y140507D01*
X279851Y141468D01*
X279987Y142500D01*
X279851Y143532D01*
X279453Y144493D01*
X278819Y145319D01*
X277993Y145953D01*
X277032Y146351D01*
X276000Y146487D01*
D02*
G37*
G36*
X234000D02*
X232968Y146351D01*
X232007Y145953D01*
X231181Y145319D01*
X230547Y144493D01*
X230149Y143532D01*
X230013Y142500D01*
X230149Y141468D01*
X230547Y140507D01*
X231181Y139681D01*
X232007Y139047D01*
X232968Y138649D01*
X234000Y138513D01*
X235032Y138649D01*
X235993Y139047D01*
X236819Y139681D01*
X237453Y140507D01*
X237851Y141468D01*
X237987Y142500D01*
X237851Y143532D01*
X237453Y144493D01*
X236819Y145319D01*
X235993Y145953D01*
X235032Y146351D01*
X234000Y146487D01*
D02*
G37*
%LPD*%
D12*
X233499Y296500D02*
X229500D01*
X233499Y300499D01*
Y301498D01*
X232499Y302498D01*
X230500D01*
X229500Y301498D01*
D33*
X244000Y142500D02*
Y158372D01*
X240000Y162373D02*
X244000Y158372D01*
X224000Y137500D02*
X239000Y122500D01*
X281000D02*
X296000Y137500D01*
X239000Y122500D02*
X281000D01*
X296000Y137500D02*
Y142500D01*
X224000Y137500D02*
Y142500D01*
X240000Y162373D02*
Y178000D01*
X231500Y186500D02*
X240000Y178000D01*
X296900Y178100D02*
Y283100D01*
X290000Y290000D02*
X296900Y283100D01*
X277500Y290000D02*
X290000D01*
X223100Y178100D02*
Y283100D01*
X230000Y290000D01*
X242500D01*
D34*
X231500Y240824D02*
Y241500D01*
X227850Y237174D02*
X231500Y240824D01*
X227850Y190826D02*
Y237174D01*
X231500Y186500D02*
Y187177D01*
X227850Y190826D02*
X231500Y187177D01*
X254500Y171500D02*
Y189500D01*
X237000Y207000D02*
X254500Y189500D01*
X265500Y171500D02*
Y233500D01*
X237000Y262000D02*
X265500Y233500D01*
D35*
X287500Y163500D02*
D03*
Y171500D02*
D03*
Y218500D02*
D03*
Y226500D02*
D03*
Y281500D02*
D03*
Y273500D02*
D03*
X260000Y294000D02*
D03*
Y286000D02*
D03*
X232500Y281500D02*
D03*
Y273500D02*
D03*
Y218500D02*
D03*
Y226500D02*
D03*
Y163500D02*
D03*
Y171500D02*
D03*
D36*
X224000Y142500D02*
D03*
X234000D02*
D03*
X244000D02*
D03*
X296000D02*
D03*
X286000D02*
D03*
X276000D02*
D03*
D37*
X254000D02*
D03*
X266000D02*
D03*
D38*
X242500Y290000D02*
D03*
X277500D02*
D03*
X231500Y186500D02*
D03*
Y241500D02*
D03*
X296900Y178100D02*
D03*
X223100D02*
D03*
D39*
X247500Y175000D02*
D03*
X237000Y207000D02*
D03*
X247500Y230000D02*
D03*
Y235000D02*
D03*
X249000Y212000D02*
D03*
X254500Y171500D02*
D03*
X265500D02*
D03*
X253500Y207000D02*
D03*
X247500Y180000D02*
D03*
X249000Y267000D02*
D03*
X253500Y262000D02*
D03*
X237000D02*
D03*
M02*
