G04*
G04 #@! TF.GenerationSoftware,Altium Limited,Altium Designer,20.1.14 (287)*
G04*
G04 Layer_Color=8388736*
%FSLAX25Y25*%
%MOIN*%
G70*
G04*
G04 #@! TF.SameCoordinates,7435E910-4062-4735-B4F5-29FF216EBA80*
G04*
G04*
G04 #@! TF.FilePolarity,Negative*
G04*
G01*
G75*
%ADD13R,0.18000X0.10000*%
%ADD14R,0.02769X0.13792*%
%ADD15R,0.06706X0.04737*%
%ADD16R,0.04800X0.03800*%
%ADD17R,0.06800X0.04800*%
%ADD18R,0.03800X0.04800*%
%ADD19R,0.08674X0.24422*%
%ADD20R,0.02769X0.03753*%
%ADD21R,0.03156X0.04337*%
%ADD22C,0.04737*%
%ADD23C,0.06706*%
%ADD24R,0.06706X0.06706*%
G36*
X262611Y302208D02*
X262663Y302198D01*
X262713Y302181D01*
X262759Y302158D01*
X262803Y302129D01*
X262842Y302095D01*
X262877Y302055D01*
X262906Y302011D01*
X262929Y301964D01*
X262946Y301915D01*
X262957Y301863D01*
X262960Y301811D01*
Y278189D01*
X262957Y278137D01*
X262946Y278085D01*
X262929Y278036D01*
X262906Y277989D01*
X262877Y277945D01*
X262842Y277906D01*
X262803Y277871D01*
X262759Y277842D01*
X262713Y277819D01*
X262663Y277802D01*
X262611Y277792D01*
X262559Y277788D01*
X257441D01*
X257389Y277792D01*
X257337Y277802D01*
X257288Y277819D01*
X257241Y277842D01*
X257197Y277871D01*
X257157Y277906D01*
X257123Y277945D01*
X257094Y277989D01*
X257071Y278036D01*
X257054Y278085D01*
X257044Y278137D01*
X257040Y278189D01*
Y288032D01*
X257044Y288084D01*
X257054Y288135D01*
X257071Y288185D01*
X257094Y288232D01*
X257123Y288276D01*
X257157Y288315D01*
X258842Y290000D01*
X257157Y291685D01*
X257123Y291724D01*
X257094Y291768D01*
X257071Y291815D01*
X257054Y291865D01*
X257044Y291916D01*
X257040Y291968D01*
Y301811D01*
X257044Y301863D01*
X257054Y301915D01*
X257071Y301964D01*
X257094Y302011D01*
X257123Y302055D01*
X257157Y302095D01*
X257197Y302129D01*
X257241Y302158D01*
X257288Y302181D01*
X257337Y302198D01*
X257389Y302208D01*
X257441Y302212D01*
X262559D01*
X262611Y302208D01*
D02*
G37*
G36*
X290111Y289708D02*
X290163Y289698D01*
X290212Y289681D01*
X290260Y289658D01*
X290303Y289629D01*
X290342Y289595D01*
X290377Y289555D01*
X290406Y289511D01*
X290429Y289464D01*
X290446Y289415D01*
X290457Y289363D01*
X290460Y289311D01*
Y265689D01*
X290457Y265637D01*
X290446Y265585D01*
X290429Y265536D01*
X290406Y265489D01*
X290377Y265445D01*
X290342Y265406D01*
X290303Y265371D01*
X290260Y265342D01*
X290212Y265319D01*
X290163Y265302D01*
X290111Y265292D01*
X290059Y265288D01*
X284941D01*
X284889Y265292D01*
X284837Y265302D01*
X284788Y265319D01*
X284740Y265342D01*
X284697Y265371D01*
X284658Y265406D01*
X284623Y265445D01*
X284594Y265489D01*
X284571Y265536D01*
X284554Y265585D01*
X284543Y265637D01*
X284540Y265689D01*
Y275532D01*
X284543Y275584D01*
X284554Y275635D01*
X284571Y275685D01*
X284594Y275732D01*
X284623Y275776D01*
X284658Y275815D01*
X286343Y277500D01*
X284658Y279185D01*
X284623Y279224D01*
X284594Y279268D01*
X284571Y279315D01*
X284554Y279365D01*
X284543Y279416D01*
X284540Y279468D01*
Y289311D01*
X284543Y289363D01*
X284554Y289415D01*
X284571Y289464D01*
X284594Y289511D01*
X284623Y289555D01*
X284658Y289595D01*
X284697Y289629D01*
X284740Y289658D01*
X284788Y289681D01*
X284837Y289698D01*
X284889Y289708D01*
X284941Y289712D01*
X290059D01*
X290111Y289708D01*
D02*
G37*
G36*
X235111D02*
X235163Y289698D01*
X235212Y289681D01*
X235260Y289658D01*
X235303Y289629D01*
X235343Y289595D01*
X235377Y289555D01*
X235406Y289511D01*
X235429Y289464D01*
X235446Y289415D01*
X235456Y289363D01*
X235460Y289311D01*
Y265689D01*
X235456Y265637D01*
X235446Y265585D01*
X235429Y265536D01*
X235406Y265489D01*
X235377Y265445D01*
X235343Y265406D01*
X235303Y265371D01*
X235260Y265342D01*
X235212Y265319D01*
X235163Y265302D01*
X235111Y265292D01*
X235059Y265288D01*
X229941D01*
X229889Y265292D01*
X229837Y265302D01*
X229787Y265319D01*
X229741Y265342D01*
X229697Y265371D01*
X229658Y265406D01*
X229623Y265445D01*
X229594Y265489D01*
X229571Y265536D01*
X229554Y265585D01*
X229543Y265637D01*
X229540Y265689D01*
Y275532D01*
X229543Y275584D01*
X229554Y275635D01*
X229571Y275685D01*
X229594Y275732D01*
X229623Y275776D01*
X229658Y275815D01*
X231343Y277500D01*
X229658Y279185D01*
X229623Y279224D01*
X229594Y279268D01*
X229571Y279315D01*
X229554Y279365D01*
X229543Y279416D01*
X229540Y279468D01*
Y289311D01*
X229543Y289363D01*
X229554Y289415D01*
X229571Y289464D01*
X229594Y289511D01*
X229623Y289555D01*
X229658Y289595D01*
X229697Y289629D01*
X229741Y289658D01*
X229787Y289681D01*
X229837Y289698D01*
X229889Y289708D01*
X229941Y289712D01*
X235059D01*
X235111Y289708D01*
D02*
G37*
G36*
X290111Y234708D02*
X290163Y234698D01*
X290212Y234681D01*
X290260Y234658D01*
X290303Y234629D01*
X290342Y234594D01*
X290377Y234555D01*
X290406Y234511D01*
X290429Y234464D01*
X290446Y234415D01*
X290457Y234363D01*
X290460Y234311D01*
Y224468D01*
X290457Y224416D01*
X290446Y224365D01*
X290429Y224315D01*
X290406Y224268D01*
X290377Y224224D01*
X290342Y224185D01*
X288657Y222500D01*
X290342Y220815D01*
X290377Y220776D01*
X290406Y220732D01*
X290429Y220685D01*
X290446Y220635D01*
X290457Y220584D01*
X290460Y220532D01*
Y210689D01*
X290457Y210637D01*
X290446Y210585D01*
X290429Y210536D01*
X290406Y210489D01*
X290377Y210445D01*
X290342Y210405D01*
X290303Y210371D01*
X290260Y210342D01*
X290212Y210319D01*
X290163Y210302D01*
X290111Y210292D01*
X290059Y210288D01*
X284941D01*
X284889Y210292D01*
X284837Y210302D01*
X284788Y210319D01*
X284740Y210342D01*
X284697Y210371D01*
X284658Y210405D01*
X284623Y210445D01*
X284594Y210489D01*
X284571Y210536D01*
X284554Y210585D01*
X284543Y210637D01*
X284540Y210689D01*
Y234311D01*
X284543Y234363D01*
X284554Y234415D01*
X284571Y234464D01*
X284594Y234511D01*
X284623Y234555D01*
X284658Y234594D01*
X284697Y234629D01*
X284740Y234658D01*
X284788Y234681D01*
X284837Y234698D01*
X284889Y234708D01*
X284941Y234712D01*
X290059D01*
X290111Y234708D01*
D02*
G37*
G36*
X235111D02*
X235163Y234698D01*
X235212Y234681D01*
X235260Y234658D01*
X235303Y234629D01*
X235343Y234594D01*
X235377Y234555D01*
X235406Y234511D01*
X235429Y234464D01*
X235446Y234415D01*
X235456Y234363D01*
X235460Y234311D01*
Y224468D01*
X235456Y224416D01*
X235446Y224365D01*
X235429Y224315D01*
X235406Y224268D01*
X235377Y224224D01*
X235343Y224185D01*
X233658Y222500D01*
X235343Y220815D01*
X235377Y220776D01*
X235406Y220732D01*
X235429Y220685D01*
X235446Y220635D01*
X235456Y220584D01*
X235460Y220532D01*
Y210689D01*
X235456Y210637D01*
X235446Y210585D01*
X235429Y210536D01*
X235406Y210489D01*
X235377Y210445D01*
X235343Y210405D01*
X235303Y210371D01*
X235260Y210342D01*
X235212Y210319D01*
X235163Y210302D01*
X235111Y210292D01*
X235059Y210288D01*
X229941D01*
X229889Y210292D01*
X229837Y210302D01*
X229787Y210319D01*
X229741Y210342D01*
X229697Y210371D01*
X229658Y210405D01*
X229623Y210445D01*
X229594Y210489D01*
X229571Y210536D01*
X229554Y210585D01*
X229543Y210637D01*
X229540Y210689D01*
Y234311D01*
X229543Y234363D01*
X229554Y234415D01*
X229571Y234464D01*
X229594Y234511D01*
X229623Y234555D01*
X229658Y234594D01*
X229697Y234629D01*
X229741Y234658D01*
X229787Y234681D01*
X229837Y234698D01*
X229889Y234708D01*
X229941Y234712D01*
X235059D01*
X235111Y234708D01*
D02*
G37*
G36*
X290111Y179708D02*
X290163Y179698D01*
X290212Y179681D01*
X290260Y179658D01*
X290303Y179629D01*
X290342Y179595D01*
X290377Y179555D01*
X290406Y179511D01*
X290429Y179464D01*
X290446Y179415D01*
X290457Y179363D01*
X290460Y179311D01*
Y169468D01*
X290457Y169416D01*
X290446Y169365D01*
X290429Y169315D01*
X290406Y169268D01*
X290377Y169225D01*
X290342Y169185D01*
X288657Y167500D01*
X290342Y165815D01*
X290377Y165776D01*
X290406Y165732D01*
X290429Y165685D01*
X290446Y165635D01*
X290457Y165584D01*
X290460Y165532D01*
Y155689D01*
X290457Y155637D01*
X290446Y155585D01*
X290429Y155536D01*
X290406Y155489D01*
X290377Y155445D01*
X290342Y155405D01*
X290303Y155371D01*
X290260Y155342D01*
X290212Y155319D01*
X290163Y155302D01*
X290111Y155292D01*
X290059Y155288D01*
X284941D01*
X284889Y155292D01*
X284837Y155302D01*
X284788Y155319D01*
X284740Y155342D01*
X284697Y155371D01*
X284658Y155405D01*
X284623Y155445D01*
X284594Y155489D01*
X284571Y155536D01*
X284554Y155585D01*
X284543Y155637D01*
X284540Y155689D01*
Y179311D01*
X284543Y179363D01*
X284554Y179415D01*
X284571Y179464D01*
X284594Y179511D01*
X284623Y179555D01*
X284658Y179595D01*
X284697Y179629D01*
X284740Y179658D01*
X284788Y179681D01*
X284837Y179698D01*
X284889Y179708D01*
X284941Y179712D01*
X290059D01*
X290111Y179708D01*
D02*
G37*
G36*
X235111D02*
X235163Y179698D01*
X235212Y179681D01*
X235260Y179658D01*
X235303Y179629D01*
X235343Y179595D01*
X235377Y179555D01*
X235406Y179511D01*
X235429Y179464D01*
X235446Y179415D01*
X235456Y179363D01*
X235460Y179311D01*
Y169468D01*
X235456Y169416D01*
X235446Y169365D01*
X235429Y169315D01*
X235406Y169268D01*
X235377Y169225D01*
X235343Y169185D01*
X233658Y167500D01*
X235343Y165815D01*
X235377Y165776D01*
X235406Y165732D01*
X235429Y165685D01*
X235446Y165635D01*
X235456Y165584D01*
X235460Y165532D01*
Y155689D01*
X235456Y155637D01*
X235446Y155585D01*
X235429Y155536D01*
X235406Y155489D01*
X235377Y155445D01*
X235343Y155405D01*
X235303Y155371D01*
X235260Y155342D01*
X235212Y155319D01*
X235163Y155302D01*
X235111Y155292D01*
X235059Y155288D01*
X229941D01*
X229889Y155292D01*
X229837Y155302D01*
X229787Y155319D01*
X229741Y155342D01*
X229697Y155371D01*
X229658Y155405D01*
X229623Y155445D01*
X229594Y155489D01*
X229571Y155536D01*
X229554Y155585D01*
X229543Y155637D01*
X229540Y155689D01*
Y179311D01*
X229543Y179363D01*
X229554Y179415D01*
X229571Y179464D01*
X229594Y179511D01*
X229623Y179555D01*
X229658Y179595D01*
X229697Y179629D01*
X229741Y179658D01*
X229787Y179681D01*
X229837Y179698D01*
X229889Y179708D01*
X229941Y179712D01*
X235059D01*
X235111Y179708D01*
D02*
G37*
D13*
X227000Y299500D02*
D03*
D14*
X293012Y167500D02*
D03*
X281988D02*
D03*
X293012Y222500D02*
D03*
X281988D02*
D03*
Y277500D02*
D03*
X293012D02*
D03*
X254488Y290000D02*
D03*
X265512D02*
D03*
X226988Y277500D02*
D03*
X238012D02*
D03*
Y222500D02*
D03*
X226988D02*
D03*
X238012Y167500D02*
D03*
X226988D02*
D03*
D15*
X278100D02*
D03*
X296900D02*
D03*
X278100Y222500D02*
D03*
X296900D02*
D03*
Y277500D02*
D03*
X278100D02*
D03*
X269400Y290000D02*
D03*
X250600D02*
D03*
X241900Y277500D02*
D03*
X223100D02*
D03*
Y222500D02*
D03*
X241900D02*
D03*
X223100Y167500D02*
D03*
X241900D02*
D03*
D16*
X273000Y150376D02*
D03*
Y156624D02*
D03*
X247000D02*
D03*
Y150376D02*
D03*
X239000Y197124D02*
D03*
Y190876D02*
D03*
Y245876D02*
D03*
Y252124D02*
D03*
D17*
X254500Y151000D02*
D03*
Y164000D02*
D03*
X265500Y151000D02*
D03*
Y164000D02*
D03*
D18*
X252624Y240000D02*
D03*
X246376D02*
D03*
Y185000D02*
D03*
X252624D02*
D03*
X242376Y207000D02*
D03*
X248624D02*
D03*
X242376Y262000D02*
D03*
X248624D02*
D03*
D19*
X282000Y250000D02*
D03*
X260500D02*
D03*
Y195000D02*
D03*
X282000D02*
D03*
D20*
X252669Y178500D02*
D03*
X261331D02*
D03*
Y233500D02*
D03*
X252669D02*
D03*
D21*
X252240Y201118D02*
D03*
Y190882D02*
D03*
X244760Y201118D02*
D03*
X248500D02*
D03*
X244760Y190882D02*
D03*
X252240Y256118D02*
D03*
Y245882D02*
D03*
X244760Y256118D02*
D03*
X248500D02*
D03*
X244760Y245882D02*
D03*
D22*
X287500Y163500D02*
D03*
Y171500D02*
D03*
Y218500D02*
D03*
Y226500D02*
D03*
Y281500D02*
D03*
Y273500D02*
D03*
X260000Y294000D02*
D03*
Y286000D02*
D03*
X232500Y281500D02*
D03*
Y273500D02*
D03*
Y218500D02*
D03*
Y226500D02*
D03*
Y163500D02*
D03*
Y171500D02*
D03*
D23*
X224000Y142500D02*
D03*
X234000D02*
D03*
X244000D02*
D03*
X296000D02*
D03*
X286000D02*
D03*
X276000D02*
D03*
D24*
X254000D02*
D03*
X266000D02*
D03*
M02*
