G04*
G04 #@! TF.GenerationSoftware,Altium Limited,Altium Designer,20.1.8 (145)*
G04*
G04 Layer_Physical_Order=2*
G04 Layer_Color=16711680*
%FSLAX25Y25*%
%MOIN*%
G70*
G04*
G04 #@! TF.SameCoordinates,21E5CCAA-87AA-48E4-8A7B-6489D773F89B*
G04*
G04*
G04 #@! TF.FilePolarity,Positive*
G04*
G01*
G75*
%ADD11C,0.01000*%
%ADD30C,0.03937*%
%ADD39C,0.08000*%
%ADD40C,0.02362*%
G36*
X324803Y358268D02*
X66535D01*
Y429528D01*
X324803D01*
Y358268D01*
D02*
G37*
%LPC*%
G36*
X237495Y417299D02*
X236644Y417130D01*
X236346Y416931D01*
X237495Y415782D01*
X238643Y416931D01*
X238346Y417130D01*
X237495Y417299D01*
D02*
G37*
G36*
X239350Y416224D02*
X238202Y415075D01*
X239350Y413927D01*
X239549Y414224D01*
X239718Y415075D01*
X239549Y415926D01*
X239350Y416224D01*
D02*
G37*
G36*
X235639Y416224D02*
X235440Y415926D01*
X235271Y415075D01*
X235440Y414224D01*
X235639Y413927D01*
X236788Y415075D01*
X235639Y416224D01*
D02*
G37*
G36*
X284252Y427506D02*
X282880Y427371D01*
X281560Y426971D01*
X280344Y426321D01*
X279278Y425446D01*
X278403Y424380D01*
X277753Y423164D01*
X277353Y421845D01*
X277218Y420472D01*
X277353Y419100D01*
X277753Y417781D01*
X278403Y416565D01*
X279278Y415499D01*
X280344Y414624D01*
X281560Y413974D01*
X282880Y413574D01*
X284252Y413439D01*
X285624Y413574D01*
X286944Y413974D01*
X288160Y414624D01*
X289226Y415499D01*
X290100Y416565D01*
X290750Y417781D01*
X291151Y419100D01*
X291286Y420472D01*
X291151Y421845D01*
X290750Y423164D01*
X290100Y424380D01*
X289226Y425446D01*
X288160Y426321D01*
X286944Y426971D01*
X285624Y427371D01*
X284252Y427506D01*
D02*
G37*
G36*
X237495Y414368D02*
X236346Y413220D01*
X236644Y413021D01*
X237495Y412851D01*
X238346Y413021D01*
X238643Y413220D01*
X237495Y414368D01*
D02*
G37*
G36*
X229917Y414242D02*
X229066Y414073D01*
X228768Y413874D01*
X229917Y412726D01*
X231065Y413874D01*
X230768Y414073D01*
X229917Y414242D01*
D02*
G37*
G36*
X231772Y413167D02*
X230624Y412018D01*
X231772Y410870D01*
X231971Y411167D01*
X232141Y412018D01*
X231971Y412870D01*
X231772Y413167D01*
D02*
G37*
G36*
X228061Y413167D02*
X227862Y412870D01*
X227693Y412018D01*
X227862Y411167D01*
X228061Y410870D01*
X229210Y412018D01*
X228061Y413167D01*
D02*
G37*
G36*
X229917Y411311D02*
X228768Y410163D01*
X229066Y409964D01*
X229917Y409795D01*
X230768Y409964D01*
X231065Y410163D01*
X229917Y411311D01*
D02*
G37*
G36*
X259842Y428608D02*
X258077Y428469D01*
X256355Y428055D01*
X254719Y427378D01*
X253209Y426452D01*
X251863Y425302D01*
X250713Y423956D01*
X249788Y422446D01*
X249110Y420810D01*
X248697Y419088D01*
X248558Y417323D01*
X248697Y415557D01*
X249110Y413836D01*
X249788Y412200D01*
X250713Y410690D01*
X251863Y409343D01*
X253209Y408193D01*
X254719Y407268D01*
X256355Y406590D01*
X258077Y406177D01*
X259842Y406038D01*
X261608Y406177D01*
X263330Y406590D01*
X264966Y407268D01*
X266476Y408193D01*
X267822Y409343D01*
X268972Y410690D01*
X269897Y412200D01*
X270575Y413836D01*
X270988Y415557D01*
X271127Y417323D01*
X270988Y419088D01*
X270575Y420810D01*
X269897Y422446D01*
X268972Y423956D01*
X267822Y425302D01*
X266476Y426452D01*
X264966Y427378D01*
X263330Y428055D01*
X261608Y428469D01*
X259842Y428608D01*
D02*
G37*
G36*
X218110Y408129D02*
X217259Y407960D01*
X216538Y407478D01*
X216335Y407174D01*
X215487D01*
X214902Y407058D01*
X214406Y406726D01*
X211468Y403789D01*
X211417Y403799D01*
X210566Y403629D01*
X209845Y403147D01*
X209363Y402426D01*
X209193Y401575D01*
X209363Y400724D01*
X209845Y400002D01*
X210566Y399520D01*
X211417Y399351D01*
X212268Y399520D01*
X212990Y400002D01*
X213472Y400724D01*
X213641Y401575D01*
X213631Y401626D01*
X216121Y404115D01*
X216863D01*
X217259Y403851D01*
X218110Y403682D01*
X218961Y403851D01*
X219683Y404333D01*
X220165Y405055D01*
X220334Y405905D01*
X220165Y406756D01*
X219683Y407478D01*
X218961Y407960D01*
X218110Y408129D01*
D02*
G37*
G36*
X191236Y405136D02*
X190385Y404966D01*
X190087Y404767D01*
X191236Y403619D01*
X192385Y404767D01*
X192087Y404966D01*
X191236Y405136D01*
D02*
G37*
G36*
X193092Y404060D02*
X191943Y402912D01*
X193092Y401763D01*
X193290Y402061D01*
X193460Y402912D01*
X193290Y403763D01*
X193092Y404060D01*
D02*
G37*
G36*
X189380Y404060D02*
X189181Y403763D01*
X189012Y402912D01*
X189181Y402061D01*
X189380Y401763D01*
X190529Y402912D01*
X189380Y404060D01*
D02*
G37*
G36*
X144009Y403015D02*
X143158Y402846D01*
X142860Y402647D01*
X144009Y401499D01*
X145157Y402647D01*
X144860Y402846D01*
X144009Y403015D01*
D02*
G37*
G36*
X154724Y403011D02*
X153873Y402842D01*
X153576Y402643D01*
X154724Y401495D01*
X155873Y402643D01*
X155575Y402842D01*
X154724Y403011D01*
D02*
G37*
G36*
X191236Y402205D02*
X190087Y401056D01*
X190385Y400857D01*
X191236Y400688D01*
X192087Y400857D01*
X192385Y401056D01*
X191236Y402205D01*
D02*
G37*
G36*
X145864Y401940D02*
X144716Y400792D01*
X145864Y399643D01*
X146063Y399940D01*
X146232Y400792D01*
X146063Y401643D01*
X145864Y401940D01*
D02*
G37*
G36*
X142153Y401940D02*
X141954Y401643D01*
X141785Y400792D01*
X141954Y399940D01*
X142153Y399643D01*
X143302Y400792D01*
X142153Y401940D01*
D02*
G37*
G36*
X156580Y401936D02*
X155431Y400787D01*
X156580Y399639D01*
X156779Y399936D01*
X156948Y400787D01*
X156779Y401638D01*
X156580Y401936D01*
D02*
G37*
G36*
X152869Y401936D02*
X152670Y401638D01*
X152501Y400787D01*
X152670Y399936D01*
X152869Y399639D01*
X154017Y400787D01*
X152869Y401936D01*
D02*
G37*
G36*
X144009Y400084D02*
X142860Y398936D01*
X143158Y398737D01*
X144009Y398568D01*
X144860Y398737D01*
X145157Y398936D01*
X144009Y400084D01*
D02*
G37*
G36*
X154724Y400080D02*
X153576Y398932D01*
X153873Y398733D01*
X154724Y398564D01*
X155575Y398733D01*
X155873Y398932D01*
X154724Y400080D01*
D02*
G37*
G36*
X275976Y402681D02*
X274671Y402509D01*
X273455Y402005D01*
X272811Y401511D01*
X275976Y398345D01*
X279142Y401511D01*
X278498Y402005D01*
X277282Y402509D01*
X275976Y402681D01*
D02*
G37*
G36*
X279849Y400804D02*
X276683Y397638D01*
X279849Y394472D01*
X280344Y395116D01*
X280848Y396333D01*
X281019Y397638D01*
X280848Y398943D01*
X280344Y400159D01*
X279849Y400804D01*
D02*
G37*
G36*
X272103Y400804D02*
X271609Y400159D01*
X271105Y398943D01*
X270933Y397638D01*
X271105Y396333D01*
X271609Y395116D01*
X272103Y394472D01*
X275269Y397638D01*
X272103Y400804D01*
D02*
G37*
G36*
X287795Y402681D02*
X286490Y402509D01*
X285274Y402005D01*
X284229Y401204D01*
X283428Y400159D01*
X282924Y398943D01*
X282752Y397638D01*
X282924Y396333D01*
X283428Y395116D01*
X284229Y394072D01*
X285274Y393270D01*
X286490Y392766D01*
X287795Y392595D01*
X289101Y392766D01*
X290317Y393270D01*
X291361Y394072D01*
X292163Y395116D01*
X292667Y396333D01*
X292838Y397638D01*
X292667Y398943D01*
X292163Y400159D01*
X291361Y401204D01*
X290317Y402005D01*
X289101Y402509D01*
X287795Y402681D01*
D02*
G37*
G36*
X275976Y396931D02*
X272810Y393765D01*
X273455Y393270D01*
X274671Y392766D01*
X275976Y392595D01*
X277282Y392766D01*
X278498Y393270D01*
X279142Y393765D01*
X275976Y396931D01*
D02*
G37*
G36*
X234763Y392114D02*
X233912Y391945D01*
X233614Y391746D01*
X234763Y390598D01*
X235911Y391746D01*
X235614Y391945D01*
X234763Y392114D01*
D02*
G37*
G36*
X236619Y391039D02*
X235470Y389891D01*
X236619Y388742D01*
X236818Y389040D01*
X236987Y389891D01*
X236818Y390742D01*
X236619Y391039D01*
D02*
G37*
G36*
X232907Y391039D02*
X232708Y390742D01*
X232539Y389891D01*
X232708Y389040D01*
X232907Y388742D01*
X234056Y389891D01*
X232907Y391039D01*
D02*
G37*
G36*
X234763Y389183D02*
X233614Y388035D01*
X233912Y387836D01*
X234763Y387667D01*
X235614Y387836D01*
X235911Y388035D01*
X234763Y389183D01*
D02*
G37*
G36*
X287795Y390870D02*
X286490Y390698D01*
X285274Y390194D01*
X284229Y389393D01*
X283428Y388348D01*
X282924Y387132D01*
X282752Y385827D01*
X282924Y384522D01*
X283428Y383305D01*
X284229Y382261D01*
X285274Y381459D01*
X286490Y380956D01*
X287795Y380784D01*
X289101Y380956D01*
X290317Y381459D01*
X291361Y382261D01*
X292163Y383305D01*
X292667Y384522D01*
X292838Y385827D01*
X292667Y387132D01*
X292163Y388348D01*
X291361Y389393D01*
X290317Y390194D01*
X289101Y390698D01*
X287795Y390870D01*
D02*
G37*
G36*
X275976D02*
X274671Y390698D01*
X273455Y390194D01*
X272410Y389393D01*
X271609Y388348D01*
X271105Y387132D01*
X270933Y385827D01*
X271105Y384522D01*
X271609Y383305D01*
X272410Y382261D01*
X273455Y381459D01*
X274671Y380956D01*
X275976Y380784D01*
X277282Y380956D01*
X278498Y381459D01*
X279542Y382261D01*
X280344Y383305D01*
X280848Y384522D01*
X281019Y385827D01*
X280848Y387132D01*
X280344Y388348D01*
X279542Y389393D01*
X278498Y390194D01*
X277282Y390698D01*
X275976Y390870D01*
D02*
G37*
G36*
X103220Y389689D02*
X101915Y389517D01*
X100699Y389013D01*
X99654Y388212D01*
X98853Y387167D01*
X98349Y385951D01*
X98177Y384646D01*
X98349Y383340D01*
X98853Y382124D01*
X99654Y381080D01*
X100699Y380278D01*
X101915Y379774D01*
X103220Y379603D01*
X104526Y379774D01*
X105742Y380278D01*
X106787Y381080D01*
X107588Y382124D01*
X108092Y383340D01*
X108264Y384646D01*
X108092Y385951D01*
X107588Y387167D01*
X106787Y388212D01*
X105742Y389013D01*
X104526Y389517D01*
X103220Y389689D01*
D02*
G37*
G36*
X304795Y392766D02*
X303442Y392632D01*
X302140Y392237D01*
X300940Y391596D01*
X299889Y390733D01*
X299026Y389682D01*
X298385Y388482D01*
X297990Y387180D01*
X297856Y385827D01*
X297990Y384473D01*
X298385Y383171D01*
X299026Y381972D01*
X299889Y380920D01*
X300940Y380057D01*
X302140Y379416D01*
X303442Y379021D01*
X304795Y378888D01*
X306149Y379021D01*
X307451Y379416D01*
X308650Y380057D01*
X309702Y380920D01*
X310565Y381972D01*
X311206Y383171D01*
X311601Y384473D01*
X311734Y385827D01*
X311601Y387180D01*
X311206Y388482D01*
X310565Y389682D01*
X309702Y390733D01*
X308650Y391596D01*
X307451Y392237D01*
X306149Y392632D01*
X304795Y392766D01*
D02*
G37*
G36*
X188858Y394827D02*
X178858D01*
Y385327D01*
X178858D01*
Y377328D01*
X178858D01*
Y376827D01*
X188858D01*
Y394827D01*
D02*
G37*
G36*
X234768Y377286D02*
X233916Y377116D01*
X233619Y376918D01*
X234768Y375769D01*
X235916Y376918D01*
X235618Y377116D01*
X234768Y377286D01*
D02*
G37*
G36*
X236623Y376210D02*
X235475Y375062D01*
X236623Y373913D01*
X236822Y374211D01*
X236991Y375062D01*
X236822Y375913D01*
X236623Y376210D01*
D02*
G37*
G36*
X232912Y376210D02*
X232713Y375913D01*
X232544Y375062D01*
X232713Y374211D01*
X232912Y373913D01*
X234060Y375062D01*
X232912Y376210D01*
D02*
G37*
G36*
X234768Y374355D02*
X233619Y373206D01*
X233916Y373007D01*
X234768Y372838D01*
X235618Y373007D01*
X235916Y373206D01*
X234768Y374355D01*
D02*
G37*
G36*
X86221Y385679D02*
X84867Y385546D01*
X83565Y385151D01*
X82365Y384510D01*
X81314Y383647D01*
X80451Y382595D01*
X79810Y381396D01*
X79415Y380094D01*
X79282Y378740D01*
X79415Y377386D01*
X79810Y376085D01*
X80451Y374885D01*
X81314Y373834D01*
X82365Y372971D01*
X83565Y372329D01*
X84867Y371935D01*
X86221Y371801D01*
X87574Y371935D01*
X88876Y372329D01*
X90075Y372971D01*
X91127Y373834D01*
X91990Y374885D01*
X92631Y376085D01*
X93026Y377386D01*
X93159Y378740D01*
X93026Y380094D01*
X92631Y381396D01*
X91990Y382595D01*
X91127Y383647D01*
X90075Y384510D01*
X88876Y385151D01*
X87574Y385546D01*
X86221Y385679D01*
D02*
G37*
G36*
X287795Y379059D02*
X286490Y378887D01*
X285274Y378383D01*
X284229Y377582D01*
X283428Y376537D01*
X282924Y375321D01*
X282752Y374016D01*
X282924Y372710D01*
X283428Y371494D01*
X284229Y370450D01*
X285274Y369648D01*
X286490Y369145D01*
X287795Y368973D01*
X289101Y369145D01*
X290317Y369648D01*
X291361Y370450D01*
X292163Y371494D01*
X292667Y372710D01*
X292838Y374016D01*
X292667Y375321D01*
X292163Y376537D01*
X291361Y377582D01*
X290317Y378383D01*
X289101Y378887D01*
X287795Y379059D01*
D02*
G37*
G36*
X275976D02*
X274671Y378887D01*
X273455Y378383D01*
X272410Y377582D01*
X271609Y376537D01*
X271105Y375321D01*
X270933Y374016D01*
X271105Y372710D01*
X271609Y371494D01*
X272410Y370450D01*
X273455Y369648D01*
X274671Y369145D01*
X275976Y368973D01*
X277282Y369145D01*
X278498Y369648D01*
X279542Y370450D01*
X280344Y371494D01*
X280848Y372710D01*
X281019Y374016D01*
X280848Y375321D01*
X280344Y376537D01*
X279542Y377582D01*
X278498Y378383D01*
X277282Y378887D01*
X275976Y379059D01*
D02*
G37*
G36*
X103220Y377878D02*
X101915Y377706D01*
X100699Y377202D01*
X99654Y376401D01*
X98853Y375356D01*
X98349Y374140D01*
X98177Y372835D01*
X98349Y371529D01*
X98853Y370313D01*
X99654Y369269D01*
X100699Y368467D01*
X101915Y367963D01*
X103220Y367792D01*
X104526Y367963D01*
X105742Y368467D01*
X106787Y369269D01*
X107588Y370313D01*
X108092Y371529D01*
X108264Y372835D01*
X108092Y374140D01*
X107588Y375356D01*
X106787Y376401D01*
X105742Y377202D01*
X104526Y377706D01*
X103220Y377878D01*
D02*
G37*
G36*
X148819Y379869D02*
X147447Y379733D01*
X146127Y379333D01*
X144911Y378683D01*
X143845Y377808D01*
X142971Y376743D01*
X142321Y375526D01*
X141920Y374207D01*
X141785Y372835D01*
X141920Y371462D01*
X142321Y370143D01*
X142971Y368927D01*
X143845Y367861D01*
X144911Y366986D01*
X146127Y366336D01*
X147447Y365936D01*
X148819Y365801D01*
X150191Y365936D01*
X151511Y366336D01*
X152727Y366986D01*
X153793Y367861D01*
X154667Y368927D01*
X155317Y370143D01*
X155718Y371462D01*
X155853Y372835D01*
X155718Y374207D01*
X155317Y375526D01*
X154667Y376743D01*
X153793Y377808D01*
X152727Y378683D01*
X151511Y379333D01*
X150191Y379733D01*
X148819Y379869D01*
D02*
G37*
G36*
X204331Y367184D02*
X203480Y367015D01*
X203182Y366816D01*
X204331Y365668D01*
X205479Y366816D01*
X205182Y367015D01*
X204331Y367184D01*
D02*
G37*
G36*
X234878Y367148D02*
X234027Y366979D01*
X233729Y366780D01*
X234878Y365632D01*
X236027Y366780D01*
X235729Y366979D01*
X234878Y367148D01*
D02*
G37*
G36*
X163227Y365926D02*
X162376Y365757D01*
X162078Y365558D01*
X163227Y364409D01*
X164376Y365558D01*
X164078Y365757D01*
X163227Y365926D01*
D02*
G37*
G36*
X206186Y366109D02*
X205038Y364961D01*
X206186Y363812D01*
X206385Y364110D01*
X206555Y364961D01*
X206385Y365812D01*
X206186Y366109D01*
D02*
G37*
G36*
X202475Y366109D02*
X202276Y365812D01*
X202107Y364961D01*
X202276Y364110D01*
X202475Y363812D01*
X203624Y364961D01*
X202475Y366109D01*
D02*
G37*
G36*
X236734Y366073D02*
X235585Y364924D01*
X236734Y363776D01*
X236933Y364073D01*
X237102Y364924D01*
X236933Y365775D01*
X236734Y366073D01*
D02*
G37*
G36*
X233022Y366073D02*
X232823Y365775D01*
X232654Y364924D01*
X232823Y364073D01*
X233022Y363776D01*
X234171Y364924D01*
X233022Y366073D01*
D02*
G37*
G36*
X204331Y364253D02*
X203182Y363105D01*
X203480Y362906D01*
X204331Y362737D01*
X205182Y362906D01*
X205479Y363105D01*
X204331Y364253D01*
D02*
G37*
G36*
X234878Y364217D02*
X233729Y363069D01*
X234027Y362870D01*
X234878Y362701D01*
X235729Y362870D01*
X236027Y363069D01*
X234878Y364217D01*
D02*
G37*
G36*
X165083Y364851D02*
X163934Y363702D01*
X165083Y362554D01*
X165282Y362851D01*
X165451Y363702D01*
X165282Y364553D01*
X165083Y364851D01*
D02*
G37*
G36*
X161371Y364851D02*
X161172Y364553D01*
X161003Y363702D01*
X161172Y362851D01*
X161371Y362554D01*
X162520Y363702D01*
X161371Y364851D01*
D02*
G37*
G36*
X163227Y362995D02*
X162078Y361847D01*
X162376Y361648D01*
X163227Y361479D01*
X164078Y361648D01*
X164376Y361847D01*
X163227Y362995D01*
D02*
G37*
G36*
X184646Y375144D02*
X183273Y375009D01*
X181954Y374609D01*
X180738Y373959D01*
X179672Y373084D01*
X178797Y372018D01*
X178147Y370802D01*
X177747Y369482D01*
X177612Y368110D01*
X177747Y366738D01*
X178147Y365419D01*
X178797Y364202D01*
X179672Y363137D01*
X180738Y362262D01*
X181954Y361612D01*
X183273Y361211D01*
X184646Y361076D01*
X186018Y361211D01*
X187337Y361612D01*
X188554Y362262D01*
X189619Y363137D01*
X190494Y364202D01*
X191144Y365419D01*
X191544Y366738D01*
X191680Y368110D01*
X191544Y369482D01*
X191144Y370802D01*
X190494Y372018D01*
X189619Y373084D01*
X188554Y373959D01*
X187337Y374609D01*
X186018Y375009D01*
X184646Y375144D01*
D02*
G37*
%LPD*%
D11*
X211417Y401575D02*
X215487Y405645D01*
X217850D01*
X218110Y405905D01*
X180858Y379328D02*
Y383327D01*
X184857Y379328D01*
X185857D01*
X186856Y380328D01*
Y382327D01*
X185857Y383327D01*
D30*
X284252Y420472D02*
D03*
X148819Y372835D02*
D03*
X184646Y368110D02*
D03*
D39*
X103220Y384646D02*
D03*
Y372835D02*
D03*
X287795Y374016D02*
D03*
X275976D02*
D03*
X275976Y385827D02*
D03*
X275976Y397638D02*
D03*
X287795Y385827D02*
D03*
X287795Y397638D02*
D03*
D40*
X234763Y389891D02*
D03*
X234768Y375062D02*
D03*
X234878Y364924D02*
D03*
X229917Y412018D02*
D03*
X237495Y415075D02*
D03*
X144009Y400792D02*
D03*
X204331Y364961D02*
D03*
X218110Y405905D02*
D03*
X211417Y401575D02*
D03*
X191236Y402912D02*
D03*
X154724Y400787D02*
D03*
X163227Y363702D02*
D03*
M02*
