M48
;Layer_Color=9474304
;FILE_FORMAT=2:5
INCH,TZ
;TYPE=PLATED
T1F00S00C0.01378
T2F00S00C0.04000
T3F00S00C0.11811
;TYPE=NON_PLATED
T4F00S00C0.12598
%
T01
X154724Y400787
X191236Y402912
X191365Y412926
X196864Y427432
X210346Y414163
X229574Y420781
X234523Y420573
X249578Y420825
X259517Y420624
X264665Y420675
X264570Y442035
X254509Y441976
X239524Y441924
X219057Y445978
X163227Y363702
T02
X146921Y374016
Y385827
X231024Y390158
X231024Y401968
X242843
X242843Y390158
X242843Y378346
X231024
T03
X129921Y379921
X259842Y390158
T04
X122047Y440945
X284252
M30
