G04*
G04 #@! TF.GenerationSoftware,Altium Limited,Altium Designer,20.1.14 (287)*
G04*
G04 Layer_Color=65535*
%FSLAX25Y25*%
%MOIN*%
G70*
G04*
G04 #@! TF.SameCoordinates,4FB9827E-06E0-404B-8E69-8936AD8A3D5E*
G04*
G04*
G04 #@! TF.FilePolarity,Positive*
G04*
G01*
G75*
%ADD10C,0.00984*%
%ADD11C,0.01000*%
%ADD12C,0.00787*%
%ADD13C,0.00800*%
D10*
X107382Y422118D02*
X106644Y422544D01*
Y421692D01*
X107382Y422118D01*
D11*
X188880Y379500D02*
X189246Y378616D01*
X190130Y378250D01*
X191014Y378616D01*
X191380Y379500D01*
X156674Y362500D02*
X156343Y363409D01*
X155505Y363893D01*
X154553Y363725D01*
X153931Y362984D01*
Y362016D01*
X154553Y361275D01*
X155505Y361107D01*
X156343Y361591D01*
X156674Y362500D01*
X202425Y389988D02*
X205575D01*
X210299D02*
Y401012D01*
X206362D02*
X210299D01*
X197701Y389988D02*
Y401012D01*
X201638D01*
X71500Y359500D02*
Y397500D01*
X115000Y366878D02*
Y390500D01*
X71500Y359500D02*
X110500D01*
X71500Y397500D02*
X110500D01*
X281000Y360000D02*
Y410000D01*
X226000Y373189D02*
Y396811D01*
X242000Y360000D02*
X281000D01*
X242000Y410000D02*
X281000D01*
X185201Y401012D02*
X189138D01*
X185201Y389988D02*
Y401012D01*
X193862D02*
X197799D01*
Y389988D02*
Y401012D01*
X189925Y389988D02*
X193075D01*
X186051Y379500D02*
X188880D01*
X191380D02*
X194209D01*
Y359500D02*
Y379500D01*
X186051Y359500D02*
X194209D01*
X183500Y381500D02*
X184000D01*
X186051Y359500D02*
Y364500D01*
Y374500D02*
Y379500D01*
Y364500D02*
Y374500D01*
X161760Y401500D02*
Y402500D01*
X141260Y401500D02*
Y402500D01*
X161760D01*
Y359500D02*
Y360500D01*
X141260Y359500D02*
Y360500D01*
Y359500D02*
X161760D01*
X177425Y389988D02*
X180575D01*
X185299D02*
Y401012D01*
X181362D02*
X185299D01*
X172701Y389988D02*
Y401012D01*
X176638D01*
X85500Y413500D02*
Y414500D01*
Y413500D02*
X93500D01*
Y414500D01*
Y419500D02*
Y420500D01*
X85500D02*
X93500D01*
X85500Y419500D02*
Y420500D01*
X74000Y402499D02*
X73000D01*
X73500D01*
Y400000D01*
X73000Y399500D01*
X72500D01*
X72001Y400000D01*
X75000Y399500D02*
X75999D01*
X75499D01*
Y402499D01*
X75000Y402000D01*
X102499Y404668D02*
X98501D01*
Y406667D01*
X99167Y407334D01*
X100500D01*
X101166Y406667D01*
Y404668D01*
Y406001D02*
X102499Y407334D01*
X99167Y408667D02*
X98501Y409333D01*
Y410666D01*
X99167Y411332D01*
X99834D01*
X100500Y410666D01*
Y409999D01*
Y410666D01*
X101166Y411332D01*
X101833D01*
X102499Y410666D01*
Y409333D01*
X101833Y408667D01*
X98501Y413668D02*
X101833D01*
X102499Y414334D01*
Y415667D01*
X101833Y416334D01*
X98501D01*
X99167Y417666D02*
X98501Y418333D01*
Y419666D01*
X99167Y420332D01*
X99834D01*
X100500Y419666D01*
Y418999D01*
Y419666D01*
X101166Y420332D01*
X101833D01*
X102499Y419666D01*
Y418333D01*
X101833Y417666D01*
X168168Y363999D02*
Y360667D01*
X168834Y360001D01*
X170167D01*
X170834Y360667D01*
Y363999D01*
X174832Y360001D02*
X172167D01*
X174832Y362666D01*
Y363333D01*
X174166Y363999D01*
X172833D01*
X172167Y363333D01*
X187334Y385499D02*
Y382167D01*
X188001Y381501D01*
X189333D01*
X190000Y382167D01*
Y385499D01*
X191333Y381501D02*
X192666D01*
X191999D01*
Y385499D01*
X191333Y384833D01*
X169167Y405834D02*
X168501Y405167D01*
Y403834D01*
X169167Y403168D01*
X171833D01*
X172499Y403834D01*
Y405167D01*
X171833Y405834D01*
X169167Y407166D02*
X168501Y407833D01*
Y409166D01*
X169167Y409832D01*
X169834D01*
X170500Y409166D01*
Y408499D01*
Y409166D01*
X171167Y409832D01*
X171833D01*
X172499Y409166D01*
Y407833D01*
X171833Y407166D01*
X149668Y419001D02*
Y422999D01*
X151667D01*
X152333Y422333D01*
Y421000D01*
X151667Y420334D01*
X149668D01*
X151001D02*
X152333Y419001D01*
X155666D02*
Y422999D01*
X153666Y421000D01*
X156332D01*
X205501Y375500D02*
Y378500D01*
X207000D01*
X207500Y378000D01*
Y377000D01*
X207000Y376500D01*
X205501D01*
X206501D02*
X207500Y375500D01*
X210499D02*
X208500D01*
X210499Y377500D01*
Y378000D01*
X209999Y378500D01*
X209000D01*
X208500Y378000D01*
X212001Y381501D02*
Y384500D01*
X213500D01*
X214000Y384000D01*
Y383000D01*
X213500Y382500D01*
X212001D01*
X213000D02*
X214000Y381501D01*
X215000D02*
X215999D01*
X215499D01*
Y384500D01*
X215000Y384000D01*
X178333Y406167D02*
Y408833D01*
X177667Y409499D01*
X176334D01*
X175668Y408833D01*
Y406167D01*
X176334Y405501D01*
X177667D01*
X177001Y406834D02*
X178333Y405501D01*
X177667D02*
X178333Y406167D01*
X179666Y408833D02*
X180333Y409499D01*
X181666D01*
X182332Y408833D01*
Y408166D01*
X181666Y407500D01*
X180999D01*
X181666D01*
X182332Y406834D01*
Y406167D01*
X181666Y405501D01*
X180333D01*
X179666Y406167D01*
X190833D02*
Y408833D01*
X190167Y409499D01*
X188834D01*
X188168Y408833D01*
Y406167D01*
X188834Y405501D01*
X190167D01*
X189501Y406834D02*
X190833Y405501D01*
X190167D02*
X190833Y406167D01*
X194832Y405501D02*
X192166D01*
X194832Y408166D01*
Y408833D01*
X194166Y409499D01*
X192833D01*
X192166Y408833D01*
X204000Y406167D02*
Y408833D01*
X203333Y409499D01*
X202001D01*
X201334Y408833D01*
Y406167D01*
X202001Y405501D01*
X203333D01*
X202667Y406834D02*
X204000Y405501D01*
X203333D02*
X204000Y406167D01*
X205333Y405501D02*
X206666D01*
X205999D01*
Y409499D01*
X205333Y408833D01*
X235334Y409499D02*
X234001D01*
X234667D01*
Y406167D01*
X234001Y405501D01*
X233334D01*
X232668Y406167D01*
X239332Y405501D02*
X236666D01*
X239332Y408166D01*
Y408833D01*
X238666Y409499D01*
X237333D01*
X236666Y408833D01*
X77001Y414834D02*
X80999D01*
Y416834D01*
X80333Y417500D01*
X77667D01*
X77001Y416834D01*
Y414834D01*
X80999Y418833D02*
Y420166D01*
Y419499D01*
X77001D01*
X77667Y418833D01*
X163833Y422333D02*
X163167Y422999D01*
X161834D01*
X161168Y422333D01*
Y419667D01*
X161834Y419001D01*
X163167D01*
X163833Y419667D01*
X167166Y419001D02*
Y422999D01*
X165166Y421000D01*
X167832D01*
X220334Y384333D02*
X219667Y384999D01*
X218334D01*
X217668Y384333D01*
Y381667D01*
X218334Y381001D01*
X219667D01*
X220334Y381667D01*
X224332Y381001D02*
X221667D01*
X224332Y383666D01*
Y384333D01*
X223666Y384999D01*
X222333D01*
X221667Y384333D01*
X214000Y378000D02*
X213500Y378500D01*
X212501D01*
X212001Y378000D01*
Y376000D01*
X212501Y375500D01*
X213500D01*
X214000Y376000D01*
X215000Y375500D02*
X215999D01*
X215499D01*
Y378500D01*
X215000Y378000D01*
D12*
X112205Y402945D02*
X137795D01*
X112205Y421055D02*
X137795D01*
Y402945D02*
Y421055D01*
X112205Y402945D02*
Y421055D01*
D13*
X97000Y403000D02*
Y412000D01*
X77000Y403000D02*
Y412000D01*
X90500Y403000D02*
X97000D01*
X77000D02*
X83500D01*
X90500Y412000D02*
X97000D01*
X77000D02*
X83500D01*
X217000Y369000D02*
Y374000D01*
Y362000D02*
Y367000D01*
X211000Y369000D02*
Y374000D01*
Y362000D02*
Y367000D01*
Y374000D02*
X217000D01*
X211000Y362000D02*
X217000D01*
X205000D02*
Y367000D01*
Y369000D02*
Y374000D01*
X211000Y362000D02*
Y367000D01*
Y369000D02*
Y374000D01*
X205000Y362000D02*
X211000D01*
X205000Y374000D02*
X211000D01*
X205000Y380000D02*
X210000D01*
X198000D02*
X203000D01*
X205000Y386000D02*
X210000D01*
X198000D02*
X203000D01*
X210000Y380000D02*
Y386000D01*
X198000Y380000D02*
Y386000D01*
X146500Y411500D02*
X153000D01*
X160000D02*
X166500D01*
X146500Y402500D02*
X153000D01*
X160000D02*
X166500D01*
X146500D02*
Y411500D01*
X166500Y402500D02*
Y411500D01*
X165500D02*
X170500D01*
X158500D02*
X163500D01*
X165500Y417500D02*
X170500D01*
X158500D02*
X163500D01*
X170500Y411500D02*
Y417500D01*
X158500Y411500D02*
Y417500D01*
X146500D02*
X151500D01*
X153500D02*
X158500D01*
X146500Y411500D02*
X151500D01*
X153500D02*
X158500D01*
X146500D02*
Y417500D01*
X158500Y411500D02*
Y417500D01*
X217000Y359500D02*
X226000D01*
X217000Y379500D02*
X226000D01*
X217000Y359500D02*
Y366000D01*
Y373000D02*
Y379500D01*
X226000Y359500D02*
Y366000D01*
Y373000D02*
Y379500D01*
M02*
