G04*
G04 #@! TF.GenerationSoftware,Altium Limited,Altium Designer,20.1.8 (145)*
G04*
G04 Layer_Color=16711935*
%FSLAX25Y25*%
%MOIN*%
G70*
G04*
G04 #@! TF.SameCoordinates,1964C53A-2E70-4359-B946-7E1BDDE66412*
G04*
G04*
G04 #@! TF.FilePolarity,Negative*
G04*
G01*
G75*
%ADD18C,0.11811*%
%ADD23C,0.20472*%
%ADD24C,0.13811*%
%ADD25C,0.08800*%
%ADD26C,0.03162*%
D18*
X287008Y414961D02*
D03*
X120866Y422441D02*
D03*
X184646Y368110D02*
D03*
D23*
X284252Y440945D02*
D03*
X122047D02*
D03*
D24*
X259842Y390158D02*
D03*
X129921Y379921D02*
D03*
D25*
X242843Y401968D02*
D03*
X242843Y390158D02*
D03*
X231024Y401968D02*
D03*
X231024Y390158D02*
D03*
X231024Y378346D02*
D03*
X242843D02*
D03*
X146921Y374016D02*
D03*
Y385827D02*
D03*
D26*
X254509Y441976D02*
D03*
X219057Y445978D02*
D03*
X210346Y414163D02*
D03*
X264665Y420675D02*
D03*
X264570Y442035D02*
D03*
X239524Y441924D02*
D03*
X163227Y363702D02*
D03*
X191236Y402912D02*
D03*
X234523Y420573D02*
D03*
X229574Y420781D02*
D03*
X191365Y412926D02*
D03*
X249578Y420825D02*
D03*
X259517Y420624D02*
D03*
X154724Y400787D02*
D03*
X196864Y427432D02*
D03*
M02*
