G04*
G04 #@! TF.GenerationSoftware,Altium Limited,Altium Designer,20.1.8 (145)*
G04*
G04 Layer_Physical_Order=1*
G04 Layer_Color=255*
%FSLAX25Y25*%
%MOIN*%
G70*
G04*
G04 #@! TF.SameCoordinates,1964C53A-2E70-4359-B946-7E1BDDE66412*
G04*
G04*
G04 #@! TF.FilePolarity,Positive*
G04*
G01*
G75*
%ADD11C,0.01000*%
%ADD27R,0.03000X0.04000*%
%ADD28R,0.05512X0.02362*%
%ADD29R,0.03000X0.03000*%
%ADD30R,0.05118X0.05906*%
%ADD31C,0.03937*%
%ADD32R,0.07100X0.04700*%
%ADD33R,0.04000X0.03000*%
%ADD34R,0.06102X0.02362*%
%ADD35R,0.02362X0.07874*%
%ADD36C,0.08000*%
%ADD37C,0.02362*%
D11*
X249307Y388476D02*
Y411356D01*
X254606Y416655D01*
Y425197D01*
X216929Y399016D02*
X218504D01*
X230217Y410728D01*
X232894D01*
X244606Y422441D01*
Y425197D01*
X233290Y395669D02*
X237462Y391497D01*
X241503D01*
X214217Y395669D02*
X233290D01*
X212673Y397213D02*
X214217Y395669D01*
X241503Y391497D02*
X242843Y390158D01*
X207480Y370445D02*
Y386614D01*
Y370445D02*
X207480Y370445D01*
X207480Y386614D02*
Y402756D01*
X209736Y422415D02*
X210236D01*
X206736Y419415D02*
X209736Y422415D01*
X206736Y411798D02*
Y419415D01*
Y411798D02*
X207480Y411054D01*
Y402756D02*
Y411054D01*
X235756Y371260D02*
X242843Y378346D01*
X213796Y371260D02*
X235756D01*
X212673Y372383D02*
X213796Y371260D01*
X214673Y402818D02*
Y405815D01*
X212673Y397213D02*
Y400818D01*
X214673Y405815D02*
X215354Y406496D01*
X212673Y400818D02*
X214673Y402818D01*
X215354Y406496D02*
X216929D01*
X214673Y389673D02*
X215354Y390354D01*
X212673Y384676D02*
X214673Y386676D01*
X215354Y390354D02*
X216929D01*
X214673Y386676D02*
Y389673D01*
X212673Y372383D02*
Y384676D01*
X216929Y374185D02*
X226862D01*
X231024Y378346D01*
X228757Y383858D02*
X244690D01*
X249307Y388476D01*
X227773Y382874D02*
X228757Y383858D01*
X216929Y382874D02*
X227773D01*
X197494Y372979D02*
Y399132D01*
X203768Y366705D02*
X216929D01*
X197494Y372979D02*
X203768Y366705D01*
X229606Y425197D02*
X230240Y424563D01*
X239606Y425197D02*
Y427953D01*
X230059Y437500D02*
X239606Y427953D01*
X201870Y437500D02*
X230059D01*
X202937Y431315D02*
Y436433D01*
X193610Y437500D02*
X201870D01*
X202937Y436433D01*
X234606Y425197D02*
Y427953D01*
X228701Y433858D02*
X234606Y427953D01*
X208106Y433858D02*
X228701D01*
X200000Y420757D02*
X206937Y427694D01*
Y432689D02*
X208106Y433858D01*
X200000Y414626D02*
Y420757D01*
X206937Y427694D02*
Y432689D01*
X210236Y430263D02*
X210493Y430006D01*
X210236Y422415D02*
Y430263D01*
X210184Y430315D02*
X210236Y430263D01*
X229606Y425197D02*
Y427953D01*
X228925Y428634D02*
X229606Y427953D01*
X226319Y428634D02*
X228925D01*
X224947Y430006D02*
X226319Y428634D01*
X219291Y430006D02*
X224947D01*
X210493D02*
X219291D01*
X194882Y417874D02*
X196752D01*
X200000Y414626D01*
Y401639D02*
Y414626D01*
X197494Y399132D02*
X200000Y401639D01*
X173622Y399132D02*
X197494D01*
X175492Y412874D02*
X180492Y407874D01*
X168098Y412874D02*
X173622D01*
X180492Y407874D02*
X194882D01*
X173622Y412874D02*
X175492D01*
X161811Y387821D02*
X162311D01*
X173622Y399132D01*
Y402874D01*
X202937Y431315D02*
X203937Y430315D01*
X162186Y379921D02*
X163386D01*
X150787Y391320D02*
X162186Y379921D01*
X157922Y417874D02*
X173622D01*
X150787Y410739D02*
X157922Y417874D01*
X150787Y391320D02*
Y410739D01*
X148261Y387166D02*
Y389748D01*
X146921Y385827D02*
X148261Y387166D01*
X148425Y389913D02*
Y418142D01*
X148261Y389748D02*
X148425Y389913D01*
Y418142D02*
X157390Y427106D01*
X161811Y394069D02*
Y401339D01*
X163279Y402808D01*
X163779D01*
X141421Y379516D02*
X146921Y374016D01*
X141421Y379516D02*
Y391087D01*
X142520Y392185D01*
Y403713D01*
X169071Y407874D02*
X173622D01*
X157390Y427106D02*
Y427500D01*
X165279Y404083D02*
X169071Y407874D01*
X165279Y403808D02*
Y404083D01*
X164279Y402808D02*
X165279Y403808D01*
X163779Y402808D02*
X164279D01*
Y409055D02*
X168098Y412874D01*
X163779Y409055D02*
X164279D01*
X154724D02*
X163779D01*
X150394Y436221D02*
X155905D01*
X157185Y437500D02*
X157390D01*
X155905Y436221D02*
X157185Y437500D01*
X141320Y416929D02*
X142520D01*
X139470Y418779D02*
X141320Y416929D01*
X139470Y418779D02*
Y426962D01*
X139394Y427038D02*
X139470Y426962D01*
X139394Y427038D02*
Y436221D01*
X180858Y391327D02*
Y389327D01*
Y390327D01*
X186856D01*
X185857Y391327D01*
D27*
X210184Y430315D02*
D03*
X203937D02*
D03*
D28*
X207480Y386614D02*
D03*
X216929Y390354D02*
D03*
Y382874D02*
D03*
X216929Y366705D02*
D03*
Y374185D02*
D03*
X207480Y370445D02*
D03*
X216929Y399016D02*
D03*
Y406496D02*
D03*
X207480Y402756D02*
D03*
D29*
X139394Y436221D02*
D03*
X150394D02*
D03*
D30*
X193610Y427500D02*
D03*
Y437500D02*
D03*
X157390Y427500D02*
D03*
Y437500D02*
D03*
D31*
X287008Y414961D02*
D03*
X120866Y422441D02*
D03*
X184646Y368110D02*
D03*
D32*
X219291Y430006D02*
D03*
Y443222D02*
D03*
X142520Y416929D02*
D03*
Y403713D02*
D03*
X163386Y379921D02*
D03*
Y366705D02*
D03*
D33*
X210236Y416168D02*
D03*
Y422415D02*
D03*
X161811Y387821D02*
D03*
Y394069D02*
D03*
X163779Y402808D02*
D03*
Y409055D02*
D03*
X154724D02*
D03*
Y402808D02*
D03*
D34*
X194882Y402874D02*
D03*
Y407874D02*
D03*
Y412874D02*
D03*
Y417874D02*
D03*
X173622Y402874D02*
D03*
Y407874D02*
D03*
Y412874D02*
D03*
X173622Y417874D02*
D03*
D35*
X264606Y425197D02*
D03*
X259606D02*
D03*
X254606D02*
D03*
X249606D02*
D03*
X244606D02*
D03*
X239606D02*
D03*
X234606D02*
D03*
X229606D02*
D03*
X264606Y446457D02*
D03*
X259606Y446457D02*
D03*
X254606D02*
D03*
X249606Y446457D02*
D03*
X244606D02*
D03*
X239606D02*
D03*
X234606Y446457D02*
D03*
X229606D02*
D03*
D36*
X242843Y401968D02*
D03*
X242843Y390158D02*
D03*
X231024Y401968D02*
D03*
X231024Y390158D02*
D03*
X231024Y378346D02*
D03*
X242843D02*
D03*
X146921Y374016D02*
D03*
Y385827D02*
D03*
D37*
X254509Y441976D02*
D03*
X219057Y445978D02*
D03*
X210346Y414163D02*
D03*
X264665Y420675D02*
D03*
X264570Y442035D02*
D03*
X239524Y441924D02*
D03*
X163227Y363702D02*
D03*
X191236Y402912D02*
D03*
X234523Y420573D02*
D03*
X229574Y420781D02*
D03*
X191365Y412926D02*
D03*
X249578Y420825D02*
D03*
X259517Y420624D02*
D03*
X154724Y400787D02*
D03*
X196864Y427432D02*
D03*
M02*
