G04*
G04 #@! TF.GenerationSoftware,Altium Limited,Altium Designer,20.1.14 (287)*
G04*
G04 Layer_Color=32896*
%FSLAX25Y25*%
%MOIN*%
G70*
G04*
G04 #@! TF.SameCoordinates,2FE93C5B-B66B-451B-A581-654374074FDE*
G04*
G04*
G04 #@! TF.FilePolarity,Positive*
G04*
G01*
G75*
%ADD11C,0.01000*%
%ADD40C,0.01200*%
%ADD41C,0.01500*%
G36*
X165227Y387270D02*
X165315D01*
Y387182D01*
Y387094D01*
Y387006D01*
X165403D01*
Y386918D01*
Y386830D01*
Y386741D01*
X165491D01*
Y386653D01*
Y386565D01*
X165579D01*
Y386477D01*
Y386389D01*
Y386301D01*
Y386213D01*
X165667D01*
Y386125D01*
X165579D01*
Y386037D01*
Y385949D01*
X165755D01*
Y385861D01*
Y385773D01*
Y385685D01*
Y385597D01*
Y385509D01*
X165843D01*
Y385421D01*
Y385333D01*
Y385245D01*
X165931D01*
Y385157D01*
Y385069D01*
Y384981D01*
X166019D01*
Y384893D01*
Y384805D01*
Y384716D01*
X166107D01*
Y384628D01*
Y384540D01*
X166195D01*
Y384452D01*
Y384364D01*
Y384276D01*
X166284D01*
Y384188D01*
Y384100D01*
Y384012D01*
X166372D01*
Y383924D01*
Y383836D01*
X166460D01*
Y383748D01*
Y383660D01*
Y383572D01*
X166548D01*
Y383484D01*
Y383396D01*
Y383308D01*
Y383220D01*
X166636D01*
Y383132D01*
Y383044D01*
Y382956D01*
Y382868D01*
Y382779D01*
X166812D01*
Y382691D01*
X166724D01*
Y382603D01*
Y382515D01*
X166812D01*
Y382427D01*
Y382339D01*
Y382251D01*
X166900D01*
Y382163D01*
Y382075D01*
X166988D01*
Y381987D01*
X161617D01*
Y382075D01*
Y382163D01*
Y382251D01*
Y382339D01*
Y382427D01*
X161529D01*
Y382515D01*
Y382603D01*
X161441D01*
Y382691D01*
Y382779D01*
Y382868D01*
X161353D01*
Y382956D01*
Y383044D01*
Y383132D01*
Y383220D01*
X161265D01*
Y383308D01*
Y383396D01*
X161177D01*
Y383484D01*
Y383572D01*
Y383660D01*
X161089D01*
Y383748D01*
Y383836D01*
Y383924D01*
X161001D01*
Y384012D01*
Y384100D01*
Y384188D01*
X160913D01*
Y384276D01*
Y384364D01*
X160825D01*
Y384452D01*
Y384540D01*
Y384628D01*
X160737D01*
Y384716D01*
Y384805D01*
Y384893D01*
Y384981D01*
Y385069D01*
X160649D01*
Y385157D01*
Y385245D01*
Y385333D01*
X160561D01*
Y385421D01*
Y385509D01*
Y385597D01*
X160473D01*
Y385685D01*
Y385773D01*
Y385861D01*
X160385D01*
Y385949D01*
Y386037D01*
X160296D01*
Y386125D01*
Y386213D01*
Y386301D01*
Y386389D01*
X160208D01*
Y386477D01*
Y386565D01*
Y386653D01*
X160120D01*
Y386741D01*
Y386830D01*
Y386918D01*
X160032D01*
Y387006D01*
Y387094D01*
X159944D01*
Y387182D01*
Y387270D01*
Y387358D01*
X165227D01*
Y387270D01*
D02*
G37*
G36*
X154573D02*
Y387182D01*
X154662D01*
Y387094D01*
Y387006D01*
Y386918D01*
X154750D01*
Y386830D01*
Y386741D01*
Y386653D01*
X154838D01*
Y386565D01*
Y386477D01*
X154926D01*
Y386389D01*
Y386301D01*
Y386213D01*
X155014D01*
Y386125D01*
Y386037D01*
Y385949D01*
Y385861D01*
X155102D01*
Y385773D01*
Y385685D01*
Y385597D01*
X155190D01*
Y385509D01*
Y385421D01*
X155278D01*
Y385333D01*
Y385245D01*
Y385157D01*
Y385069D01*
Y384981D01*
X155454D01*
Y384893D01*
Y384805D01*
X155366D01*
Y384716D01*
X155454D01*
Y384628D01*
Y384540D01*
Y384452D01*
X155542D01*
Y384364D01*
Y384276D01*
Y384188D01*
X155630D01*
Y384100D01*
Y384012D01*
Y383924D01*
X155718D01*
Y383836D01*
Y383748D01*
X155806D01*
Y383660D01*
Y383572D01*
Y383484D01*
X155894D01*
Y383396D01*
Y383308D01*
Y383220D01*
X155982D01*
Y383132D01*
Y383044D01*
X156070D01*
Y382956D01*
Y382868D01*
Y382779D01*
Y382691D01*
Y382603D01*
Y382515D01*
Y382427D01*
X156246D01*
Y382339D01*
X156158D01*
Y382251D01*
X156246D01*
Y382163D01*
Y382075D01*
Y381987D01*
X161529D01*
Y381899D01*
Y381811D01*
X161617D01*
Y381723D01*
Y381635D01*
Y381547D01*
X161705D01*
Y381459D01*
Y381371D01*
X161793D01*
Y381283D01*
Y381195D01*
Y381107D01*
X161881D01*
Y381018D01*
Y380930D01*
Y380842D01*
X161969D01*
Y380754D01*
Y380666D01*
Y380578D01*
X162057D01*
Y380490D01*
Y380402D01*
Y380314D01*
X162145D01*
Y380226D01*
Y380138D01*
Y380050D01*
X162233D01*
Y379962D01*
Y379874D01*
Y379786D01*
Y379698D01*
Y379610D01*
X162321D01*
Y379522D01*
X162409D01*
Y379434D01*
X162321D01*
Y379346D01*
X162409D01*
Y379258D01*
Y379170D01*
Y379082D01*
X162498D01*
Y378993D01*
Y378905D01*
Y378817D01*
X162586D01*
Y378729D01*
Y378641D01*
X162674D01*
Y378553D01*
Y378465D01*
Y378377D01*
X162762D01*
Y378289D01*
Y378201D01*
Y378113D01*
X162850D01*
Y378025D01*
Y377937D01*
Y377849D01*
X162938D01*
Y377761D01*
Y377673D01*
X163026D01*
Y377585D01*
Y377497D01*
Y377409D01*
Y377321D01*
Y377233D01*
Y377145D01*
X163202D01*
Y377056D01*
X163114D01*
Y376968D01*
Y376880D01*
X163202D01*
Y376792D01*
Y376704D01*
X157919D01*
Y376792D01*
Y376880D01*
Y376968D01*
Y377056D01*
X157831D01*
Y377145D01*
Y377233D01*
X157743D01*
Y377321D01*
Y377409D01*
Y377497D01*
X157655D01*
Y377585D01*
Y377673D01*
Y377761D01*
X157567D01*
Y377849D01*
Y377937D01*
Y378025D01*
X157479D01*
Y378113D01*
Y378201D01*
Y378289D01*
X157391D01*
Y378377D01*
Y378465D01*
X157303D01*
Y378553D01*
X157391D01*
Y378641D01*
Y378729D01*
X157215D01*
Y378817D01*
Y378905D01*
Y378993D01*
Y379082D01*
Y379170D01*
X157127D01*
Y379258D01*
Y379346D01*
Y379434D01*
X157039D01*
Y379522D01*
Y379610D01*
Y379698D01*
X156951D01*
Y379786D01*
Y379874D01*
Y379962D01*
X156863D01*
Y380050D01*
Y380138D01*
Y380226D01*
X156775D01*
Y380314D01*
Y380402D01*
Y380490D01*
X156686D01*
Y380578D01*
Y380666D01*
Y380754D01*
X156598D01*
Y380842D01*
Y380930D01*
X156510D01*
Y381018D01*
Y381107D01*
Y381195D01*
X156422D01*
Y381283D01*
Y381371D01*
Y381459D01*
X156334D01*
Y381547D01*
Y381635D01*
Y381723D01*
Y381811D01*
Y381899D01*
X156158D01*
Y381987D01*
X151051D01*
Y381899D01*
Y381811D01*
Y381723D01*
Y381635D01*
Y381547D01*
X151140D01*
Y381459D01*
Y381371D01*
X151228D01*
Y381283D01*
Y381195D01*
Y381107D01*
X151316D01*
Y381018D01*
Y380930D01*
Y380842D01*
X151404D01*
Y380754D01*
Y380666D01*
Y380578D01*
X151492D01*
Y380490D01*
Y380402D01*
Y380314D01*
X151580D01*
Y380226D01*
Y380138D01*
X151668D01*
Y380050D01*
Y379962D01*
Y379874D01*
X151756D01*
Y379786D01*
X151668D01*
Y379698D01*
X151844D01*
Y379610D01*
Y379522D01*
Y379434D01*
Y379346D01*
Y379258D01*
Y379170D01*
Y379082D01*
X151932D01*
Y378993D01*
Y378905D01*
Y378817D01*
X152020D01*
Y378729D01*
Y378641D01*
X152108D01*
Y378553D01*
Y378465D01*
Y378377D01*
X152196D01*
Y378289D01*
Y378201D01*
Y378113D01*
X152284D01*
Y378025D01*
Y377937D01*
Y377849D01*
X152372D01*
Y377761D01*
Y377673D01*
X152460D01*
Y377585D01*
Y377497D01*
Y377409D01*
X152548D01*
Y377321D01*
Y377233D01*
Y377145D01*
X152636D01*
Y377056D01*
Y376968D01*
X152724D01*
Y376880D01*
Y376792D01*
Y376704D01*
X157919D01*
Y376616D01*
Y376528D01*
Y376440D01*
X158007D01*
Y376352D01*
Y376264D01*
Y376176D01*
X158095D01*
Y376088D01*
Y376000D01*
X158183D01*
Y375912D01*
Y375824D01*
Y375736D01*
X158271D01*
Y375648D01*
Y375560D01*
Y375472D01*
X158359D01*
Y375383D01*
Y375295D01*
X158448D01*
Y375207D01*
Y375119D01*
Y375031D01*
X158536D01*
Y374943D01*
Y374855D01*
Y374767D01*
X158624D01*
Y374679D01*
Y374591D01*
Y374503D01*
X158712D01*
Y374415D01*
X158624D01*
Y374327D01*
X158712D01*
Y374239D01*
X158800D01*
Y374151D01*
Y374063D01*
Y373975D01*
Y373887D01*
Y373799D01*
X158888D01*
Y373711D01*
Y373623D01*
Y373535D01*
Y373446D01*
X158976D01*
Y373358D01*
Y373270D01*
X159064D01*
Y373182D01*
Y373094D01*
Y373006D01*
X159152D01*
Y372918D01*
Y372830D01*
Y372742D01*
X159240D01*
Y372654D01*
Y372566D01*
X159328D01*
Y372478D01*
Y372390D01*
Y372302D01*
X159416D01*
Y372214D01*
Y372126D01*
Y372038D01*
X159504D01*
Y371950D01*
Y371862D01*
Y371774D01*
X159592D01*
Y371686D01*
Y371598D01*
X159680D01*
Y371510D01*
Y371421D01*
Y371333D01*
X154397D01*
Y371421D01*
X154309D01*
Y371510D01*
Y371598D01*
Y371686D01*
X154221D01*
Y371774D01*
Y371862D01*
Y371950D01*
X154133D01*
Y372038D01*
Y372126D01*
X154045D01*
Y372214D01*
Y372302D01*
Y372390D01*
X153957D01*
Y372478D01*
Y372566D01*
Y372654D01*
X153869D01*
Y372742D01*
Y372830D01*
X153781D01*
Y372918D01*
Y373006D01*
Y373094D01*
Y373182D01*
Y373270D01*
Y373358D01*
X153605D01*
Y373446D01*
X153693D01*
Y373535D01*
Y373623D01*
X153605D01*
Y373711D01*
Y373799D01*
Y373887D01*
X153517D01*
Y373975D01*
Y374063D01*
Y374151D01*
X153429D01*
Y374239D01*
Y374327D01*
Y374415D01*
X153341D01*
Y374503D01*
Y374591D01*
Y374679D01*
X153253D01*
Y374767D01*
Y374855D01*
X153165D01*
Y374943D01*
Y375031D01*
Y375119D01*
X153077D01*
Y375207D01*
Y375295D01*
Y375383D01*
X152989D01*
Y375472D01*
Y375560D01*
Y375648D01*
Y375736D01*
Y375824D01*
X152813D01*
Y375912D01*
X152901D01*
Y376000D01*
Y376088D01*
X152813D01*
Y376176D01*
Y376264D01*
Y376352D01*
X152724D01*
Y376440D01*
Y376528D01*
X152636D01*
Y376616D01*
Y376704D01*
X147442D01*
Y376616D01*
Y376528D01*
Y376440D01*
Y376352D01*
Y376264D01*
X147618D01*
Y376176D01*
X147530D01*
Y376088D01*
Y376000D01*
X147618D01*
Y375912D01*
Y375824D01*
Y375736D01*
X147706D01*
Y375648D01*
Y375560D01*
Y375472D01*
X147794D01*
Y375383D01*
Y375295D01*
X147882D01*
Y375207D01*
Y375119D01*
Y375031D01*
X147970D01*
Y374943D01*
Y374855D01*
Y374767D01*
X148058D01*
Y374679D01*
Y374591D01*
Y374503D01*
X148146D01*
Y374415D01*
Y374327D01*
Y374239D01*
X148234D01*
Y374151D01*
Y374063D01*
X148322D01*
Y373975D01*
Y373887D01*
Y373799D01*
X148410D01*
Y373711D01*
X148322D01*
Y373623D01*
Y373535D01*
X148498D01*
Y373446D01*
X148410D01*
Y373358D01*
X148498D01*
Y373270D01*
Y373182D01*
Y373094D01*
X148586D01*
Y373006D01*
Y372918D01*
Y372830D01*
Y372742D01*
X148674D01*
Y372654D01*
Y372566D01*
X148762D01*
Y372478D01*
Y372390D01*
Y372302D01*
X148850D01*
Y372214D01*
Y372126D01*
Y372038D01*
X148938D01*
Y371950D01*
Y371862D01*
Y371774D01*
X149027D01*
Y371686D01*
Y371598D01*
X149115D01*
Y371510D01*
Y371421D01*
Y371333D01*
X143832D01*
Y371421D01*
X143744D01*
Y371510D01*
Y371598D01*
Y371686D01*
X143656D01*
Y371774D01*
Y371862D01*
Y371950D01*
X143568D01*
Y372038D01*
Y372126D01*
X143480D01*
Y372214D01*
Y372302D01*
Y372390D01*
X143392D01*
Y372478D01*
X143480D01*
Y372566D01*
Y372654D01*
X143304D01*
Y372742D01*
Y372830D01*
Y372918D01*
Y373006D01*
Y373094D01*
Y373182D01*
X143215D01*
Y373270D01*
Y373358D01*
Y373446D01*
X143127D01*
Y373535D01*
Y373623D01*
X143039D01*
Y373711D01*
Y373799D01*
Y373887D01*
X142951D01*
Y373975D01*
Y374063D01*
Y374151D01*
X142863D01*
Y374239D01*
Y374327D01*
Y374415D01*
X142775D01*
Y374503D01*
Y374591D01*
Y374679D01*
X142687D01*
Y374767D01*
Y374855D01*
X142599D01*
Y374943D01*
Y375031D01*
Y375119D01*
X142511D01*
Y375207D01*
X142599D01*
Y375295D01*
X142511D01*
Y375383D01*
X142423D01*
Y375472D01*
Y375560D01*
Y375648D01*
Y375736D01*
Y375824D01*
X142247D01*
Y375912D01*
X142335D01*
Y376000D01*
Y376088D01*
Y376176D01*
X142247D01*
Y376264D01*
Y376352D01*
X142159D01*
Y376440D01*
Y376528D01*
Y376616D01*
X142071D01*
Y376704D01*
X147354D01*
Y376792D01*
Y376880D01*
Y376968D01*
Y377056D01*
X147266D01*
Y377145D01*
Y377233D01*
X147178D01*
Y377321D01*
Y377409D01*
Y377497D01*
X147090D01*
Y377585D01*
Y377673D01*
Y377761D01*
X147001D01*
Y377849D01*
Y377937D01*
Y378025D01*
X146913D01*
Y378113D01*
Y378201D01*
Y378289D01*
X146825D01*
Y378377D01*
Y378465D01*
Y378553D01*
Y378641D01*
Y378729D01*
X146649D01*
Y378817D01*
X146737D01*
Y378905D01*
X146649D01*
Y378993D01*
Y379082D01*
Y379170D01*
X146561D01*
Y379258D01*
Y379346D01*
Y379434D01*
Y379522D01*
X146473D01*
Y379610D01*
Y379698D01*
Y379786D01*
X146385D01*
Y379874D01*
Y379962D01*
X146297D01*
Y380050D01*
Y380138D01*
Y380226D01*
X146209D01*
Y380314D01*
Y380402D01*
Y380490D01*
X146121D01*
Y380578D01*
Y380666D01*
Y380754D01*
X146033D01*
Y380842D01*
Y380930D01*
Y381018D01*
Y381107D01*
Y381195D01*
X145857D01*
Y381283D01*
X145945D01*
Y381371D01*
Y381459D01*
X145857D01*
Y381547D01*
Y381635D01*
X145769D01*
Y381723D01*
Y381811D01*
Y381899D01*
X145681D01*
Y381987D01*
X140310D01*
Y382075D01*
Y382163D01*
Y382251D01*
X140222D01*
Y382339D01*
Y382427D01*
Y382515D01*
X140134D01*
Y382603D01*
Y382691D01*
Y382779D01*
X140046D01*
Y382868D01*
Y382956D01*
Y383044D01*
X139958D01*
Y383132D01*
Y383220D01*
Y383308D01*
X139870D01*
Y383396D01*
Y383484D01*
Y383572D01*
Y383660D01*
Y383748D01*
X139694D01*
Y383836D01*
X139782D01*
Y383924D01*
Y384012D01*
X139694D01*
Y384100D01*
Y384188D01*
X139605D01*
Y384276D01*
Y384364D01*
Y384452D01*
X139517D01*
Y384540D01*
Y384628D01*
Y384716D01*
X139429D01*
Y384805D01*
Y384893D01*
Y384981D01*
X139341D01*
Y385069D01*
Y385157D01*
Y385245D01*
X139253D01*
Y385333D01*
Y385421D01*
X139165D01*
Y385509D01*
Y385597D01*
Y385685D01*
Y385773D01*
X139077D01*
Y385861D01*
Y385949D01*
Y386037D01*
Y386125D01*
Y386213D01*
X138901D01*
Y386301D01*
X138989D01*
Y386389D01*
Y386477D01*
X138901D01*
Y386565D01*
Y386653D01*
Y386741D01*
X138813D01*
Y386830D01*
Y386918D01*
X138725D01*
Y387006D01*
Y387094D01*
Y387182D01*
X138637D01*
Y387270D01*
Y387358D01*
X144008D01*
Y387270D01*
Y387182D01*
Y387094D01*
X144096D01*
Y387006D01*
Y386918D01*
Y386830D01*
Y386741D01*
Y386653D01*
X144184D01*
Y386565D01*
Y386477D01*
Y386389D01*
X144272D01*
Y386301D01*
Y386213D01*
Y386125D01*
X144360D01*
Y386037D01*
Y385949D01*
Y385861D01*
X144448D01*
Y385773D01*
Y385685D01*
Y385597D01*
X144536D01*
Y385509D01*
Y385421D01*
Y385333D01*
X144624D01*
Y385245D01*
Y385157D01*
Y385069D01*
X144712D01*
Y384981D01*
Y384893D01*
Y384805D01*
Y384716D01*
Y384628D01*
X144888D01*
Y384540D01*
Y384452D01*
Y384364D01*
Y384276D01*
Y384188D01*
Y384100D01*
X144976D01*
Y384012D01*
Y383924D01*
X145064D01*
Y383836D01*
Y383748D01*
Y383660D01*
X145152D01*
Y383572D01*
Y383484D01*
Y383396D01*
X145240D01*
Y383308D01*
Y383220D01*
Y383132D01*
X145328D01*
Y383044D01*
Y382956D01*
X145417D01*
Y382868D01*
Y382779D01*
Y382691D01*
X145505D01*
Y382603D01*
Y382515D01*
Y382427D01*
Y382339D01*
X145593D01*
Y382251D01*
Y382163D01*
X145681D01*
Y382075D01*
Y381987D01*
X150963D01*
Y382075D01*
Y382163D01*
Y382251D01*
Y382339D01*
X150875D01*
Y382427D01*
Y382515D01*
X150787D01*
Y382603D01*
Y382691D01*
Y382779D01*
Y382868D01*
X150699D01*
Y382956D01*
Y383044D01*
Y383132D01*
X150611D01*
Y383220D01*
Y383308D01*
X150523D01*
Y383396D01*
Y383484D01*
Y383572D01*
X150435D01*
Y383660D01*
Y383748D01*
Y383836D01*
X150347D01*
Y383924D01*
X150435D01*
Y384012D01*
Y384100D01*
X150259D01*
Y384188D01*
Y384276D01*
Y384364D01*
Y384452D01*
Y384540D01*
X150171D01*
Y384628D01*
Y384716D01*
Y384805D01*
X150083D01*
Y384893D01*
Y384981D01*
Y385069D01*
X149995D01*
Y385157D01*
Y385245D01*
X149907D01*
Y385333D01*
Y385421D01*
Y385509D01*
X149819D01*
Y385597D01*
Y385685D01*
Y385773D01*
X149731D01*
Y385861D01*
Y385949D01*
Y386037D01*
X149643D01*
Y386125D01*
Y386213D01*
Y386301D01*
X149555D01*
Y386389D01*
Y386477D01*
Y386565D01*
X149467D01*
Y386653D01*
Y386741D01*
Y386830D01*
X149379D01*
Y386918D01*
Y387006D01*
Y387094D01*
Y387182D01*
Y387270D01*
X149291D01*
Y387358D01*
X154573D01*
Y387270D01*
D02*
G37*
G36*
X191905D02*
Y387182D01*
Y387094D01*
Y387006D01*
Y386918D01*
X191993D01*
Y386830D01*
Y386741D01*
Y386653D01*
X192081D01*
Y386565D01*
Y386477D01*
X192169D01*
Y386389D01*
Y386301D01*
Y386213D01*
Y386125D01*
X192257D01*
Y386037D01*
Y385949D01*
Y385861D01*
X192345D01*
Y385773D01*
Y385685D01*
Y385597D01*
X192433D01*
Y385509D01*
Y385421D01*
X192521D01*
Y385333D01*
Y385245D01*
Y385157D01*
Y385069D01*
Y384981D01*
X192698D01*
Y384893D01*
X192610D01*
Y384805D01*
Y384716D01*
X192698D01*
Y384628D01*
Y384540D01*
Y384452D01*
X192786D01*
Y384364D01*
Y384276D01*
Y384188D01*
X192874D01*
Y384100D01*
Y384012D01*
Y383924D01*
X192962D01*
Y383836D01*
Y383748D01*
X193050D01*
Y383660D01*
Y383572D01*
Y383484D01*
X193138D01*
Y383396D01*
Y383308D01*
Y383220D01*
X193226D01*
Y383132D01*
Y383044D01*
Y382956D01*
X193314D01*
Y382868D01*
Y382779D01*
Y382691D01*
X193402D01*
Y382603D01*
Y382515D01*
Y382427D01*
X193490D01*
Y382339D01*
X193402D01*
Y382251D01*
X193578D01*
Y382163D01*
Y382075D01*
Y381987D01*
Y381899D01*
Y381811D01*
Y381723D01*
X193666D01*
Y381635D01*
Y381547D01*
Y381459D01*
X193754D01*
Y381371D01*
Y381283D01*
X193842D01*
Y381195D01*
Y381107D01*
Y381018D01*
X193930D01*
Y380930D01*
Y380842D01*
Y380754D01*
X194018D01*
Y380666D01*
Y380578D01*
Y380490D01*
X194106D01*
Y380402D01*
Y380314D01*
X194194D01*
Y380226D01*
Y380138D01*
Y380050D01*
X194282D01*
Y379962D01*
Y379874D01*
Y379786D01*
Y379698D01*
X194370D01*
Y379610D01*
Y379522D01*
X194458D01*
Y379434D01*
Y379346D01*
Y379258D01*
Y379170D01*
Y379082D01*
Y378993D01*
X194634D01*
Y378905D01*
X194546D01*
Y378817D01*
X194634D01*
Y378729D01*
Y378641D01*
Y378553D01*
X194723D01*
Y378465D01*
Y378377D01*
Y378289D01*
X194811D01*
Y378201D01*
Y378113D01*
Y378025D01*
X194899D01*
Y377937D01*
Y377849D01*
X194987D01*
Y377761D01*
Y377673D01*
Y377585D01*
X195075D01*
Y377497D01*
Y377409D01*
Y377321D01*
X195163D01*
Y377233D01*
X195075D01*
Y377145D01*
X195163D01*
Y377056D01*
X195251D01*
Y376968D01*
Y376880D01*
Y376792D01*
Y376704D01*
Y376616D01*
Y376528D01*
X195339D01*
Y376440D01*
Y376352D01*
Y376264D01*
X195427D01*
Y376176D01*
Y376088D01*
Y376000D01*
Y375912D01*
X195515D01*
Y375824D01*
Y375736D01*
Y375648D01*
Y375560D01*
Y375472D01*
Y375383D01*
X195603D01*
Y375295D01*
Y375207D01*
Y375119D01*
Y375031D01*
Y374943D01*
Y374855D01*
Y374767D01*
Y374679D01*
Y374591D01*
Y374503D01*
X195515D01*
Y374415D01*
Y374327D01*
Y374239D01*
Y374151D01*
Y374063D01*
X195427D01*
Y373975D01*
Y373887D01*
Y373799D01*
X195339D01*
Y373711D01*
Y373623D01*
X195251D01*
Y373535D01*
Y373446D01*
Y373358D01*
Y373270D01*
X195075D01*
Y373182D01*
X195163D01*
Y373094D01*
X195075D01*
Y373006D01*
Y372918D01*
X194987D01*
Y372830D01*
X194811D01*
Y372742D01*
Y372654D01*
X194723D01*
Y372566D01*
X194634D01*
Y372478D01*
Y372390D01*
X194546D01*
Y372302D01*
X194458D01*
Y372214D01*
X194282D01*
Y372126D01*
X194194D01*
Y372038D01*
X194106D01*
Y371950D01*
X193842D01*
Y371862D01*
X193754D01*
Y371774D01*
X193578D01*
Y371686D01*
X193402D01*
Y371598D01*
X193226D01*
Y371510D01*
X192962D01*
Y371421D01*
X192698D01*
Y371333D01*
X192433D01*
Y371245D01*
X192081D01*
Y371157D01*
X189440D01*
Y371245D01*
X189000D01*
Y371333D01*
X188559D01*
Y371421D01*
X188383D01*
Y371510D01*
X188119D01*
Y371598D01*
X187855D01*
Y371686D01*
X187591D01*
Y371774D01*
X187327D01*
Y371862D01*
X187239D01*
Y371950D01*
X186887D01*
Y372038D01*
X186710D01*
Y372126D01*
X186534D01*
Y372214D01*
X186446D01*
Y372302D01*
X186270D01*
Y372390D01*
X186094D01*
Y372478D01*
X186006D01*
Y372566D01*
X185830D01*
Y372654D01*
X185742D01*
Y372742D01*
X185654D01*
Y372830D01*
X185390D01*
Y372918D01*
X185302D01*
Y373006D01*
X185214D01*
Y373094D01*
X185038D01*
Y373182D01*
Y373270D01*
X184861D01*
Y373358D01*
Y373446D01*
X184685D01*
Y373535D01*
Y373623D01*
X184509D01*
Y373711D01*
X184421D01*
Y373799D01*
Y373887D01*
X184245D01*
Y373975D01*
X184157D01*
Y374063D01*
Y374151D01*
X183981D01*
Y374239D01*
Y374327D01*
X183893D01*
Y374415D01*
Y374503D01*
X183717D01*
Y374591D01*
Y374679D01*
X183629D01*
Y374767D01*
X183541D01*
Y374855D01*
X183453D01*
Y374943D01*
Y375031D01*
X183365D01*
Y375119D01*
Y375207D01*
Y375295D01*
X183277D01*
Y375383D01*
X183188D01*
Y375472D01*
Y375560D01*
X183100D01*
Y375648D01*
Y375736D01*
X183012D01*
Y375824D01*
Y375912D01*
X182924D01*
Y376000D01*
Y376088D01*
X182836D01*
Y376176D01*
X182748D01*
Y376264D01*
Y376352D01*
Y376440D01*
X182660D01*
Y376528D01*
Y376616D01*
Y376704D01*
X182572D01*
Y376792D01*
Y376880D01*
Y376968D01*
X182484D01*
Y377056D01*
Y377145D01*
Y377233D01*
Y377321D01*
Y377409D01*
X182308D01*
Y377497D01*
X182396D01*
Y377585D01*
Y377673D01*
X182308D01*
Y377761D01*
Y377849D01*
Y377937D01*
Y378025D01*
X182220D01*
Y378113D01*
Y378201D01*
X182132D01*
Y378289D01*
Y378377D01*
Y378465D01*
X182044D01*
Y378553D01*
Y378641D01*
Y378729D01*
X181956D01*
Y378817D01*
Y378905D01*
X181868D01*
Y378993D01*
Y379082D01*
Y379170D01*
X181780D01*
Y379258D01*
Y379346D01*
Y379434D01*
X181692D01*
Y379522D01*
Y379610D01*
Y379698D01*
X181604D01*
Y379786D01*
Y379874D01*
Y379962D01*
Y380050D01*
Y380138D01*
X181428D01*
Y380226D01*
X181516D01*
Y380314D01*
Y380402D01*
X181428D01*
Y380490D01*
Y380578D01*
X181340D01*
Y380666D01*
Y380754D01*
Y380842D01*
X181252D01*
Y380930D01*
Y381018D01*
Y381107D01*
Y381195D01*
X181163D01*
Y381283D01*
Y381371D01*
Y381459D01*
X181075D01*
Y381547D01*
Y381635D01*
X180987D01*
Y381723D01*
Y381811D01*
Y381899D01*
X180899D01*
Y381987D01*
Y382075D01*
Y382163D01*
X180811D01*
Y382251D01*
Y382339D01*
Y382427D01*
Y382515D01*
Y382603D01*
X180723D01*
Y382691D01*
Y382779D01*
Y382868D01*
X180635D01*
Y382956D01*
Y383044D01*
Y383132D01*
X180547D01*
Y383220D01*
Y383308D01*
X180459D01*
Y383396D01*
Y383484D01*
Y383572D01*
X180371D01*
Y383660D01*
Y383748D01*
Y383836D01*
X180283D01*
Y383924D01*
Y384012D01*
Y384100D01*
X180195D01*
Y384188D01*
Y384276D01*
Y384364D01*
X180107D01*
Y384452D01*
Y384540D01*
Y384628D01*
X180019D01*
Y384716D01*
Y384805D01*
Y384893D01*
X179931D01*
Y384981D01*
Y385069D01*
Y385157D01*
Y385245D01*
Y385333D01*
X179755D01*
Y385421D01*
Y385509D01*
Y385597D01*
Y385685D01*
Y385773D01*
Y385861D01*
X179667D01*
Y385949D01*
Y386037D01*
X179579D01*
Y386125D01*
Y386213D01*
Y386301D01*
X179491D01*
Y386389D01*
Y386477D01*
Y386565D01*
X179402D01*
Y386653D01*
Y386741D01*
Y386830D01*
X179314D01*
Y386918D01*
Y387006D01*
X179226D01*
Y387094D01*
Y387182D01*
Y387270D01*
X179138D01*
Y387358D01*
X183012D01*
Y387270D01*
X183188D01*
Y387182D01*
X183100D01*
Y387094D01*
Y387006D01*
X183277D01*
Y386918D01*
X183188D01*
Y386830D01*
X183277D01*
Y386741D01*
Y386653D01*
Y386565D01*
X183365D01*
Y386477D01*
Y386389D01*
Y386301D01*
X183453D01*
Y386213D01*
Y386125D01*
Y386037D01*
X183541D01*
Y385949D01*
Y385861D01*
Y385773D01*
X183629D01*
Y385685D01*
Y385597D01*
Y385509D01*
X183717D01*
Y385421D01*
Y385333D01*
Y385245D01*
X183805D01*
Y385157D01*
Y385069D01*
Y384981D01*
X183893D01*
Y384893D01*
Y384805D01*
Y384716D01*
Y384628D01*
Y384540D01*
X184069D01*
Y384452D01*
X183981D01*
Y384364D01*
Y384276D01*
X184069D01*
Y384188D01*
Y384100D01*
Y384012D01*
X184157D01*
Y383924D01*
Y383836D01*
X184245D01*
Y383748D01*
Y383660D01*
Y383572D01*
X184333D01*
Y383484D01*
Y383396D01*
Y383308D01*
X184421D01*
Y383220D01*
Y383132D01*
Y383044D01*
X184509D01*
Y382956D01*
Y382868D01*
X184597D01*
Y382779D01*
Y382691D01*
Y382603D01*
Y382515D01*
X184685D01*
Y382427D01*
Y382339D01*
Y382251D01*
X184773D01*
Y382163D01*
Y382075D01*
X184861D01*
Y381987D01*
X184773D01*
Y381899D01*
Y381811D01*
X184949D01*
Y381723D01*
Y381635D01*
Y381547D01*
Y381459D01*
Y381371D01*
X185038D01*
Y381283D01*
Y381195D01*
Y381107D01*
X185126D01*
Y381018D01*
Y380930D01*
Y380842D01*
X185214D01*
Y380754D01*
Y380666D01*
Y380578D01*
X185302D01*
Y380490D01*
Y380402D01*
Y380314D01*
X185390D01*
Y380226D01*
Y380138D01*
X185478D01*
Y380050D01*
Y379962D01*
Y379874D01*
X185566D01*
Y379786D01*
Y379698D01*
Y379610D01*
Y379522D01*
Y379434D01*
Y379346D01*
X185742D01*
Y379258D01*
X185654D01*
Y379170D01*
Y379082D01*
X185742D01*
Y378993D01*
Y378905D01*
Y378817D01*
X185830D01*
Y378729D01*
Y378641D01*
X185918D01*
Y378553D01*
Y378465D01*
Y378377D01*
X186006D01*
Y378289D01*
Y378201D01*
Y378113D01*
X186094D01*
Y378025D01*
Y377937D01*
Y377849D01*
X186182D01*
Y377761D01*
Y377673D01*
X186270D01*
Y377585D01*
Y377497D01*
Y377409D01*
X186358D01*
Y377321D01*
Y377233D01*
Y377145D01*
X186446D01*
Y377056D01*
Y376968D01*
X186534D01*
Y376880D01*
X186446D01*
Y376792D01*
Y376704D01*
X186622D01*
Y376616D01*
Y376528D01*
Y376440D01*
Y376352D01*
Y376264D01*
X186710D01*
Y376176D01*
Y376088D01*
X186887D01*
Y376000D01*
X186975D01*
Y375912D01*
Y375824D01*
X187063D01*
Y375736D01*
X187151D01*
Y375648D01*
X187239D01*
Y375560D01*
X187415D01*
Y375472D01*
X187503D01*
Y375383D01*
X187591D01*
Y375295D01*
X187855D01*
Y375207D01*
X187943D01*
Y375119D01*
X188207D01*
Y375031D01*
X188471D01*
Y374943D01*
X188647D01*
Y374855D01*
X189088D01*
Y374767D01*
X190056D01*
Y374855D01*
X190408D01*
Y374943D01*
X190673D01*
Y375031D01*
X190849D01*
Y375119D01*
X191025D01*
Y375207D01*
X191113D01*
Y375295D01*
X191201D01*
Y375383D01*
X191289D01*
Y375472D01*
Y375560D01*
X191377D01*
Y375648D01*
Y375736D01*
X191465D01*
Y375824D01*
Y375912D01*
Y376000D01*
Y376088D01*
Y376176D01*
Y376264D01*
Y376352D01*
Y376440D01*
Y376528D01*
Y376616D01*
X191377D01*
Y376704D01*
Y376792D01*
Y376880D01*
X191289D01*
Y376968D01*
Y377056D01*
Y377145D01*
X191201D01*
Y377233D01*
Y377321D01*
X191113D01*
Y377409D01*
Y377497D01*
Y377585D01*
Y377673D01*
Y377761D01*
Y377849D01*
X191025D01*
Y377937D01*
Y378025D01*
Y378113D01*
X190937D01*
Y378201D01*
Y378289D01*
Y378377D01*
X190849D01*
Y378465D01*
Y378553D01*
Y378641D01*
X190761D01*
Y378729D01*
Y378817D01*
Y378905D01*
X190673D01*
Y378993D01*
Y379082D01*
X190584D01*
Y379170D01*
Y379258D01*
Y379346D01*
X190496D01*
Y379434D01*
Y379522D01*
Y379610D01*
X190408D01*
Y379698D01*
X190496D01*
Y379786D01*
X190320D01*
Y379874D01*
Y379962D01*
Y380050D01*
Y380138D01*
Y380226D01*
Y380314D01*
X190232D01*
Y380402D01*
Y380490D01*
Y380578D01*
X190056D01*
Y380666D01*
X190144D01*
Y380754D01*
X190056D01*
Y380842D01*
Y380930D01*
Y381018D01*
X189968D01*
Y381107D01*
Y381195D01*
Y381283D01*
X189880D01*
Y381371D01*
Y381459D01*
Y381547D01*
Y381635D01*
X189792D01*
Y381723D01*
Y381811D01*
X189704D01*
Y381899D01*
Y381987D01*
Y382075D01*
X189616D01*
Y382163D01*
Y382251D01*
Y382339D01*
X189528D01*
Y382427D01*
Y382515D01*
X189440D01*
Y382603D01*
Y382691D01*
Y382779D01*
Y382868D01*
Y382956D01*
Y383044D01*
X189264D01*
Y383132D01*
X189352D01*
Y383220D01*
Y383308D01*
X189264D01*
Y383396D01*
Y383484D01*
Y383572D01*
X189176D01*
Y383660D01*
Y383748D01*
X189088D01*
Y383836D01*
Y383924D01*
Y384012D01*
X189000D01*
Y384100D01*
Y384188D01*
X188911D01*
Y384276D01*
Y384364D01*
Y384452D01*
X188823D01*
Y384540D01*
Y384628D01*
Y384716D01*
Y384805D01*
X188735D01*
Y384893D01*
Y384981D01*
Y385069D01*
X188647D01*
Y385157D01*
Y385245D01*
X188559D01*
Y385333D01*
Y385421D01*
Y385509D01*
Y385597D01*
Y385685D01*
Y385773D01*
X188383D01*
Y385861D01*
X188471D01*
Y385949D01*
X188383D01*
Y386037D01*
Y386125D01*
Y386213D01*
X188295D01*
Y386301D01*
Y386389D01*
Y386477D01*
X188207D01*
Y386565D01*
Y386653D01*
Y386741D01*
X188119D01*
Y386830D01*
Y386918D01*
X188031D01*
Y387006D01*
Y387094D01*
Y387182D01*
X187943D01*
Y387270D01*
Y387358D01*
X191905D01*
Y387270D01*
D02*
G37*
G36*
X178522D02*
Y387182D01*
X178610D01*
Y387094D01*
Y387006D01*
Y386918D01*
Y386830D01*
Y386741D01*
Y386653D01*
X178786D01*
Y386565D01*
X178698D01*
Y386477D01*
Y386389D01*
X178786D01*
Y386301D01*
Y386213D01*
Y386125D01*
X178874D01*
Y386037D01*
Y385949D01*
Y385861D01*
X178962D01*
Y385773D01*
Y385685D01*
X179050D01*
Y385597D01*
Y385509D01*
Y385421D01*
X179138D01*
Y385333D01*
Y385245D01*
Y385157D01*
X179226D01*
Y385069D01*
Y384981D01*
X179314D01*
Y384893D01*
Y384805D01*
Y384716D01*
X179402D01*
Y384628D01*
Y384540D01*
Y384452D01*
X179491D01*
Y384364D01*
Y384276D01*
Y384188D01*
X179579D01*
Y384100D01*
X179491D01*
Y384012D01*
Y383924D01*
X179667D01*
Y383836D01*
Y383748D01*
Y383660D01*
X175793D01*
Y383572D01*
Y383484D01*
Y383396D01*
X175881D01*
Y383308D01*
Y383220D01*
Y383132D01*
X175969D01*
Y383044D01*
Y382956D01*
X176057D01*
Y382868D01*
Y382779D01*
Y382691D01*
X176145D01*
Y382603D01*
Y382515D01*
Y382427D01*
Y382339D01*
Y382251D01*
X176321D01*
Y382163D01*
X176233D01*
Y382075D01*
Y381987D01*
X176321D01*
Y381899D01*
Y381811D01*
Y381723D01*
X176409D01*
Y381635D01*
Y381547D01*
Y381459D01*
Y381371D01*
X176497D01*
Y381283D01*
Y381195D01*
X176585D01*
Y381107D01*
Y381018D01*
Y380930D01*
X176673D01*
Y380842D01*
Y380754D01*
Y380666D01*
X176761D01*
Y380578D01*
Y380490D01*
X176849D01*
Y380402D01*
Y380314D01*
Y380226D01*
X176937D01*
Y380138D01*
Y380050D01*
Y379962D01*
Y379874D01*
Y379786D01*
Y379698D01*
X177113D01*
Y379610D01*
X177025D01*
Y379522D01*
X177113D01*
Y379434D01*
Y379346D01*
Y379258D01*
X177201D01*
Y379170D01*
Y379082D01*
Y378993D01*
X177289D01*
Y378905D01*
Y378817D01*
Y378729D01*
X177377D01*
Y378641D01*
Y378553D01*
X177465D01*
Y378465D01*
Y378377D01*
Y378289D01*
X177553D01*
Y378201D01*
Y378113D01*
Y378025D01*
Y377937D01*
X177642D01*
Y377849D01*
Y377761D01*
X177730D01*
Y377673D01*
Y377585D01*
Y377497D01*
X177818D01*
Y377409D01*
Y377321D01*
Y377233D01*
Y377145D01*
Y377056D01*
Y376968D01*
X177994D01*
Y376880D01*
Y376792D01*
Y376704D01*
Y376616D01*
Y376528D01*
X178082D01*
Y376440D01*
Y376352D01*
Y376264D01*
X178170D01*
Y376176D01*
Y376088D01*
X178258D01*
Y376000D01*
Y375912D01*
Y375824D01*
X178346D01*
Y375736D01*
Y375648D01*
Y375560D01*
X178434D01*
Y375472D01*
Y375383D01*
Y375295D01*
X178522D01*
Y375207D01*
Y375119D01*
X178610D01*
Y375031D01*
Y374943D01*
Y374855D01*
Y374767D01*
X178698D01*
Y374679D01*
X178610D01*
Y374591D01*
Y374503D01*
X178786D01*
Y374415D01*
X178698D01*
Y374327D01*
X178786D01*
Y374239D01*
Y374151D01*
Y374063D01*
X178874D01*
Y373975D01*
Y373887D01*
Y373799D01*
X178962D01*
Y373711D01*
Y373623D01*
Y373535D01*
X179050D01*
Y373446D01*
Y373358D01*
X179138D01*
Y373270D01*
Y373182D01*
Y373094D01*
X179226D01*
Y373006D01*
Y372918D01*
Y372830D01*
X179314D01*
Y372742D01*
Y372654D01*
Y372566D01*
X179402D01*
Y372478D01*
Y372390D01*
X179491D01*
Y372302D01*
Y372214D01*
Y372126D01*
X179579D01*
Y372038D01*
X179491D01*
Y371950D01*
Y371862D01*
X179667D01*
Y371774D01*
Y371686D01*
Y371598D01*
Y371510D01*
Y371421D01*
X179755D01*
Y371333D01*
X175705D01*
Y371421D01*
Y371510D01*
X175617D01*
Y371598D01*
Y371686D01*
Y371774D01*
X175529D01*
Y371862D01*
Y371950D01*
Y372038D01*
Y372126D01*
Y372214D01*
X175352D01*
Y372302D01*
X175440D01*
Y372390D01*
Y372478D01*
X175352D01*
Y372566D01*
Y372654D01*
Y372742D01*
X175264D01*
Y372830D01*
Y372918D01*
X175176D01*
Y373006D01*
Y373094D01*
Y373182D01*
X175088D01*
Y373270D01*
Y373358D01*
Y373446D01*
X175000D01*
Y373535D01*
Y373623D01*
Y373711D01*
X174912D01*
Y373799D01*
Y373887D01*
Y373975D01*
X174824D01*
Y374063D01*
Y374151D01*
Y374239D01*
X174736D01*
Y374327D01*
Y374415D01*
Y374503D01*
X174648D01*
Y374591D01*
Y374679D01*
Y374767D01*
Y374855D01*
Y374943D01*
X174472D01*
Y375031D01*
X174560D01*
Y375119D01*
Y375207D01*
X174472D01*
Y375295D01*
Y375383D01*
Y375472D01*
X174384D01*
Y375560D01*
Y375648D01*
X174296D01*
Y375736D01*
Y375824D01*
Y375912D01*
X174208D01*
Y376000D01*
Y376088D01*
Y376176D01*
X174120D01*
Y376264D01*
Y376352D01*
X174032D01*
Y376440D01*
Y376528D01*
Y376616D01*
Y376704D01*
X173944D01*
Y376792D01*
Y376880D01*
Y376968D01*
X173856D01*
Y377056D01*
Y377145D01*
Y377233D01*
Y377321D01*
Y377409D01*
X173679D01*
Y377497D01*
X173767D01*
Y377585D01*
Y377673D01*
X173679D01*
Y377761D01*
Y377849D01*
Y377937D01*
X173591D01*
Y378025D01*
Y378113D01*
X173503D01*
Y378201D01*
Y378289D01*
Y378377D01*
X173415D01*
Y378465D01*
Y378553D01*
Y378641D01*
X173327D01*
Y378729D01*
Y378817D01*
Y378905D01*
X173239D01*
Y378993D01*
Y379082D01*
X173151D01*
Y379170D01*
Y379258D01*
Y379346D01*
X173063D01*
Y379434D01*
Y379522D01*
Y379610D01*
X172975D01*
Y379698D01*
Y379786D01*
Y379874D01*
Y379962D01*
Y380050D01*
Y380138D01*
X172799D01*
Y380226D01*
Y380314D01*
Y380402D01*
Y380490D01*
Y380578D01*
X172711D01*
Y380666D01*
Y380754D01*
Y380842D01*
X172623D01*
Y380930D01*
Y381018D01*
Y381107D01*
X172535D01*
Y381195D01*
Y381283D01*
Y381371D01*
X172447D01*
Y381459D01*
Y381547D01*
Y381635D01*
X172359D01*
Y381723D01*
Y381811D01*
X172271D01*
Y381899D01*
Y381987D01*
Y382075D01*
X172183D01*
Y382163D01*
Y382251D01*
Y382339D01*
Y382427D01*
Y382515D01*
X172007D01*
Y382603D01*
X172095D01*
Y382691D01*
Y382779D01*
X171919D01*
Y382868D01*
Y382956D01*
Y383044D01*
Y383132D01*
Y383220D01*
Y383308D01*
X171830D01*
Y383396D01*
Y383484D01*
Y383572D01*
X171742D01*
Y383660D01*
X167780D01*
Y383748D01*
Y383836D01*
X167692D01*
Y383924D01*
Y384012D01*
Y384100D01*
Y384188D01*
Y384276D01*
X167604D01*
Y384364D01*
Y384452D01*
Y384540D01*
Y384628D01*
X167516D01*
Y384716D01*
Y384805D01*
Y384893D01*
X167428D01*
Y384981D01*
Y385069D01*
X167340D01*
Y385157D01*
Y385245D01*
Y385333D01*
X167252D01*
Y385421D01*
Y385509D01*
Y385597D01*
X167164D01*
Y385685D01*
Y385773D01*
Y385861D01*
X167076D01*
Y385949D01*
Y386037D01*
X166988D01*
Y386125D01*
Y386213D01*
Y386301D01*
X166900D01*
Y386389D01*
Y386477D01*
Y386565D01*
Y386653D01*
Y386741D01*
Y386830D01*
X166812D01*
Y386918D01*
Y387006D01*
X166724D01*
Y387094D01*
Y387182D01*
Y387270D01*
X166636D01*
Y387358D01*
X178522D01*
Y387270D01*
D02*
G37*
G36*
X168573Y376616D02*
Y376528D01*
X168661D01*
Y376440D01*
Y376352D01*
Y376264D01*
X168749D01*
Y376176D01*
Y376088D01*
X168837D01*
Y376000D01*
Y375912D01*
Y375824D01*
X168925D01*
Y375736D01*
Y375648D01*
Y375560D01*
X169013D01*
Y375472D01*
Y375383D01*
Y375295D01*
X169101D01*
Y375207D01*
Y375119D01*
X169189D01*
Y375031D01*
Y374943D01*
Y374855D01*
Y374767D01*
Y374679D01*
Y374591D01*
X169365D01*
Y374503D01*
X169277D01*
Y374415D01*
X169365D01*
Y374327D01*
Y374239D01*
Y374151D01*
X169453D01*
Y374063D01*
Y373975D01*
Y373887D01*
Y373799D01*
X169541D01*
Y373711D01*
Y373623D01*
Y373535D01*
X169629D01*
Y373446D01*
Y373358D01*
X169717D01*
Y373270D01*
Y373182D01*
Y373094D01*
X169805D01*
Y373006D01*
Y372918D01*
Y372830D01*
X169894D01*
Y372742D01*
Y372654D01*
Y372566D01*
X169982D01*
Y372478D01*
Y372390D01*
Y372302D01*
Y372214D01*
Y372126D01*
X170158D01*
Y372038D01*
X170070D01*
Y371950D01*
Y371862D01*
X170158D01*
Y371774D01*
Y371686D01*
X170246D01*
Y371598D01*
Y371510D01*
Y371421D01*
X170334D01*
Y371333D01*
X164963D01*
Y371421D01*
Y371510D01*
Y371598D01*
Y371686D01*
Y371774D01*
X164875D01*
Y371862D01*
Y371950D01*
X164787D01*
Y372038D01*
Y372126D01*
Y372214D01*
X164699D01*
Y372302D01*
Y372390D01*
Y372478D01*
X164611D01*
Y372566D01*
Y372654D01*
Y372742D01*
X164523D01*
Y372830D01*
Y372918D01*
X164435D01*
Y373006D01*
Y373094D01*
Y373182D01*
X164347D01*
Y373270D01*
Y373358D01*
Y373446D01*
X164259D01*
Y373535D01*
X164347D01*
Y373623D01*
X164171D01*
Y373711D01*
Y373799D01*
Y373887D01*
Y373975D01*
Y374063D01*
Y374151D01*
Y374239D01*
X164082D01*
Y374327D01*
Y374415D01*
Y374503D01*
X163994D01*
Y374591D01*
Y374679D01*
X163906D01*
Y374767D01*
Y374855D01*
Y374943D01*
X163818D01*
Y375031D01*
Y375119D01*
Y375207D01*
X163730D01*
Y375295D01*
Y375383D01*
Y375472D01*
X163642D01*
Y375560D01*
Y375648D01*
X163554D01*
Y375736D01*
Y375824D01*
Y375912D01*
X163466D01*
Y376000D01*
Y376088D01*
Y376176D01*
X163378D01*
Y376264D01*
Y376352D01*
X163290D01*
Y376440D01*
Y376528D01*
Y376616D01*
Y376704D01*
X168573D01*
Y376616D01*
D02*
G37*
G36*
X202206Y387534D02*
Y387446D01*
X203263D01*
Y387358D01*
X203615D01*
Y387270D01*
X203879D01*
Y387182D01*
X204144D01*
Y387094D01*
X204496D01*
Y387006D01*
X204672D01*
Y386918D01*
X204936D01*
Y386830D01*
X205200D01*
Y386741D01*
X205288D01*
Y386653D01*
X205640D01*
Y386565D01*
X205816D01*
Y386477D01*
X205993D01*
Y386389D01*
X206169D01*
Y386301D01*
X206345D01*
Y386213D01*
X206521D01*
Y386125D01*
X206697D01*
Y386037D01*
X206785D01*
Y385949D01*
X206961D01*
Y385861D01*
X207049D01*
Y385773D01*
X207313D01*
Y385685D01*
Y385597D01*
X207489D01*
Y385509D01*
X207665D01*
Y385421D01*
X207753D01*
Y385333D01*
X207841D01*
Y385245D01*
X207930D01*
Y385157D01*
X208106D01*
Y385069D01*
X208194D01*
Y384981D01*
X208370D01*
Y384893D01*
Y384805D01*
X208546D01*
Y384716D01*
X208634D01*
Y384628D01*
X208722D01*
Y384540D01*
X208810D01*
Y384452D01*
X208898D01*
Y384364D01*
X208986D01*
Y384276D01*
X209074D01*
Y384188D01*
X209162D01*
Y384100D01*
X209250D01*
Y384012D01*
X209338D01*
Y383924D01*
X209426D01*
Y383836D01*
X209514D01*
Y383748D01*
X209602D01*
Y383660D01*
X209690D01*
Y383572D01*
X209778D01*
Y383484D01*
X209867D01*
Y383396D01*
Y383308D01*
X209955D01*
Y383220D01*
X210043D01*
Y383132D01*
X210131D01*
Y383044D01*
Y382956D01*
X210219D01*
Y382868D01*
X210307D01*
Y382779D01*
X210395D01*
Y382691D01*
Y382603D01*
X210483D01*
Y382515D01*
X210571D01*
Y382427D01*
Y382339D01*
X210659D01*
Y382251D01*
X210747D01*
Y382163D01*
X210835D01*
Y382075D01*
Y381987D01*
Y381899D01*
X211011D01*
Y381811D01*
X211099D01*
Y381723D01*
X211011D01*
Y381635D01*
X211099D01*
Y381547D01*
Y381459D01*
X211187D01*
Y381371D01*
X211275D01*
Y381283D01*
Y381195D01*
X211363D01*
Y381107D01*
Y381018D01*
X211451D01*
Y380930D01*
Y380842D01*
X211540D01*
Y380754D01*
Y380666D01*
X211628D01*
Y380578D01*
Y380490D01*
X211716D01*
Y380402D01*
Y380314D01*
Y380226D01*
Y380138D01*
X211892D01*
Y380050D01*
X211804D01*
Y379962D01*
X211892D01*
Y379874D01*
Y379786D01*
Y379698D01*
X211980D01*
Y379610D01*
Y379522D01*
X212068D01*
Y379434D01*
Y379346D01*
Y379258D01*
X212156D01*
Y379170D01*
Y379082D01*
Y378993D01*
X212244D01*
Y378905D01*
Y378817D01*
Y378729D01*
X212332D01*
Y378641D01*
Y378553D01*
Y378465D01*
X212420D01*
Y378377D01*
Y378289D01*
Y378201D01*
Y378113D01*
Y378025D01*
X212508D01*
Y377937D01*
Y377849D01*
Y377761D01*
Y377673D01*
X212596D01*
Y377585D01*
Y377497D01*
Y377409D01*
Y377321D01*
Y377233D01*
Y377145D01*
Y377056D01*
Y376968D01*
Y376880D01*
Y376792D01*
Y376704D01*
Y376616D01*
Y376528D01*
Y376440D01*
Y376352D01*
Y376264D01*
Y376176D01*
Y376088D01*
Y376000D01*
Y375912D01*
Y375824D01*
Y375736D01*
Y375648D01*
Y375560D01*
Y375472D01*
Y375383D01*
Y375295D01*
X212508D01*
Y375207D01*
Y375119D01*
Y375031D01*
Y374943D01*
X212420D01*
Y374855D01*
Y374767D01*
Y374679D01*
X212332D01*
Y374591D01*
Y374503D01*
Y374415D01*
X212244D01*
Y374327D01*
Y374239D01*
X212156D01*
Y374151D01*
Y374063D01*
Y373975D01*
X212068D01*
Y373887D01*
Y373799D01*
X211980D01*
Y373711D01*
X211892D01*
Y373623D01*
X211804D01*
Y373535D01*
X211892D01*
Y373446D01*
X211804D01*
Y373358D01*
X211716D01*
Y373270D01*
Y373182D01*
X211628D01*
Y373094D01*
X211540D01*
Y373006D01*
X211451D01*
Y372918D01*
X211363D01*
Y372830D01*
X211275D01*
Y372742D01*
X211187D01*
Y372654D01*
X211099D01*
Y372566D01*
X211011D01*
Y372478D01*
X210835D01*
Y372390D01*
Y372302D01*
X210659D01*
Y372214D01*
X210571D01*
Y372126D01*
X210483D01*
Y372038D01*
X210307D01*
Y371950D01*
X210131D01*
Y371862D01*
X209955D01*
Y371774D01*
X209778D01*
Y371686D01*
X209514D01*
Y371598D01*
X209338D01*
Y371510D01*
X209162D01*
Y371421D01*
X208898D01*
Y371333D01*
X208634D01*
Y371245D01*
X208282D01*
Y371157D01*
X205024D01*
Y371245D01*
X204584D01*
Y371333D01*
X204144D01*
Y371421D01*
X203967D01*
Y371510D01*
X203615D01*
Y371598D01*
X203351D01*
Y371686D01*
X203175D01*
Y371774D01*
X202911D01*
Y371862D01*
X202735D01*
Y371950D01*
X202206D01*
Y371862D01*
Y371774D01*
Y371686D01*
Y371598D01*
Y371510D01*
Y371421D01*
X202118D01*
Y371333D01*
X197892D01*
Y371421D01*
X197980D01*
Y371510D01*
X197892D01*
Y371598D01*
Y371686D01*
Y371774D01*
X197804D01*
Y371862D01*
Y371950D01*
X197892D01*
Y372038D01*
Y372126D01*
Y372214D01*
Y372302D01*
X197980D01*
Y372390D01*
Y372478D01*
Y372566D01*
X198068D01*
Y372654D01*
Y372742D01*
Y372830D01*
Y372918D01*
Y373006D01*
Y373094D01*
X198156D01*
Y373182D01*
Y373270D01*
Y373358D01*
X198245D01*
Y373446D01*
Y373535D01*
Y373623D01*
X198333D01*
Y373711D01*
Y373799D01*
Y373887D01*
Y373975D01*
X198421D01*
Y374063D01*
Y374151D01*
Y374239D01*
X198509D01*
Y374327D01*
Y374415D01*
Y374503D01*
Y374591D01*
Y374679D01*
X198421D01*
Y374767D01*
X198333D01*
Y374855D01*
X198245D01*
Y374943D01*
X198156D01*
Y375031D01*
X198068D01*
Y375119D01*
X197980D01*
Y375207D01*
X197892D01*
Y375295D01*
X197980D01*
Y375383D01*
X197804D01*
Y375472D01*
X197716D01*
Y375560D01*
X197628D01*
Y375648D01*
Y375736D01*
X197540D01*
Y375824D01*
X197452D01*
Y375912D01*
X197364D01*
Y376000D01*
Y376088D01*
X197276D01*
Y376176D01*
Y376264D01*
Y376352D01*
X197012D01*
Y376440D01*
X197100D01*
Y376528D01*
X197012D01*
Y376616D01*
Y376704D01*
X196836D01*
Y376792D01*
Y376880D01*
Y376968D01*
X196748D01*
Y377056D01*
Y377145D01*
X196660D01*
Y377233D01*
X196572D01*
Y377321D01*
X196484D01*
Y377409D01*
Y377497D01*
X196396D01*
Y377585D01*
Y377673D01*
Y377761D01*
Y377849D01*
X196219D01*
Y377937D01*
X196307D01*
Y378025D01*
Y378113D01*
X196219D01*
Y378201D01*
X196131D01*
Y378289D01*
Y378377D01*
X196043D01*
Y378465D01*
Y378553D01*
Y378641D01*
X195955D01*
Y378729D01*
Y378817D01*
X195867D01*
Y378905D01*
Y378993D01*
X195779D01*
Y379082D01*
Y379170D01*
Y379258D01*
X195691D01*
Y379346D01*
Y379434D01*
Y379522D01*
X195603D01*
Y379610D01*
Y379698D01*
Y379786D01*
X195515D01*
Y379874D01*
Y379962D01*
Y380050D01*
Y380138D01*
Y380226D01*
Y380314D01*
Y380402D01*
Y380490D01*
X195339D01*
Y380578D01*
X195427D01*
Y380666D01*
Y380754D01*
Y380842D01*
X195339D01*
Y380930D01*
Y381018D01*
Y381107D01*
Y381195D01*
Y381283D01*
Y381371D01*
Y381459D01*
Y381547D01*
X195251D01*
Y381635D01*
Y381723D01*
Y381811D01*
Y381899D01*
Y381987D01*
Y382075D01*
Y382163D01*
Y382251D01*
Y382339D01*
Y382427D01*
Y382515D01*
Y382603D01*
Y382691D01*
Y382779D01*
Y382868D01*
Y382956D01*
X195339D01*
Y383044D01*
Y383132D01*
Y383220D01*
Y383308D01*
Y383396D01*
Y383484D01*
X195427D01*
Y383572D01*
Y383660D01*
Y383748D01*
X195339D01*
Y383836D01*
X195515D01*
Y383924D01*
Y384012D01*
Y384100D01*
Y384188D01*
Y384276D01*
X195603D01*
Y384364D01*
Y384452D01*
X195691D01*
Y384540D01*
Y384628D01*
Y384716D01*
X195779D01*
Y384805D01*
X195867D01*
Y384893D01*
Y384981D01*
X195955D01*
Y385069D01*
X196043D01*
Y385157D01*
Y385245D01*
Y385333D01*
X196219D01*
Y385421D01*
X196307D01*
Y385509D01*
X196219D01*
Y385597D01*
X196396D01*
Y385685D01*
Y385773D01*
X196572D01*
Y385861D01*
X196660D01*
Y385949D01*
X196748D01*
Y386037D01*
X196836D01*
Y386125D01*
X196924D01*
Y386213D01*
X197012D01*
Y386301D01*
X197100D01*
Y386389D01*
X197276D01*
Y386477D01*
Y386565D01*
X197452D01*
Y386653D01*
X197716D01*
Y386741D01*
X197804D01*
Y386830D01*
X197980D01*
Y386918D01*
X198156D01*
Y387006D01*
X198333D01*
Y387094D01*
X198597D01*
Y387182D01*
X198773D01*
Y387270D01*
X199125D01*
Y387358D01*
X199389D01*
Y387446D01*
X200270D01*
Y387534D01*
Y387622D01*
X202206D01*
Y387534D01*
D02*
G37*
G36*
X215149Y369749D02*
X215061D01*
Y369660D01*
Y369572D01*
X215237D01*
Y369484D01*
Y369396D01*
Y369308D01*
X215325D01*
Y369220D01*
Y369132D01*
Y369044D01*
Y368956D01*
Y368868D01*
X215413D01*
Y368780D01*
Y368692D01*
Y368604D01*
X215502D01*
Y368516D01*
Y368428D01*
Y368340D01*
X215590D01*
Y368252D01*
Y368164D01*
X215678D01*
Y368076D01*
Y367988D01*
Y367900D01*
X215766D01*
Y367811D01*
Y367723D01*
Y367635D01*
X215854D01*
Y367547D01*
Y367459D01*
Y367371D01*
X215942D01*
Y367283D01*
Y367195D01*
Y367107D01*
X216030D01*
Y367019D01*
X215942D01*
Y366931D01*
Y366843D01*
X216118D01*
Y366755D01*
Y366667D01*
Y366579D01*
Y366491D01*
Y366403D01*
X216206D01*
Y366315D01*
Y366227D01*
Y366139D01*
X216294D01*
Y366051D01*
Y365963D01*
Y365875D01*
X216382D01*
Y365787D01*
Y365698D01*
Y365610D01*
X216470D01*
Y365522D01*
Y365434D01*
X216558D01*
Y365346D01*
Y365258D01*
Y365170D01*
X216646D01*
Y365082D01*
Y364994D01*
Y364906D01*
X216734D01*
Y364818D01*
Y364730D01*
X216822D01*
Y364642D01*
Y364554D01*
Y364466D01*
X216910D01*
Y364378D01*
Y364290D01*
Y364202D01*
X216998D01*
Y364114D01*
Y364025D01*
Y363937D01*
Y363849D01*
Y363761D01*
Y363673D01*
X217086D01*
Y363585D01*
Y363497D01*
Y363409D01*
X217174D01*
Y363321D01*
Y363233D01*
Y363145D01*
X217263D01*
Y363057D01*
Y362969D01*
Y362881D01*
X217351D01*
Y362793D01*
Y362705D01*
X217439D01*
Y362617D01*
Y362529D01*
Y362441D01*
X217527D01*
Y362353D01*
Y362265D01*
Y362177D01*
X217615D01*
Y362088D01*
Y362000D01*
X217703D01*
Y361912D01*
Y361824D01*
Y361736D01*
X217791D01*
Y361648D01*
Y361560D01*
Y361472D01*
Y361384D01*
Y361296D01*
Y361208D01*
X217967D01*
Y361120D01*
Y361032D01*
X147001D01*
Y361120D01*
Y361208D01*
Y361296D01*
X146913D01*
Y361384D01*
Y361472D01*
X146825D01*
Y361560D01*
Y361648D01*
Y361736D01*
Y361824D01*
Y361912D01*
Y362000D01*
X146649D01*
Y362088D01*
X146737D01*
Y362177D01*
X146649D01*
Y362265D01*
Y362353D01*
Y362441D01*
X146561D01*
Y362529D01*
Y362617D01*
Y362705D01*
X146473D01*
Y362793D01*
Y362881D01*
Y362969D01*
X146385D01*
Y363057D01*
Y363145D01*
X146297D01*
Y363233D01*
Y363321D01*
Y363409D01*
X146209D01*
Y363497D01*
Y363585D01*
Y363673D01*
Y363761D01*
X146121D01*
Y363849D01*
Y363937D01*
Y364025D01*
X146033D01*
Y364114D01*
Y364202D01*
Y364290D01*
Y364378D01*
Y364466D01*
X145857D01*
Y364554D01*
X145945D01*
Y364642D01*
Y364730D01*
X145857D01*
Y364818D01*
Y364906D01*
Y364994D01*
X145769D01*
Y365082D01*
Y365170D01*
X145681D01*
Y365258D01*
Y365346D01*
Y365434D01*
X145593D01*
Y365522D01*
Y365610D01*
Y365698D01*
X145505D01*
Y365787D01*
Y365875D01*
X145417D01*
Y365963D01*
Y366051D01*
Y366139D01*
X145328D01*
Y366227D01*
Y366315D01*
Y366403D01*
X145240D01*
Y366491D01*
Y366579D01*
Y366667D01*
X145152D01*
Y366755D01*
Y366843D01*
Y366931D01*
X145064D01*
Y367019D01*
X145152D01*
Y367107D01*
Y367195D01*
X144976D01*
Y367283D01*
X145064D01*
Y367371D01*
X144976D01*
Y367459D01*
Y367547D01*
Y367635D01*
X144888D01*
Y367723D01*
Y367811D01*
Y367900D01*
X144800D01*
Y367988D01*
Y368076D01*
Y368164D01*
X144712D01*
Y368252D01*
Y368340D01*
Y368428D01*
X144624D01*
Y368516D01*
Y368604D01*
X144536D01*
Y368692D01*
Y368780D01*
Y368868D01*
X144448D01*
Y368956D01*
Y369044D01*
Y369132D01*
X144360D01*
Y369220D01*
Y369308D01*
Y369396D01*
Y369484D01*
Y369572D01*
X144184D01*
Y369660D01*
X144272D01*
Y369749D01*
X144184D01*
Y369837D01*
X215149D01*
Y369749D01*
D02*
G37*
%LPC*%
G36*
X203615Y383572D02*
X201502D01*
Y383484D01*
X201414D01*
Y383396D01*
X201238D01*
Y383308D01*
X200886D01*
Y383220D01*
X200798D01*
Y383132D01*
X200710D01*
Y383044D01*
X200622D01*
Y382956D01*
X200446D01*
Y382868D01*
X200358D01*
Y382779D01*
X200270D01*
Y382691D01*
Y382603D01*
X200182D01*
Y382515D01*
X200005D01*
Y382427D01*
Y382339D01*
X199917D01*
Y382251D01*
Y382163D01*
X199829D01*
Y382075D01*
Y381987D01*
Y381899D01*
X199741D01*
Y381811D01*
Y381723D01*
Y381635D01*
X199653D01*
Y381547D01*
Y381459D01*
Y381371D01*
Y381283D01*
Y381195D01*
Y381107D01*
X199565D01*
Y381018D01*
Y380930D01*
Y380842D01*
Y380754D01*
X199653D01*
Y380666D01*
Y380578D01*
Y380490D01*
Y380402D01*
Y380314D01*
Y380226D01*
Y380138D01*
Y380050D01*
X199741D01*
Y379962D01*
Y379874D01*
Y379786D01*
Y379698D01*
X199829D01*
Y379610D01*
Y379522D01*
Y379434D01*
X199917D01*
Y379346D01*
Y379258D01*
Y379170D01*
X200005D01*
Y379082D01*
Y378993D01*
Y378905D01*
X200093D01*
Y378817D01*
Y378729D01*
X200182D01*
Y378641D01*
X203263D01*
Y378553D01*
X203351D01*
Y378465D01*
Y378377D01*
Y378289D01*
X203439D01*
Y378201D01*
Y378113D01*
Y378025D01*
Y377937D01*
Y377849D01*
Y377761D01*
Y377673D01*
X203351D01*
Y377585D01*
Y377497D01*
Y377409D01*
Y377321D01*
Y377233D01*
X203263D01*
Y377145D01*
Y377056D01*
Y376968D01*
Y376880D01*
X203175D01*
Y376792D01*
Y376704D01*
Y376616D01*
Y376528D01*
Y376440D01*
X203087D01*
Y376352D01*
Y376264D01*
Y376176D01*
Y376088D01*
Y376000D01*
Y375912D01*
Y375824D01*
Y375736D01*
X202999D01*
Y375648D01*
Y375560D01*
X203087D01*
Y375472D01*
X203263D01*
Y375383D01*
X203351D01*
Y375295D01*
X203791D01*
Y375207D01*
Y375119D01*
X204320D01*
Y375031D01*
X204848D01*
Y374943D01*
X205905D01*
Y375031D01*
X206257D01*
Y375119D01*
X206697D01*
Y375207D01*
Y375295D01*
X207049D01*
Y375383D01*
X207137D01*
Y375472D01*
X207225D01*
Y375560D01*
X207401D01*
Y375648D01*
Y375736D01*
X207577D01*
Y375824D01*
Y375912D01*
X207753D01*
Y376000D01*
Y376088D01*
X207841D01*
Y376176D01*
Y376264D01*
X207930D01*
Y376352D01*
Y376440D01*
X208018D01*
Y376528D01*
Y376616D01*
Y376704D01*
X208106D01*
Y376792D01*
Y376880D01*
Y376968D01*
X208194D01*
Y377056D01*
Y377145D01*
Y377233D01*
Y377321D01*
Y377409D01*
Y377497D01*
Y377585D01*
Y377673D01*
Y377761D01*
Y377849D01*
Y377937D01*
Y378025D01*
Y378113D01*
Y378201D01*
Y378289D01*
Y378377D01*
Y378465D01*
X208106D01*
Y378553D01*
Y378641D01*
Y378729D01*
Y378817D01*
Y378905D01*
X208018D01*
Y378993D01*
Y379082D01*
Y379170D01*
X207930D01*
Y379258D01*
Y379346D01*
Y379434D01*
X207841D01*
Y379522D01*
Y379610D01*
X207753D01*
Y379698D01*
Y379786D01*
Y379874D01*
Y379962D01*
X207577D01*
Y380050D01*
Y380138D01*
Y380226D01*
Y380314D01*
X207489D01*
Y380402D01*
Y380490D01*
X207401D01*
Y380578D01*
X207313D01*
Y380666D01*
Y380754D01*
Y380842D01*
X207137D01*
Y380930D01*
Y381018D01*
X207049D01*
Y381107D01*
X206961D01*
Y381195D01*
Y381283D01*
X206873D01*
Y381371D01*
X206785D01*
Y381459D01*
X206697D01*
Y381547D01*
Y381635D01*
X206609D01*
Y381723D01*
X206521D01*
Y381811D01*
X206433D01*
Y381899D01*
X206345D01*
Y381987D01*
X206257D01*
Y382075D01*
X206169D01*
Y382163D01*
X206081D01*
Y382251D01*
X205993D01*
Y382339D01*
X205816D01*
Y382427D01*
X205728D01*
Y382515D01*
X205552D01*
Y382603D01*
X205464D01*
Y382691D01*
X205288D01*
Y382779D01*
X205200D01*
Y382868D01*
X205024D01*
Y382956D01*
X204848D01*
Y383044D01*
X204760D01*
Y383132D01*
X204496D01*
Y383220D01*
X204408D01*
Y383308D01*
X203967D01*
Y383396D01*
X203703D01*
Y383484D01*
X203615D01*
Y383572D01*
D02*
G37*
G36*
X213653Y368428D02*
X212948D01*
Y368340D01*
Y368252D01*
X212860D01*
Y368164D01*
Y368076D01*
Y367988D01*
X212772D01*
Y367900D01*
Y367811D01*
X212596D01*
Y367723D01*
Y367635D01*
Y367547D01*
X212508D01*
Y367459D01*
X212420D01*
Y367371D01*
Y367283D01*
X212332D01*
Y367195D01*
Y367107D01*
X212244D01*
Y367019D01*
X212156D01*
Y366931D01*
Y366843D01*
X212068D01*
Y366755D01*
Y366667D01*
X211980D01*
Y366579D01*
Y366491D01*
X211804D01*
Y366403D01*
X211892D01*
Y366315D01*
X211716D01*
Y366227D01*
Y366139D01*
Y366051D01*
Y365963D01*
X211628D01*
Y365875D01*
X211451D01*
Y365963D01*
X211275D01*
Y366051D01*
X211187D01*
Y366139D01*
X211099D01*
Y366227D01*
X211011D01*
Y366315D01*
X210835D01*
Y366403D01*
X210747D01*
Y366491D01*
X210659D01*
Y366579D01*
Y366667D01*
X210395D01*
Y366755D01*
X210307D01*
Y366843D01*
Y366931D01*
X210131D01*
Y367019D01*
X210043D01*
Y367107D01*
X209955D01*
Y367195D01*
X209867D01*
Y367283D01*
X209690D01*
Y367371D01*
X209514D01*
Y367459D01*
Y367547D01*
X209426D01*
Y367635D01*
X209250D01*
Y367723D01*
X209162D01*
Y367811D01*
X209074D01*
Y367900D01*
X208986D01*
Y367988D01*
X208810D01*
Y368076D01*
X208722D01*
Y368164D01*
X208634D01*
Y368252D01*
X208546D01*
Y368340D01*
X208458D01*
Y368428D01*
X207841D01*
Y368340D01*
Y368252D01*
Y368164D01*
X207930D01*
Y368076D01*
Y367988D01*
Y367900D01*
X208018D01*
Y367811D01*
Y367723D01*
Y367635D01*
X208106D01*
Y367547D01*
Y367459D01*
Y367371D01*
X208194D01*
Y367283D01*
Y367195D01*
X208282D01*
Y367107D01*
Y367019D01*
Y366931D01*
X208370D01*
Y366843D01*
Y366755D01*
Y366667D01*
Y366579D01*
Y366491D01*
Y366403D01*
X208458D01*
Y366315D01*
Y366227D01*
X208546D01*
Y366139D01*
Y366051D01*
Y365963D01*
X208634D01*
Y365875D01*
Y365787D01*
Y365698D01*
X208722D01*
Y365610D01*
Y365522D01*
X208810D01*
Y365434D01*
Y365346D01*
Y365258D01*
Y365170D01*
X208898D01*
Y365082D01*
Y364994D01*
Y364906D01*
X208986D01*
Y364818D01*
Y364730D01*
Y364642D01*
Y364554D01*
Y364466D01*
X209162D01*
Y364378D01*
Y364290D01*
Y364202D01*
Y364114D01*
Y364025D01*
Y363937D01*
X209250D01*
Y363849D01*
Y363761D01*
Y363673D01*
X209338D01*
Y363585D01*
Y363497D01*
X209426D01*
Y363409D01*
Y363321D01*
Y363233D01*
X209514D01*
Y363145D01*
Y363057D01*
Y362969D01*
X209602D01*
Y362881D01*
Y362793D01*
X209690D01*
Y362705D01*
Y362617D01*
Y362529D01*
X209778D01*
Y362441D01*
X211275D01*
Y362529D01*
Y362617D01*
X211187D01*
Y362705D01*
Y362793D01*
Y362881D01*
Y362969D01*
Y363057D01*
Y363145D01*
X211099D01*
Y363233D01*
Y363321D01*
X210923D01*
Y363409D01*
X211011D01*
Y363497D01*
Y363585D01*
X210923D01*
Y363673D01*
Y363761D01*
Y363849D01*
X210835D01*
Y363937D01*
Y364025D01*
X210747D01*
Y364114D01*
Y364202D01*
Y364290D01*
X210659D01*
Y364378D01*
Y364466D01*
Y364554D01*
X210571D01*
Y364642D01*
Y364730D01*
Y364818D01*
X210483D01*
Y364906D01*
Y364994D01*
X210571D01*
Y364906D01*
X210747D01*
Y364818D01*
X210835D01*
Y364730D01*
X211011D01*
Y364642D01*
X211099D01*
Y364554D01*
X211187D01*
Y364466D01*
X211275D01*
Y364378D01*
X211451D01*
Y364290D01*
X211540D01*
Y364202D01*
X211628D01*
Y364114D01*
X211716D01*
Y364025D01*
X211892D01*
Y363937D01*
X211980D01*
Y363849D01*
X212068D01*
Y363761D01*
X212332D01*
Y363849D01*
Y363937D01*
X212420D01*
Y364025D01*
X212508D01*
Y364114D01*
Y364202D01*
X212596D01*
Y364290D01*
X212684D01*
Y364378D01*
Y364466D01*
X212772D01*
Y364554D01*
X212860D01*
Y364642D01*
Y364730D01*
Y364818D01*
X212948D01*
Y364906D01*
X213036D01*
Y364994D01*
Y365082D01*
X213124D01*
Y364994D01*
Y364906D01*
X213212D01*
Y364818D01*
Y364730D01*
X213300D01*
Y364642D01*
Y364554D01*
Y364466D01*
X213388D01*
Y364378D01*
Y364290D01*
Y364202D01*
Y364114D01*
Y364025D01*
Y363937D01*
X213476D01*
Y363849D01*
Y363761D01*
Y363673D01*
X213564D01*
Y363585D01*
Y363497D01*
Y363409D01*
X213653D01*
Y363321D01*
Y363233D01*
Y363145D01*
X213741D01*
Y363057D01*
Y362969D01*
Y362881D01*
X213829D01*
Y362793D01*
Y362705D01*
X213917D01*
Y362617D01*
Y362529D01*
Y362441D01*
X215502D01*
Y362529D01*
Y362617D01*
Y362705D01*
Y362793D01*
X215413D01*
Y362881D01*
Y362969D01*
Y363057D01*
X215325D01*
Y363145D01*
Y363233D01*
X215237D01*
Y363321D01*
Y363409D01*
Y363497D01*
X215149D01*
Y363585D01*
Y363673D01*
Y363761D01*
X215061D01*
Y363849D01*
Y363937D01*
Y364025D01*
X214973D01*
Y364114D01*
Y364202D01*
X214885D01*
Y364290D01*
Y364378D01*
Y364466D01*
X214797D01*
Y364554D01*
Y364642D01*
Y364730D01*
Y364818D01*
X214709D01*
Y364906D01*
Y364994D01*
X214621D01*
Y365082D01*
X214709D01*
Y365170D01*
Y365258D01*
X214533D01*
Y365346D01*
Y365434D01*
Y365522D01*
Y365610D01*
Y365698D01*
Y365787D01*
X214445D01*
Y365875D01*
Y365963D01*
X214357D01*
Y366051D01*
Y366139D01*
Y366227D01*
X214269D01*
Y366315D01*
Y366403D01*
Y366491D01*
X214181D01*
Y366579D01*
Y366667D01*
X214093D01*
Y366755D01*
Y366843D01*
Y366931D01*
X214005D01*
Y367019D01*
Y367107D01*
Y367195D01*
X213917D01*
Y367283D01*
Y367371D01*
Y367459D01*
Y367547D01*
Y367635D01*
X213741D01*
Y367723D01*
Y367811D01*
X213829D01*
Y367900D01*
X213741D01*
Y367988D01*
X213653D01*
Y368076D01*
Y368164D01*
Y368252D01*
Y368340D01*
Y368428D01*
D02*
G37*
G36*
X198421D02*
X194018D01*
Y368340D01*
Y368252D01*
Y368164D01*
X194106D01*
Y368076D01*
Y367988D01*
X194194D01*
Y367900D01*
Y367811D01*
Y367723D01*
X194282D01*
Y367635D01*
Y367547D01*
Y367459D01*
X194370D01*
Y367371D01*
Y367283D01*
X194458D01*
Y367195D01*
Y367107D01*
Y367019D01*
X195955D01*
Y366931D01*
Y366843D01*
Y366755D01*
X196043D01*
Y366667D01*
Y366579D01*
Y366491D01*
X196131D01*
Y366403D01*
Y366315D01*
Y366227D01*
Y366139D01*
Y366051D01*
X196307D01*
Y365963D01*
X196219D01*
Y365875D01*
Y365787D01*
X196307D01*
Y365698D01*
Y365610D01*
Y365522D01*
X196396D01*
Y365434D01*
Y365346D01*
Y365258D01*
X196484D01*
Y365170D01*
Y365082D01*
Y364994D01*
X196572D01*
Y364906D01*
Y364818D01*
Y364730D01*
X196660D01*
Y364642D01*
Y364554D01*
X196748D01*
Y364466D01*
Y364378D01*
Y364290D01*
X196836D01*
Y364202D01*
Y364114D01*
Y364025D01*
X196924D01*
Y363937D01*
Y363849D01*
Y363761D01*
Y363673D01*
Y363585D01*
X197012D01*
Y363497D01*
Y363409D01*
Y363321D01*
X197188D01*
Y363233D01*
X197100D01*
Y363145D01*
Y363057D01*
X197188D01*
Y362969D01*
Y362881D01*
X197276D01*
Y362793D01*
Y362705D01*
Y362617D01*
X197364D01*
Y362529D01*
Y362441D01*
X198861D01*
Y362529D01*
Y362617D01*
Y362705D01*
Y362793D01*
X198773D01*
Y362881D01*
Y362969D01*
Y363057D01*
X198685D01*
Y363145D01*
Y363233D01*
X198597D01*
Y363321D01*
Y363409D01*
Y363497D01*
X198509D01*
Y363585D01*
Y363673D01*
Y363761D01*
X198421D01*
Y363849D01*
Y363937D01*
Y364025D01*
X198333D01*
Y364114D01*
Y364202D01*
X198245D01*
Y364290D01*
Y364378D01*
Y364466D01*
X198156D01*
Y364554D01*
Y364642D01*
Y364730D01*
X198068D01*
Y364818D01*
Y364906D01*
Y364994D01*
Y365082D01*
Y365170D01*
X197892D01*
Y365258D01*
X197980D01*
Y365346D01*
Y365434D01*
X197892D01*
Y365522D01*
Y365610D01*
Y365698D01*
Y365787D01*
X197804D01*
Y365875D01*
Y365963D01*
X197716D01*
Y366051D01*
Y366139D01*
Y366227D01*
X197628D01*
Y366315D01*
Y366403D01*
Y366491D01*
X197540D01*
Y366579D01*
Y366667D01*
X197452D01*
Y366755D01*
Y366843D01*
Y366931D01*
X197364D01*
Y367019D01*
X198861D01*
Y367107D01*
Y367195D01*
X198773D01*
Y367283D01*
Y367371D01*
Y367459D01*
X198685D01*
Y367547D01*
Y367635D01*
Y367723D01*
X198597D01*
Y367811D01*
Y367900D01*
Y367988D01*
X198509D01*
Y368076D01*
Y368164D01*
Y368252D01*
X198421D01*
Y368340D01*
Y368428D01*
D02*
G37*
G36*
X184597D02*
X181516D01*
Y368340D01*
X181252D01*
Y368252D01*
X181075D01*
Y368164D01*
X180899D01*
Y368076D01*
Y367988D01*
X180723D01*
Y367900D01*
X180635D01*
Y367811D01*
X180723D01*
Y367723D01*
X180547D01*
Y367635D01*
Y367547D01*
Y367459D01*
Y367371D01*
X180459D01*
Y367283D01*
Y367195D01*
Y367107D01*
Y367019D01*
Y366931D01*
Y366843D01*
Y366755D01*
Y366667D01*
Y366579D01*
X180547D01*
Y366491D01*
Y366403D01*
Y366315D01*
Y366227D01*
Y366139D01*
Y366051D01*
X180723D01*
Y365963D01*
X180635D01*
Y365875D01*
X180723D01*
Y365787D01*
Y365698D01*
X180811D01*
Y365610D01*
X180899D01*
Y365522D01*
X180987D01*
Y365434D01*
X181075D01*
Y365346D01*
Y365258D01*
X181163D01*
Y365170D01*
X181252D01*
Y365082D01*
X181340D01*
Y364994D01*
Y364906D01*
X181516D01*
Y364818D01*
X181604D01*
Y364730D01*
X181868D01*
Y364642D01*
Y364554D01*
X181956D01*
Y364466D01*
Y364378D01*
Y364290D01*
X181868D01*
Y364202D01*
Y364114D01*
Y364025D01*
X181780D01*
Y363937D01*
Y363849D01*
Y363761D01*
X181692D01*
Y363673D01*
Y363585D01*
Y363497D01*
X181604D01*
Y363409D01*
Y363321D01*
Y363233D01*
X181516D01*
Y363145D01*
Y363057D01*
Y362969D01*
X181428D01*
Y362881D01*
Y362793D01*
Y362705D01*
Y362617D01*
Y362529D01*
Y362441D01*
X183277D01*
Y362529D01*
Y362617D01*
Y362705D01*
Y362793D01*
X183365D01*
Y362881D01*
Y362969D01*
Y363057D01*
Y363145D01*
Y363233D01*
Y363321D01*
Y363409D01*
X183541D01*
Y363497D01*
Y363585D01*
X183453D01*
Y363673D01*
X183541D01*
Y363761D01*
Y363849D01*
Y363937D01*
Y364025D01*
X183629D01*
Y364114D01*
Y364202D01*
X184421D01*
Y364114D01*
Y364025D01*
X184509D01*
Y363937D01*
Y363849D01*
Y363761D01*
X184597D01*
Y363673D01*
Y363585D01*
X184685D01*
Y363497D01*
Y363409D01*
Y363321D01*
X184773D01*
Y363233D01*
Y363145D01*
Y363057D01*
Y362969D01*
Y362881D01*
X184949D01*
Y362793D01*
Y362705D01*
Y362617D01*
Y362529D01*
Y362441D01*
X186446D01*
Y362529D01*
Y362617D01*
Y362705D01*
Y362793D01*
X186358D01*
Y362881D01*
Y362969D01*
Y363057D01*
X186270D01*
Y363145D01*
Y363233D01*
X186182D01*
Y363321D01*
Y363409D01*
Y363497D01*
Y363585D01*
X186094D01*
Y363673D01*
Y363761D01*
Y363849D01*
Y363937D01*
Y364025D01*
X186006D01*
Y364114D01*
X185918D01*
Y364202D01*
X186006D01*
Y364290D01*
X185830D01*
Y364378D01*
Y364466D01*
Y364554D01*
Y364642D01*
Y364730D01*
Y364818D01*
X185742D01*
Y364906D01*
Y364994D01*
X185654D01*
Y365082D01*
Y365170D01*
Y365258D01*
X185566D01*
Y365346D01*
Y365434D01*
Y365522D01*
X185478D01*
Y365610D01*
Y365698D01*
Y365787D01*
X185390D01*
Y365875D01*
Y365963D01*
X185302D01*
Y366051D01*
Y366139D01*
Y366227D01*
X185214D01*
Y366315D01*
Y366403D01*
Y366491D01*
Y366579D01*
Y366667D01*
Y366755D01*
X185038D01*
Y366843D01*
Y366931D01*
Y367019D01*
Y367107D01*
Y367195D01*
Y367283D01*
X184949D01*
Y367371D01*
Y367459D01*
Y367547D01*
X184861D01*
Y367635D01*
Y367723D01*
X184773D01*
Y367811D01*
Y367900D01*
Y367988D01*
X184685D01*
Y368076D01*
Y368164D01*
Y368252D01*
X184597D01*
Y368340D01*
Y368428D01*
D02*
G37*
G36*
X171566D02*
X168485D01*
Y368340D01*
X168221D01*
Y368252D01*
X168044D01*
Y368164D01*
X167956D01*
Y368076D01*
X167868D01*
Y367988D01*
X167692D01*
Y367900D01*
X167604D01*
Y367811D01*
Y367723D01*
X167516D01*
Y367635D01*
Y367547D01*
X167428D01*
Y367459D01*
Y367371D01*
Y367283D01*
Y367195D01*
Y367107D01*
Y367019D01*
Y366931D01*
Y366843D01*
Y366755D01*
Y366667D01*
Y366579D01*
Y366491D01*
Y366403D01*
Y366315D01*
Y366227D01*
X167604D01*
Y366139D01*
X167516D01*
Y366051D01*
Y365963D01*
X167604D01*
Y365875D01*
Y365787D01*
X167692D01*
Y365698D01*
Y365610D01*
X167780D01*
Y365522D01*
X167868D01*
Y365434D01*
X167956D01*
Y365346D01*
Y365258D01*
X168044D01*
Y365170D01*
X168133D01*
Y365082D01*
X168221D01*
Y364994D01*
Y364906D01*
X168309D01*
Y364818D01*
X168397D01*
Y364730D01*
X168573D01*
Y364642D01*
X168661D01*
Y364554D01*
X168749D01*
Y364466D01*
X168925D01*
Y364378D01*
X169013D01*
Y364290D01*
X169189D01*
Y364202D01*
X169365D01*
Y364114D01*
X169629D01*
Y364025D01*
X169982D01*
Y363937D01*
X171478D01*
Y363849D01*
Y363761D01*
Y363673D01*
X171566D01*
Y363585D01*
Y363497D01*
X171654D01*
Y363409D01*
Y363321D01*
Y363233D01*
Y363145D01*
Y363057D01*
X171742D01*
Y362969D01*
X171830D01*
Y362881D01*
X171742D01*
Y362793D01*
X171830D01*
Y362705D01*
Y362617D01*
Y362529D01*
X172007D01*
Y362441D01*
X173415D01*
Y362529D01*
Y362617D01*
Y362705D01*
Y362793D01*
X173327D01*
Y362881D01*
Y362969D01*
Y363057D01*
X173239D01*
Y363145D01*
Y363233D01*
X173151D01*
Y363321D01*
Y363409D01*
Y363497D01*
X173063D01*
Y363585D01*
Y363673D01*
Y363761D01*
X172975D01*
Y363849D01*
Y363937D01*
Y364025D01*
Y364114D01*
Y364202D01*
X172799D01*
Y364290D01*
Y364378D01*
Y364466D01*
Y364554D01*
Y364642D01*
Y364730D01*
X172711D01*
Y364818D01*
Y364906D01*
Y364994D01*
X172623D01*
Y365082D01*
Y365170D01*
X172535D01*
Y365258D01*
Y365346D01*
Y365434D01*
Y365522D01*
X172447D01*
Y365610D01*
Y365698D01*
Y365787D01*
X172359D01*
Y365875D01*
Y365963D01*
X172271D01*
Y366051D01*
Y366139D01*
Y366227D01*
X172183D01*
Y366315D01*
Y366403D01*
Y366491D01*
Y366579D01*
Y366667D01*
X172007D01*
Y366755D01*
X172095D01*
Y366843D01*
Y366931D01*
X171919D01*
Y367019D01*
Y367107D01*
Y367195D01*
Y367283D01*
Y367371D01*
Y367459D01*
X171830D01*
Y367547D01*
Y367635D01*
X171742D01*
Y367723D01*
Y367811D01*
Y367900D01*
X171654D01*
Y367988D01*
Y368076D01*
Y368164D01*
X171566D01*
Y368252D01*
Y368340D01*
Y368428D01*
D02*
G37*
G36*
X157215D02*
X154133D01*
Y368340D01*
X153869D01*
Y368252D01*
X153693D01*
Y368164D01*
X153605D01*
Y368076D01*
X153429D01*
Y367988D01*
X153341D01*
Y367900D01*
Y367811D01*
X153253D01*
Y367723D01*
X153165D01*
Y367635D01*
Y367547D01*
X153077D01*
Y367459D01*
Y367371D01*
Y367283D01*
X152989D01*
Y367195D01*
Y367107D01*
Y367019D01*
Y366931D01*
Y366843D01*
Y366755D01*
Y366667D01*
X153077D01*
Y366579D01*
Y366491D01*
Y366403D01*
X153165D01*
Y366315D01*
Y366227D01*
Y366139D01*
X153253D01*
Y366051D01*
Y365963D01*
Y365875D01*
X153341D01*
Y365787D01*
X153429D01*
Y365698D01*
Y365610D01*
X153517D01*
Y365522D01*
Y365434D01*
X153693D01*
Y365346D01*
Y365258D01*
X153781D01*
Y365170D01*
Y365082D01*
X153957D01*
Y364994D01*
Y364906D01*
X154133D01*
Y364818D01*
X154221D01*
Y364730D01*
X154397D01*
Y364642D01*
X154485D01*
Y364554D01*
X154573D01*
Y364466D01*
X154485D01*
Y364378D01*
X154573D01*
Y364290D01*
X154397D01*
Y364202D01*
Y364114D01*
Y364025D01*
Y363937D01*
Y363849D01*
Y363761D01*
X154309D01*
Y363673D01*
Y363585D01*
Y363497D01*
Y363409D01*
X154221D01*
Y363321D01*
Y363233D01*
Y363145D01*
X154133D01*
Y363057D01*
Y362969D01*
Y362881D01*
X154045D01*
Y362793D01*
Y362705D01*
Y362617D01*
Y362529D01*
X154133D01*
Y362441D01*
X155806D01*
Y362529D01*
Y362617D01*
Y362705D01*
X155894D01*
Y362793D01*
Y362881D01*
Y362969D01*
X155982D01*
Y363057D01*
Y363145D01*
Y363233D01*
Y363321D01*
X156070D01*
Y363409D01*
Y363497D01*
Y363585D01*
Y363673D01*
X156158D01*
Y363761D01*
Y363849D01*
Y363937D01*
X156246D01*
Y364025D01*
Y364114D01*
Y364202D01*
X157039D01*
Y364114D01*
X157127D01*
Y364025D01*
Y363937D01*
Y363849D01*
Y363761D01*
Y363673D01*
X157215D01*
Y363585D01*
Y363497D01*
Y363409D01*
X157303D01*
Y363321D01*
Y363233D01*
Y363145D01*
X157391D01*
Y363057D01*
Y362969D01*
Y362881D01*
X157479D01*
Y362793D01*
Y362705D01*
X157567D01*
Y362617D01*
Y362529D01*
Y362441D01*
X159064D01*
Y362529D01*
Y362617D01*
Y362705D01*
Y362793D01*
Y362881D01*
X158888D01*
Y362969D01*
X158976D01*
Y363057D01*
X158888D01*
Y363145D01*
Y363233D01*
Y363321D01*
X158800D01*
Y363409D01*
Y363497D01*
Y363585D01*
X158712D01*
Y363673D01*
Y363761D01*
Y363849D01*
X158624D01*
Y363937D01*
Y364025D01*
X158536D01*
Y364114D01*
Y364202D01*
Y364290D01*
Y364378D01*
X158448D01*
Y364466D01*
Y364554D01*
Y364642D01*
X158359D01*
Y364730D01*
Y364818D01*
X158271D01*
Y364906D01*
Y364994D01*
Y365082D01*
Y365170D01*
Y365258D01*
Y365346D01*
X158095D01*
Y365434D01*
X158183D01*
Y365522D01*
Y365610D01*
X158007D01*
Y365698D01*
Y365787D01*
Y365875D01*
Y365963D01*
Y366051D01*
X157919D01*
Y366139D01*
Y366227D01*
Y366315D01*
X157831D01*
Y366403D01*
Y366491D01*
Y366579D01*
X157743D01*
Y366667D01*
Y366755D01*
X157655D01*
Y366843D01*
Y366931D01*
Y367019D01*
X157567D01*
Y367107D01*
Y367195D01*
Y367283D01*
X157479D01*
Y367371D01*
Y367459D01*
Y367547D01*
X157391D01*
Y367635D01*
Y367723D01*
Y367811D01*
X157303D01*
Y367900D01*
X157391D01*
Y367988D01*
Y368076D01*
X157215D01*
Y368164D01*
Y368252D01*
Y368340D01*
Y368428D01*
D02*
G37*
G36*
X150963D02*
X146649D01*
Y368340D01*
Y368252D01*
Y368164D01*
Y368076D01*
X146737D01*
Y367988D01*
Y367900D01*
Y367811D01*
X146825D01*
Y367723D01*
Y367635D01*
Y367547D01*
X146913D01*
Y367459D01*
Y367371D01*
Y367283D01*
X147001D01*
Y367195D01*
Y367107D01*
X147090D01*
Y367019D01*
X148498D01*
Y366931D01*
Y366843D01*
X148586D01*
Y366755D01*
Y366667D01*
Y366579D01*
X148674D01*
Y366491D01*
Y366403D01*
X148762D01*
Y366315D01*
Y366227D01*
Y366139D01*
X148850D01*
Y366051D01*
Y365963D01*
Y365875D01*
Y365787D01*
X148938D01*
Y365698D01*
Y365610D01*
X149027D01*
Y365522D01*
Y365434D01*
Y365346D01*
X149115D01*
Y365258D01*
Y365170D01*
Y365082D01*
Y364994D01*
Y364906D01*
Y364818D01*
X149291D01*
Y364730D01*
X149203D01*
Y364642D01*
X149291D01*
Y364554D01*
Y364466D01*
Y364378D01*
X149379D01*
Y364290D01*
Y364202D01*
Y364114D01*
X149467D01*
Y364025D01*
Y363937D01*
X149555D01*
Y363849D01*
Y363761D01*
Y363673D01*
X149643D01*
Y363585D01*
Y363497D01*
Y363409D01*
X149731D01*
Y363321D01*
Y363233D01*
Y363145D01*
X149819D01*
Y363057D01*
Y362969D01*
Y362881D01*
X149907D01*
Y362793D01*
Y362705D01*
Y362617D01*
X149995D01*
Y362529D01*
Y362441D01*
X151404D01*
Y362529D01*
Y362617D01*
Y362705D01*
Y362793D01*
X151316D01*
Y362881D01*
Y362969D01*
Y363057D01*
Y363145D01*
Y363233D01*
Y363321D01*
X151140D01*
Y363409D01*
X151228D01*
Y363497D01*
Y363585D01*
X151140D01*
Y363673D01*
Y363761D01*
Y363849D01*
X151051D01*
Y363937D01*
Y364025D01*
X150963D01*
Y364114D01*
Y364202D01*
Y364290D01*
X150875D01*
Y364378D01*
Y364466D01*
Y364554D01*
X150787D01*
Y364642D01*
Y364730D01*
Y364818D01*
X150699D01*
Y364906D01*
Y364994D01*
X150611D01*
Y365082D01*
Y365170D01*
Y365258D01*
X150523D01*
Y365346D01*
Y365434D01*
Y365522D01*
X150435D01*
Y365610D01*
Y365698D01*
Y365787D01*
Y365875D01*
Y365963D01*
Y366051D01*
X150259D01*
Y366139D01*
Y366227D01*
Y366315D01*
Y366403D01*
Y366491D01*
Y366579D01*
X150171D01*
Y366667D01*
Y366755D01*
X150083D01*
Y366843D01*
Y366931D01*
Y367019D01*
X151404D01*
Y367107D01*
Y367195D01*
Y367283D01*
X151316D01*
Y367371D01*
Y367459D01*
Y367547D01*
Y367635D01*
Y367723D01*
Y367811D01*
X151140D01*
Y367900D01*
X151228D01*
Y367988D01*
Y368076D01*
X151140D01*
Y368164D01*
Y368252D01*
Y368340D01*
X150963D01*
Y368428D01*
D02*
G37*
G36*
X203791D02*
X201854D01*
Y368340D01*
X201766D01*
Y368252D01*
X201590D01*
Y368164D01*
X201414D01*
Y368076D01*
X201326D01*
Y367988D01*
X201150D01*
Y367900D01*
X201062D01*
Y367811D01*
X200974D01*
Y367723D01*
Y367635D01*
X200886D01*
Y367547D01*
X200798D01*
Y367459D01*
X200710D01*
Y367371D01*
Y367283D01*
X200622D01*
Y367195D01*
Y367107D01*
Y367019D01*
Y366931D01*
X200534D01*
Y366843D01*
Y366755D01*
Y366667D01*
Y366579D01*
Y366491D01*
Y366403D01*
Y366315D01*
Y366227D01*
Y366139D01*
Y366051D01*
Y365963D01*
X200622D01*
Y365875D01*
Y365787D01*
Y365698D01*
Y365610D01*
X200710D01*
Y365522D01*
Y365434D01*
Y365346D01*
X200798D01*
Y365258D01*
Y365170D01*
X200886D01*
Y365082D01*
Y364994D01*
Y364906D01*
X200974D01*
Y364818D01*
Y364730D01*
X201062D01*
Y364642D01*
Y364554D01*
X201150D01*
Y364466D01*
X201238D01*
Y364378D01*
X201326D01*
Y364290D01*
Y364202D01*
X201414D01*
Y364114D01*
X201502D01*
Y364025D01*
Y363937D01*
X201590D01*
Y363849D01*
X201678D01*
Y363761D01*
Y363673D01*
X201854D01*
Y363585D01*
X201942D01*
Y363497D01*
X202030D01*
Y363409D01*
X202118D01*
Y363321D01*
X202295D01*
Y363233D01*
X202383D01*
Y363145D01*
Y363057D01*
X202647D01*
Y362969D01*
Y362881D01*
X202999D01*
Y362793D01*
X203087D01*
Y362705D01*
X203263D01*
Y362617D01*
X203527D01*
Y362529D01*
X203791D01*
Y362441D01*
X204144D01*
Y362353D01*
X205376D01*
Y362441D01*
X205728D01*
Y362529D01*
X205905D01*
Y362617D01*
X206081D01*
Y362705D01*
X206169D01*
Y362793D01*
X206345D01*
Y362881D01*
X206521D01*
Y362969D01*
Y363057D01*
X206697D01*
Y363145D01*
Y363233D01*
Y363321D01*
X206785D01*
Y363409D01*
Y363497D01*
Y363585D01*
X206961D01*
Y363673D01*
Y363761D01*
Y363849D01*
Y363937D01*
Y364025D01*
Y364114D01*
Y364202D01*
Y364290D01*
Y364378D01*
Y364466D01*
Y364554D01*
Y364642D01*
Y364730D01*
Y364818D01*
Y364906D01*
Y364994D01*
Y365082D01*
Y365170D01*
Y365258D01*
X206785D01*
Y365346D01*
X206873D01*
Y365434D01*
X206785D01*
Y365522D01*
X206697D01*
Y365610D01*
Y365698D01*
Y365787D01*
Y365875D01*
X206609D01*
Y365963D01*
Y366051D01*
X206521D01*
Y366139D01*
Y366227D01*
X206433D01*
Y366315D01*
Y366403D01*
X206345D01*
Y366491D01*
Y366579D01*
X206257D01*
Y366667D01*
X206081D01*
Y366755D01*
Y366843D01*
Y366931D01*
X205905D01*
Y367019D01*
Y367107D01*
X205728D01*
Y367195D01*
Y367283D01*
X205640D01*
Y367371D01*
X205464D01*
Y367459D01*
Y367547D01*
X205288D01*
Y367635D01*
X205112D01*
Y367723D01*
X205024D01*
Y367811D01*
X204848D01*
Y367900D01*
X204760D01*
Y367988D01*
X204672D01*
Y368076D01*
X204496D01*
Y368164D01*
X204232D01*
Y368252D01*
X204056D01*
Y368340D01*
X203791D01*
Y368428D01*
D02*
G37*
G36*
X190584D02*
X188559D01*
Y368340D01*
X188471D01*
Y368252D01*
X188295D01*
Y368164D01*
X188119D01*
Y368076D01*
X188031D01*
Y367988D01*
X187943D01*
Y367900D01*
X187855D01*
Y367811D01*
X187767D01*
Y367723D01*
X187679D01*
Y367635D01*
X187591D01*
Y367547D01*
X187503D01*
Y367459D01*
Y367371D01*
Y367283D01*
Y367195D01*
X187415D01*
Y367107D01*
Y367019D01*
Y366931D01*
Y366843D01*
X187327D01*
Y366755D01*
Y366667D01*
Y366579D01*
Y366491D01*
Y366403D01*
Y366315D01*
Y366227D01*
Y366139D01*
X187415D01*
Y366051D01*
Y365963D01*
Y365875D01*
Y365787D01*
Y365698D01*
X187503D01*
Y365610D01*
Y365522D01*
Y365434D01*
Y365346D01*
Y365258D01*
Y365170D01*
X187679D01*
Y365082D01*
X187591D01*
Y364994D01*
X187679D01*
Y364906D01*
Y364818D01*
X187767D01*
Y364730D01*
X187855D01*
Y364642D01*
Y364554D01*
X187943D01*
Y364466D01*
Y364378D01*
X188031D01*
Y364290D01*
X188119D01*
Y364202D01*
Y364114D01*
X188207D01*
Y364025D01*
X188295D01*
Y363937D01*
X188383D01*
Y363849D01*
Y363761D01*
Y363673D01*
X188559D01*
Y363585D01*
X188647D01*
Y363497D01*
X188735D01*
Y363409D01*
X188911D01*
Y363321D01*
X189000D01*
Y363233D01*
X189088D01*
Y363145D01*
X189176D01*
Y363057D01*
X189352D01*
Y362969D01*
X189528D01*
Y362881D01*
X189704D01*
Y362793D01*
X189880D01*
Y362705D01*
X190056D01*
Y362617D01*
X190232D01*
Y362529D01*
X190496D01*
Y362441D01*
X190937D01*
Y362353D01*
X192169D01*
Y362441D01*
X192433D01*
Y362529D01*
X192610D01*
Y362617D01*
X192786D01*
Y362705D01*
X192874D01*
Y362793D01*
X193050D01*
Y362881D01*
X193226D01*
Y362969D01*
Y363057D01*
X193402D01*
Y363145D01*
X193490D01*
Y363233D01*
Y363321D01*
X193578D01*
Y363409D01*
Y363497D01*
X193666D01*
Y363585D01*
Y363673D01*
Y363761D01*
Y363849D01*
Y363937D01*
Y364025D01*
Y364114D01*
X193842D01*
Y364202D01*
Y364290D01*
Y364378D01*
Y364466D01*
Y364554D01*
X193666D01*
Y364642D01*
Y364730D01*
Y364818D01*
Y364906D01*
Y364994D01*
Y365082D01*
Y365170D01*
Y365258D01*
Y365346D01*
X193578D01*
Y365434D01*
Y365522D01*
Y365610D01*
X193490D01*
Y365698D01*
Y365787D01*
Y365875D01*
X193402D01*
Y365963D01*
X193314D01*
Y366051D01*
Y366139D01*
X193226D01*
Y366227D01*
Y366315D01*
X193138D01*
Y366403D01*
X193050D01*
Y366491D01*
Y366579D01*
Y366667D01*
X192874D01*
Y366755D01*
X192786D01*
Y366843D01*
Y366931D01*
X192610D01*
Y367019D01*
Y367107D01*
Y367195D01*
X192433D01*
Y367283D01*
Y367371D01*
X192257D01*
Y367459D01*
X192169D01*
Y367547D01*
X191993D01*
Y367635D01*
X191905D01*
Y367723D01*
X191817D01*
Y367811D01*
X191641D01*
Y367900D01*
X191553D01*
Y367988D01*
X191377D01*
Y368076D01*
X191201D01*
Y368164D01*
X191025D01*
Y368252D01*
X190761D01*
Y368340D01*
X190584D01*
Y368428D01*
D02*
G37*
G36*
X176849D02*
X175000D01*
Y368340D01*
X174912D01*
Y368252D01*
X174648D01*
Y368164D01*
X174560D01*
Y368076D01*
Y367988D01*
X174384D01*
Y367900D01*
Y367811D01*
X174296D01*
Y367723D01*
Y367635D01*
X174208D01*
Y367547D01*
Y367459D01*
Y367371D01*
X174120D01*
Y367283D01*
Y367195D01*
Y367107D01*
Y367019D01*
Y366931D01*
X174208D01*
Y366843D01*
Y366755D01*
Y366667D01*
Y366579D01*
X174296D01*
Y366491D01*
X175617D01*
Y366579D01*
Y366667D01*
Y366755D01*
Y366843D01*
X175705D01*
Y366931D01*
X175793D01*
Y367019D01*
X175881D01*
Y367107D01*
X176233D01*
Y367195D01*
X176321D01*
Y367107D01*
X176761D01*
Y367019D01*
X176937D01*
Y366931D01*
X177113D01*
Y366843D01*
X177201D01*
Y366755D01*
X177289D01*
Y366667D01*
Y366579D01*
Y366491D01*
Y366403D01*
Y366315D01*
Y366227D01*
Y366139D01*
X177113D01*
Y366051D01*
X176761D01*
Y365963D01*
X176145D01*
Y365875D01*
X175440D01*
Y365787D01*
X175352D01*
Y365698D01*
X175176D01*
Y365610D01*
X175000D01*
Y365522D01*
X174912D01*
Y365434D01*
X174824D01*
Y365346D01*
Y365258D01*
X174736D01*
Y365170D01*
Y365082D01*
Y364994D01*
Y364906D01*
Y364818D01*
Y364730D01*
Y364642D01*
Y364554D01*
Y364466D01*
Y364378D01*
X174824D01*
Y364290D01*
Y364202D01*
Y364114D01*
Y364025D01*
X174912D01*
Y363937D01*
X175000D01*
Y363849D01*
Y363761D01*
Y363673D01*
X175176D01*
Y363585D01*
Y363497D01*
X175264D01*
Y363409D01*
X175352D01*
Y363321D01*
X175440D01*
Y363233D01*
X175529D01*
Y363145D01*
Y363057D01*
X175705D01*
Y362969D01*
X175793D01*
Y362881D01*
X176057D01*
Y362793D01*
X176233D01*
Y362705D01*
X176321D01*
Y362617D01*
X176497D01*
Y362529D01*
X176761D01*
Y362441D01*
X177113D01*
Y362353D01*
X178522D01*
Y362441D01*
X178698D01*
Y362529D01*
X178874D01*
Y362617D01*
X179050D01*
Y362705D01*
X179226D01*
Y362793D01*
X179314D01*
Y362881D01*
X179491D01*
Y362969D01*
Y363057D01*
X179579D01*
Y363145D01*
X179667D01*
Y363233D01*
Y363321D01*
Y363409D01*
Y363497D01*
X179755D01*
Y363585D01*
Y363673D01*
Y363761D01*
Y363849D01*
Y363937D01*
X179667D01*
Y364025D01*
Y364114D01*
Y364202D01*
X179579D01*
Y364290D01*
X178082D01*
Y364202D01*
Y364114D01*
Y364025D01*
X177994D01*
Y363937D01*
Y363849D01*
X177818D01*
Y363761D01*
X176761D01*
Y363849D01*
X176673D01*
Y363937D01*
X176497D01*
Y364025D01*
X176409D01*
Y364114D01*
X176321D01*
Y364202D01*
Y364290D01*
Y364378D01*
Y364466D01*
Y364554D01*
X176497D01*
Y364642D01*
X176585D01*
Y364730D01*
X177642D01*
Y364818D01*
X177994D01*
Y364906D01*
X178170D01*
Y364994D01*
X178346D01*
Y365082D01*
X178522D01*
Y365170D01*
X178610D01*
Y365258D01*
X178698D01*
Y365346D01*
X178786D01*
Y365434D01*
Y365522D01*
X178874D01*
Y365610D01*
Y365698D01*
Y365787D01*
Y365875D01*
Y365963D01*
Y366051D01*
Y366139D01*
Y366227D01*
Y366315D01*
Y366403D01*
Y366491D01*
X178786D01*
Y366579D01*
Y366667D01*
X178698D01*
Y366755D01*
Y366843D01*
X178610D01*
Y366931D01*
Y367019D01*
X178522D01*
Y367107D01*
Y367195D01*
X178434D01*
Y367283D01*
X178346D01*
Y367371D01*
Y367459D01*
X178258D01*
Y367547D01*
X178082D01*
Y367635D01*
Y367723D01*
X177906D01*
Y367811D01*
X177818D01*
Y367900D01*
X177730D01*
Y367988D01*
X177553D01*
Y368076D01*
X177465D01*
Y368164D01*
X177201D01*
Y368252D01*
X177025D01*
Y368340D01*
X176849D01*
Y368428D01*
D02*
G37*
G36*
X163114D02*
X161265D01*
Y368340D01*
X161089D01*
Y368252D01*
X160913D01*
Y368164D01*
X160649D01*
Y368076D01*
Y367988D01*
X160473D01*
Y367900D01*
Y367811D01*
X160385D01*
Y367723D01*
X160296D01*
Y367635D01*
X160208D01*
Y367547D01*
X160120D01*
Y367459D01*
Y367371D01*
X160032D01*
Y367283D01*
Y367195D01*
Y367107D01*
X159944D01*
Y367019D01*
Y366931D01*
Y366843D01*
Y366755D01*
Y366667D01*
X159856D01*
Y366579D01*
Y366491D01*
Y366403D01*
Y366315D01*
Y366227D01*
X159944D01*
Y366139D01*
Y366051D01*
Y365963D01*
Y365875D01*
Y365787D01*
X160032D01*
Y365698D01*
Y365610D01*
Y365522D01*
X160120D01*
Y365434D01*
Y365346D01*
Y365258D01*
X160208D01*
Y365170D01*
Y365082D01*
Y364994D01*
X160296D01*
Y364906D01*
Y364818D01*
X160385D01*
Y364730D01*
X160473D01*
Y364642D01*
Y364554D01*
Y364466D01*
X160561D01*
Y364378D01*
Y364290D01*
X160649D01*
Y364202D01*
X160737D01*
Y364114D01*
Y364025D01*
X160913D01*
Y363937D01*
X161001D01*
Y363849D01*
Y363761D01*
X161089D01*
Y363673D01*
X161265D01*
Y363585D01*
X161353D01*
Y363497D01*
X161441D01*
Y363409D01*
X161529D01*
Y363321D01*
Y363233D01*
X161705D01*
Y363145D01*
X161793D01*
Y363057D01*
X161969D01*
Y362969D01*
X162057D01*
Y362881D01*
X162321D01*
Y362793D01*
X162409D01*
Y362705D01*
X162674D01*
Y362617D01*
X162850D01*
Y362529D01*
X163202D01*
Y362441D01*
X163466D01*
Y362353D01*
X164787D01*
Y362441D01*
X165051D01*
Y362529D01*
X165227D01*
Y362617D01*
X165403D01*
Y362705D01*
X165579D01*
Y362793D01*
X165667D01*
Y362881D01*
X165755D01*
Y362969D01*
X165843D01*
Y363057D01*
X165931D01*
Y363145D01*
X166019D01*
Y363233D01*
X166107D01*
Y363321D01*
Y363409D01*
X166195D01*
Y363497D01*
Y363585D01*
Y363673D01*
X166284D01*
Y363761D01*
Y363849D01*
Y363937D01*
X166372D01*
Y364025D01*
Y364114D01*
Y364202D01*
Y364290D01*
Y364378D01*
Y364466D01*
Y364554D01*
Y364642D01*
Y364730D01*
Y364818D01*
X166284D01*
Y364906D01*
Y364994D01*
Y365082D01*
Y365170D01*
X166195D01*
Y365258D01*
Y365346D01*
Y365434D01*
X166107D01*
Y365522D01*
Y365610D01*
Y365698D01*
X166019D01*
Y365787D01*
Y365875D01*
Y365963D01*
X165843D01*
Y366051D01*
Y366139D01*
Y366227D01*
Y366315D01*
X165755D01*
Y366403D01*
Y366491D01*
X165579D01*
Y366579D01*
Y366667D01*
X165491D01*
Y366755D01*
X165403D01*
Y366843D01*
X165315D01*
Y366931D01*
Y367019D01*
X165227D01*
Y367107D01*
X165139D01*
Y367195D01*
X165051D01*
Y367283D01*
X164963D01*
Y367371D01*
X164875D01*
Y367459D01*
X164787D01*
Y367547D01*
X164611D01*
Y367635D01*
X164523D01*
Y367723D01*
X164347D01*
Y367811D01*
X164259D01*
Y367900D01*
X164171D01*
Y367988D01*
X163994D01*
Y368076D01*
X163818D01*
Y368164D01*
X163642D01*
Y368252D01*
X163378D01*
Y368340D01*
X163114D01*
Y368428D01*
D02*
G37*
%LPD*%
G36*
X183541Y366931D02*
Y366843D01*
Y366755D01*
X183629D01*
Y366667D01*
Y366579D01*
Y366491D01*
X183717D01*
Y366403D01*
Y366315D01*
Y366227D01*
X183805D01*
Y366139D01*
Y366051D01*
X183893D01*
Y365963D01*
Y365875D01*
Y365787D01*
Y365698D01*
Y365610D01*
X182572D01*
Y365698D01*
X182396D01*
Y365787D01*
X182308D01*
Y365875D01*
X182220D01*
Y365963D01*
Y366051D01*
X182132D01*
Y366139D01*
Y366227D01*
X182044D01*
Y366315D01*
Y366403D01*
Y366491D01*
Y366579D01*
X181956D01*
Y366667D01*
X182044D01*
Y366755D01*
Y366843D01*
X182132D01*
Y366931D01*
X182220D01*
Y367019D01*
X183541D01*
Y366931D01*
D02*
G37*
G36*
X170422D02*
X170510D01*
Y366843D01*
Y366755D01*
Y366667D01*
X170598D01*
Y366579D01*
Y366491D01*
Y366403D01*
X170686D01*
Y366315D01*
Y366227D01*
X170774D01*
Y366139D01*
Y366051D01*
Y365963D01*
X170862D01*
Y365875D01*
Y365787D01*
Y365698D01*
Y365610D01*
Y365522D01*
X171038D01*
Y365434D01*
Y365346D01*
X169717D01*
Y365434D01*
X169541D01*
Y365522D01*
X169453D01*
Y365610D01*
X169365D01*
Y365698D01*
X169277D01*
Y365787D01*
Y365875D01*
X169189D01*
Y365963D01*
X169101D01*
Y366051D01*
Y366139D01*
X169013D01*
Y366227D01*
Y366315D01*
Y366403D01*
Y366491D01*
X168925D01*
Y366579D01*
Y366667D01*
X169013D01*
Y366755D01*
Y366843D01*
X169101D01*
Y366931D01*
X169189D01*
Y367019D01*
X170422D01*
Y366931D01*
D02*
G37*
G36*
X156070D02*
Y366843D01*
X156246D01*
Y366755D01*
X156158D01*
Y366667D01*
Y366579D01*
X156246D01*
Y366491D01*
Y366403D01*
X156334D01*
Y366315D01*
Y366227D01*
Y366139D01*
X156422D01*
Y366051D01*
Y365963D01*
Y365875D01*
Y365787D01*
X156510D01*
Y365698D01*
Y365610D01*
X155278D01*
Y365698D01*
X155014D01*
Y365787D01*
Y365875D01*
X154838D01*
Y365963D01*
X154750D01*
Y366051D01*
X154662D01*
Y366139D01*
Y366227D01*
Y366315D01*
Y366403D01*
Y366491D01*
Y366579D01*
Y366667D01*
Y366755D01*
Y366843D01*
Y366931D01*
X154750D01*
Y367019D01*
X156070D01*
Y366931D01*
D02*
G37*
G36*
X203615D02*
X203879D01*
Y366843D01*
X204144D01*
Y366755D01*
X204320D01*
Y366667D01*
Y366579D01*
X204496D01*
Y366491D01*
X204584D01*
Y366403D01*
X204760D01*
Y366315D01*
Y366227D01*
X204936D01*
Y366139D01*
X204848D01*
Y366051D01*
X204936D01*
Y365963D01*
X205024D01*
Y365875D01*
Y365787D01*
X205112D01*
Y365698D01*
Y365610D01*
X205200D01*
Y365522D01*
Y365434D01*
X205288D01*
Y365346D01*
Y365258D01*
Y365170D01*
Y365082D01*
X205376D01*
Y364994D01*
Y364906D01*
Y364818D01*
Y364730D01*
Y364642D01*
Y364554D01*
X205288D01*
Y364466D01*
Y364378D01*
Y364290D01*
X205200D01*
Y364202D01*
X205112D01*
Y364114D01*
X205024D01*
Y364025D01*
X204936D01*
Y363937D01*
X204672D01*
Y363849D01*
X203967D01*
Y363937D01*
X203703D01*
Y364025D01*
X203351D01*
Y364114D01*
X203263D01*
Y364202D01*
X203175D01*
Y364290D01*
X202999D01*
Y364378D01*
X202911D01*
Y364466D01*
X202823D01*
Y364554D01*
X202735D01*
Y364642D01*
Y364730D01*
X202647D01*
Y364818D01*
X202559D01*
Y364906D01*
Y364994D01*
X202471D01*
Y365082D01*
Y365170D01*
X202295D01*
Y365258D01*
X202383D01*
Y365346D01*
Y365434D01*
X202295D01*
Y365522D01*
Y365610D01*
Y365698D01*
Y365787D01*
X202206D01*
Y365875D01*
Y365963D01*
Y366051D01*
Y366139D01*
Y366227D01*
X202295D01*
Y366315D01*
Y366403D01*
Y366491D01*
Y366579D01*
X202383D01*
Y366667D01*
X202471D01*
Y366755D01*
X202559D01*
Y366843D01*
X202735D01*
Y366931D01*
X202999D01*
Y367019D01*
X203615D01*
Y366931D01*
D02*
G37*
G36*
X190408D02*
X190673D01*
Y366843D01*
X190849D01*
Y366755D01*
X191025D01*
Y366667D01*
X191113D01*
Y366579D01*
X191289D01*
Y366491D01*
Y366403D01*
X191465D01*
Y366315D01*
X191553D01*
Y366227D01*
X191641D01*
Y366139D01*
X191729D01*
Y366051D01*
Y365963D01*
X191817D01*
Y365875D01*
X191729D01*
Y365787D01*
X191905D01*
Y365698D01*
Y365610D01*
Y365522D01*
X191993D01*
Y365434D01*
Y365346D01*
Y365258D01*
X192081D01*
Y365170D01*
Y365082D01*
Y364994D01*
Y364906D01*
Y364818D01*
Y364730D01*
Y364642D01*
Y364554D01*
Y364466D01*
X191993D01*
Y364378D01*
Y364290D01*
X191905D01*
Y364202D01*
Y364114D01*
Y364025D01*
X191641D01*
Y363937D01*
X191377D01*
Y363849D01*
X190673D01*
Y363937D01*
X190408D01*
Y364025D01*
X190144D01*
Y364114D01*
X190056D01*
Y364202D01*
X189880D01*
Y364290D01*
X189792D01*
Y364378D01*
X189616D01*
Y364466D01*
Y364554D01*
X189528D01*
Y364642D01*
X189440D01*
Y364730D01*
X189352D01*
Y364818D01*
X189264D01*
Y364906D01*
Y364994D01*
Y365082D01*
X189176D01*
Y365170D01*
Y365258D01*
X189088D01*
Y365346D01*
Y365434D01*
Y365522D01*
X189000D01*
Y365610D01*
Y365698D01*
Y365787D01*
Y365875D01*
Y365963D01*
Y366051D01*
Y366139D01*
Y366227D01*
Y366315D01*
Y366403D01*
X189088D01*
Y366491D01*
Y366579D01*
X189176D01*
Y366667D01*
X189264D01*
Y366755D01*
Y366843D01*
X189440D01*
Y366931D01*
X189704D01*
Y367019D01*
X190408D01*
Y366931D01*
D02*
G37*
G36*
X163026D02*
X163202D01*
Y366843D01*
X163378D01*
Y366755D01*
X163554D01*
Y366667D01*
X163730D01*
Y366579D01*
X163818D01*
Y366491D01*
X163906D01*
Y366403D01*
X164082D01*
Y366315D01*
Y366227D01*
X164171D01*
Y366139D01*
X164259D01*
Y366051D01*
X164347D01*
Y365963D01*
Y365875D01*
X164435D01*
Y365787D01*
Y365698D01*
X164523D01*
Y365610D01*
X164611D01*
Y365522D01*
Y365434D01*
Y365346D01*
X164699D01*
Y365258D01*
Y365170D01*
Y365082D01*
Y364994D01*
Y364906D01*
Y364818D01*
Y364730D01*
Y364642D01*
Y364554D01*
Y364466D01*
Y364378D01*
X164611D01*
Y364290D01*
Y364202D01*
X164435D01*
Y364114D01*
Y364025D01*
X164259D01*
Y363937D01*
X163994D01*
Y363849D01*
X163202D01*
Y363937D01*
X163026D01*
Y364025D01*
X162674D01*
Y364114D01*
Y364202D01*
X162498D01*
Y364290D01*
X162321D01*
Y364378D01*
Y364466D01*
X162145D01*
Y364554D01*
Y364642D01*
X162057D01*
Y364730D01*
X161969D01*
Y364818D01*
X161881D01*
Y364906D01*
Y364994D01*
X161793D01*
Y365082D01*
X161705D01*
Y365170D01*
Y365258D01*
Y365346D01*
X161617D01*
Y365434D01*
Y365522D01*
Y365610D01*
Y365698D01*
Y365787D01*
Y365875D01*
Y365963D01*
Y366051D01*
Y366139D01*
Y366227D01*
Y366315D01*
Y366403D01*
Y366491D01*
X161705D01*
Y366579D01*
Y366667D01*
X161793D01*
Y366755D01*
X161969D01*
Y366843D01*
X162057D01*
Y366931D01*
X162321D01*
Y367019D01*
X163026D01*
Y366931D01*
D02*
G37*
D11*
X252000Y376500D02*
X253999D01*
X254999Y377500D01*
X253999Y378499D01*
X252000D01*
X253500D01*
Y376500D01*
X254499Y381498D02*
X254999Y380998D01*
Y379999D01*
X254499Y379499D01*
X252500D01*
X252000Y379999D01*
Y380998D01*
X252500Y381498D01*
X254999Y382498D02*
Y384497D01*
Y383498D01*
X252000D01*
X254999Y385497D02*
Y386497D01*
Y385997D01*
X252000D01*
Y385497D01*
Y386497D01*
X254999Y387996D02*
X253000D01*
X252000Y388996D01*
X253000Y389996D01*
X254999D01*
Y392995D02*
Y390995D01*
X252000D01*
Y392995D01*
X253500Y390995D02*
Y391995D01*
X100000Y385999D02*
Y383000D01*
Y384500D01*
X98001D01*
Y385999D01*
Y383000D01*
X97001Y385999D02*
Y384000D01*
X96001Y383000D01*
X95002Y384000D01*
Y385999D01*
X89503D02*
X90503D01*
X91003Y385499D01*
Y383500D01*
X90503Y383000D01*
X89503D01*
X89004Y383500D01*
Y385499D01*
X89503Y385999D01*
X88004D02*
Y383500D01*
X87504Y383000D01*
X86504D01*
X86005Y383500D01*
Y385999D01*
X85005D02*
X83005D01*
X84005D01*
Y383000D01*
X100000Y373999D02*
Y371000D01*
Y372499D01*
X98001D01*
Y373999D01*
Y371000D01*
X97001Y373999D02*
Y372000D01*
X96001Y371000D01*
X95002Y372000D01*
Y373999D01*
X91003D02*
X90003D01*
X90503D01*
Y371000D01*
X91003D01*
X90003D01*
X88504D02*
Y373999D01*
X86504Y371000D01*
Y373999D01*
X236001Y405999D02*
X236501Y406499D01*
X237500D01*
X238000Y405999D01*
Y404000D01*
X237500Y403500D01*
X236501D01*
X236001Y404000D01*
Y404999D01*
X237000D01*
X235001Y403500D02*
Y406499D01*
X233002Y403500D01*
Y406499D01*
X232002D02*
Y403500D01*
X230502D01*
X230003Y404000D01*
Y405999D01*
X230502Y406499D01*
X232002D01*
X235501Y365999D02*
X236000Y366499D01*
X237000D01*
X237500Y365999D01*
Y364000D01*
X237000Y363500D01*
X236000D01*
X235501Y364000D01*
Y365000D01*
X236500D01*
X234501Y363500D02*
Y366499D01*
X233001D01*
X232502Y365999D01*
Y365000D01*
X233001Y364500D01*
X234501D01*
X233501D02*
X232502Y363500D01*
X231502D02*
Y366499D01*
X229503Y363500D01*
Y366499D01*
X249500Y403500D02*
X248500D01*
X249000D01*
Y406499D01*
X249500Y405999D01*
X245002Y403500D02*
X247001D01*
X245002Y405499D01*
Y405999D01*
X245501Y406499D01*
X246501D01*
X247001Y405999D01*
X244002Y406499D02*
Y404500D01*
X243002Y403500D01*
X242002Y404500D01*
Y406499D01*
X250000Y363500D02*
Y366499D01*
X248500D01*
X248001Y365999D01*
Y365000D01*
X248500Y364500D01*
X250000D01*
X249000D02*
X248001Y363500D01*
X245002Y366499D02*
X247001D01*
Y363500D01*
X245002D01*
X247001Y365000D02*
X246001D01*
X244002Y366499D02*
Y363500D01*
X242502D01*
X242003Y364000D01*
Y365999D01*
X242502Y366499D01*
X244002D01*
D40*
X78198Y363200D02*
X73200D01*
X75699D01*
Y366532D01*
X78198D01*
X73200D01*
X78198Y368198D02*
Y369865D01*
Y369031D01*
X73200D01*
Y368198D01*
Y369865D01*
X77365Y375696D02*
X78198Y374863D01*
Y373197D01*
X77365Y372364D01*
X74033D01*
X73200Y373197D01*
Y374863D01*
X74033Y375696D01*
X75699D01*
Y374030D01*
X78198Y377362D02*
X73200D01*
X75699D01*
Y380694D01*
X78198D01*
X73200D01*
X78198Y387359D02*
X74866D01*
X73200Y389025D01*
X74866Y390691D01*
X78198D01*
Y394856D02*
Y393190D01*
X77365Y392357D01*
X74033D01*
X73200Y393190D01*
Y394856D01*
X74033Y395690D01*
X77365D01*
X78198Y394856D01*
Y397356D02*
X73200D01*
Y400688D01*
X78198Y402354D02*
Y405686D01*
Y404020D01*
X73200D01*
Y407352D02*
X76532D01*
X78198Y409019D01*
X76532Y410685D01*
X73200D01*
X75699D01*
Y407352D01*
X77365Y415683D02*
X78198Y414850D01*
Y413184D01*
X77365Y412351D01*
X74033D01*
X73200Y413184D01*
Y414850D01*
X74033Y415683D01*
X75699D01*
Y414017D01*
X78198Y420681D02*
Y417349D01*
X73200D01*
Y420681D01*
X75699Y417349D02*
Y419015D01*
X279698Y364700D02*
X274700D01*
Y368032D01*
X279698Y372198D02*
Y370531D01*
X278865Y369698D01*
X275533D01*
X274700Y370531D01*
Y372198D01*
X275533Y373031D01*
X278865D01*
X279698Y372198D01*
Y374697D02*
X274700D01*
X276366Y376363D01*
X274700Y378029D01*
X279698D01*
Y384694D02*
X276366D01*
X274700Y386360D01*
X276366Y388026D01*
X279698D01*
Y392191D02*
Y390525D01*
X278865Y389692D01*
X275533D01*
X274700Y390525D01*
Y392191D01*
X275533Y393024D01*
X278865D01*
X279698Y392191D01*
Y394690D02*
X274700D01*
Y398023D01*
X279698Y399689D02*
Y403021D01*
Y401355D01*
X274700D01*
Y404687D02*
X278032D01*
X279698Y406353D01*
X278032Y408019D01*
X274700D01*
X277199D01*
Y404687D01*
X278865Y413018D02*
X279698Y412185D01*
Y410519D01*
X278865Y409685D01*
X275533D01*
X274700Y410519D01*
Y412185D01*
X275533Y413018D01*
X277199D01*
Y411352D01*
X279698Y418016D02*
Y414684D01*
X274700D01*
Y418016D01*
X277199Y414684D02*
Y416350D01*
D41*
X219500Y399998D02*
X214835D01*
X217167D01*
Y393000D01*
X207837Y398831D02*
X209003Y399998D01*
X211336D01*
X212502Y398831D01*
Y397665D01*
X211336Y396499D01*
X209003D01*
X207837Y395333D01*
Y394166D01*
X209003Y393000D01*
X211336D01*
X212502Y394166D01*
X205504Y393000D02*
Y397665D01*
X203172Y399998D01*
X200839Y397665D01*
Y393000D01*
Y396499D01*
X205504D01*
X198507Y399998D02*
Y393000D01*
X193842D01*
X179846Y398831D02*
X181012Y399998D01*
X183345D01*
X184511Y398831D01*
Y394166D01*
X183345Y393000D01*
X181012D01*
X179846Y394166D01*
X174015Y399998D02*
X176347D01*
X177514Y398831D01*
Y394166D01*
X176347Y393000D01*
X174015D01*
X172848Y394166D01*
Y398831D01*
X174015Y399998D01*
X170516Y393000D02*
Y399998D01*
X165851Y393000D01*
Y399998D01*
X163518D02*
X158853D01*
X161186D01*
Y393000D01*
X156520D02*
Y399998D01*
X153022D01*
X151855Y398831D01*
Y396499D01*
X153022Y395333D01*
X156520D01*
X154188D02*
X151855Y393000D01*
X146024Y399998D02*
X148356D01*
X149523Y398831D01*
Y394166D01*
X148356Y393000D01*
X146024D01*
X144857Y394166D01*
Y398831D01*
X146024Y399998D01*
X142525D02*
Y393000D01*
X137860D01*
M02*
