M48
;Layer_Color=9474304
;FILE_FORMAT=2:5
INCH,TZ
;TYPE=PLATED
T1F00S00C0.01575
T2F00S00C0.02800
T3F00S00C0.04000
T4F00S00C0.11811
;TYPE=NON_PLATED
T5F00S00C0.13780
%
T01
X148000Y373042
X149376Y420000
X169000Y398000
X169042Y378042
X169028Y373000
X169000Y363000
X185500Y377000
X182740Y383000
X203500Y391500
X219000Y381500
T02
X156500Y407000
X173500Y414500
X214000Y376000
T03
X106500Y372594
Y384405
X234181Y385000
Y396811
X246000
Y385000
Y373189
X234181
T04
X89500Y378500
X263000Y385000
T05
X220000Y413000
M30
