G04*
G04 #@! TF.GenerationSoftware,Altium Limited,Altium Designer,20.1.8 (145)*
G04*
G04 Layer_Color=8388736*
%FSLAX25Y25*%
%MOIN*%
G70*
G04*
G04 #@! TF.SameCoordinates,21E5CCAA-87AA-48E4-8A7B-6489D773F89B*
G04*
G04*
G04 #@! TF.FilePolarity,Negative*
G04*
G01*
G75*
%ADD14R,0.03800X0.04800*%
%ADD15R,0.03800X0.03800*%
%ADD16C,0.11811*%
%ADD17R,0.06312X0.03162*%
%ADD18R,0.05918X0.06706*%
%ADD19R,0.05500X0.07900*%
%ADD20R,0.06902X0.03162*%
%ADD21R,0.07900X0.05500*%
%ADD22R,0.04800X0.03800*%
%ADD23R,0.08674X0.03162*%
%ADD24C,0.08800*%
%ADD25C,0.13811*%
%ADD26C,0.20472*%
%ADD27C,0.03162*%
D14*
X208687Y419685D02*
D03*
X214935D02*
D03*
X229895Y409449D02*
D03*
X223648D02*
D03*
D15*
X101945Y416142D02*
D03*
X90945D02*
D03*
D16*
X284252Y420472D02*
D03*
X148819Y372835D02*
D03*
X184646Y368110D02*
D03*
D17*
X252362Y382677D02*
D03*
X261811Y386417D02*
D03*
Y378937D02*
D03*
X261811Y364343D02*
D03*
X261811Y371823D02*
D03*
X252362Y368083D02*
D03*
X261811Y393898D02*
D03*
Y401378D02*
D03*
X252362Y397638D02*
D03*
D18*
X144095Y404449D02*
D03*
Y414449D02*
D03*
X107874Y404449D02*
D03*
Y414449D02*
D03*
D19*
X224100Y419291D02*
D03*
X237317Y419291D02*
D03*
D20*
X194882Y402874D02*
D03*
Y407874D02*
D03*
Y412874D02*
D03*
Y417874D02*
D03*
X173622Y402874D02*
D03*
Y407874D02*
D03*
Y412874D02*
D03*
X173622Y417874D02*
D03*
D21*
X83071Y416451D02*
D03*
Y403234D02*
D03*
X163386Y379921D02*
D03*
Y366705D02*
D03*
D22*
X161811Y387821D02*
D03*
Y394069D02*
D03*
X163779Y402808D02*
D03*
Y409055D02*
D03*
X154724D02*
D03*
Y402808D02*
D03*
D23*
X209055Y364921D02*
D03*
Y369921D02*
D03*
Y374921D02*
D03*
Y379921D02*
D03*
Y384921D02*
D03*
Y389921D02*
D03*
Y394921D02*
D03*
Y399921D02*
D03*
X230315Y364921D02*
D03*
X230315Y369921D02*
D03*
Y374921D02*
D03*
X230315Y379921D02*
D03*
Y384921D02*
D03*
Y389921D02*
D03*
X230315Y394921D02*
D03*
Y399921D02*
D03*
D24*
X103220Y384646D02*
D03*
Y372835D02*
D03*
X287795Y374016D02*
D03*
X275976D02*
D03*
X275976Y385827D02*
D03*
X275976Y397638D02*
D03*
X287795Y385827D02*
D03*
X287795Y397638D02*
D03*
D25*
X86221Y378740D02*
D03*
X304795Y385827D02*
D03*
D26*
X259842Y417323D02*
D03*
D27*
X234763Y389891D02*
D03*
X234768Y375062D02*
D03*
X234878Y364924D02*
D03*
X229917Y412018D02*
D03*
X237495Y415075D02*
D03*
X144009Y400792D02*
D03*
X204331Y364961D02*
D03*
X218110Y405905D02*
D03*
X211417Y401575D02*
D03*
X191236Y402912D02*
D03*
X154724Y400787D02*
D03*
X163227Y363702D02*
D03*
M02*
