G04*
G04 #@! TF.GenerationSoftware,Altium Limited,Altium Designer,20.1.8 (145)*
G04*
G04 Layer_Color=65535*
%FSLAX25Y25*%
%MOIN*%
G70*
G04*
G04 #@! TF.SameCoordinates,21E5CCAA-87AA-48E4-8A7B-6489D773F89B*
G04*
G04*
G04 #@! TF.FilePolarity,Positive*
G04*
G01*
G75*
%ADD10C,0.00984*%
%ADD11C,0.01000*%
%ADD12C,0.00800*%
%ADD13C,0.00787*%
D10*
X108366Y419567D02*
X107628Y419993D01*
Y419141D01*
X108366Y419567D01*
D11*
X185502Y400374D02*
X185136Y401258D01*
X184252Y401624D01*
X183368Y401258D01*
X183002Y400374D01*
X217469Y400421D02*
X217139Y401330D01*
X216301Y401814D01*
X215348Y401646D01*
X214726Y400905D01*
Y399938D01*
X215348Y399197D01*
X216301Y399029D01*
X217139Y399512D01*
X217469Y400421D01*
X68221Y397740D02*
X107220D01*
X68221Y359740D02*
X107220D01*
X111721Y367118D02*
Y390740D01*
X68221Y359740D02*
Y397740D01*
X117913Y409547D02*
Y428445D01*
Y359547D02*
Y409547D01*
X130709Y393307D02*
X132283Y394882D01*
X130709Y396457D02*
X132283Y394882D01*
X119291D02*
X120866Y393307D01*
X119291Y394882D02*
X120866Y396457D01*
X119291Y394882D02*
X132283D01*
X133661Y409449D02*
Y428346D01*
Y359449D02*
Y409449D01*
X283795Y410827D02*
X322795Y410827D01*
X283795Y360827D02*
X322795Y360827D01*
X267795Y374016D02*
Y397638D01*
X322795Y360827D02*
Y410827D01*
X92445Y418642D02*
Y419642D01*
X100445Y419642D01*
Y418642D02*
Y419642D01*
Y412642D02*
X100445Y413642D01*
X92445Y412642D02*
X100445Y412642D01*
X92445Y412642D02*
Y413642D01*
X262598Y381102D02*
Y384252D01*
X251575Y388976D02*
X262598D01*
X251575Y385039D02*
Y388976D01*
Y376378D02*
X262598D01*
X251575D02*
Y380315D01*
X251575Y361784D02*
Y365721D01*
Y361784D02*
X262598D01*
X251575Y370445D02*
Y374382D01*
X262598Y374382D01*
Y366508D02*
Y369657D01*
X251575Y395276D02*
X251575Y391339D01*
X262598Y391339D01*
X251575Y400000D02*
Y403937D01*
X262598Y403937D01*
Y396063D02*
Y399213D01*
X185502Y400374D02*
X188331D01*
X180173D02*
X183002D01*
X180173D02*
X180173Y420374D01*
X188331D01*
X190382Y398374D02*
X190882Y398374D01*
X188331Y415374D02*
Y420374D01*
Y400374D02*
X188331Y405374D01*
X188331Y415374D02*
X188331Y405374D01*
X209555Y403421D02*
X230055Y403421D01*
Y402421D02*
Y403421D01*
X209555Y402421D02*
X209555Y403421D01*
X209555Y360421D02*
X230055Y360421D01*
X230055Y361421D01*
X209555Y360421D02*
Y361421D01*
X122684Y380921D02*
Y384920D01*
X120685Y382921D01*
X123351D01*
X124684Y380921D02*
Y383587D01*
X125350D01*
X126017Y382921D01*
Y380921D01*
Y382921D01*
X126683Y383587D01*
X127349Y382921D01*
Y380921D01*
X128682D02*
Y383587D01*
X129349D01*
X130015Y382921D01*
Y380921D01*
Y382921D01*
X130682Y383587D01*
X131348Y382921D01*
Y380921D01*
X120685Y391219D02*
X122018D01*
X121352D01*
Y387221D01*
X120685D01*
X122018D01*
X126683Y390553D02*
X126017Y391219D01*
X124684D01*
X124017Y390553D01*
Y389886D01*
X124684Y389220D01*
X126017D01*
X126683Y388553D01*
Y387887D01*
X126017Y387221D01*
X124684D01*
X124017Y387887D01*
X130015Y391219D02*
X128682D01*
X128016Y390553D01*
Y387887D01*
X128682Y387221D01*
X130015D01*
X130682Y387887D01*
Y390553D01*
X130015Y391219D01*
X170563Y399243D02*
Y395911D01*
X171229Y395245D01*
X172562D01*
X173228Y395911D01*
Y399243D01*
X174561Y395245D02*
X175894D01*
X175228D01*
Y399243D01*
X174561Y398577D01*
X99182Y400998D02*
X102514D01*
X103180Y401665D01*
Y402998D01*
X102514Y403664D01*
X99182D01*
X99848Y404997D02*
X99182Y405664D01*
Y406996D01*
X99848Y407663D01*
X100515D01*
X101181Y406996D01*
Y406330D01*
Y406996D01*
X101848Y407663D01*
X102514D01*
X103180Y406996D01*
Y405664D01*
X102514Y404997D01*
X240188Y368687D02*
X236856D01*
X236190Y368020D01*
Y366687D01*
X236856Y366021D01*
X240188D01*
X236190Y362022D02*
Y364688D01*
X238855Y362022D01*
X239522D01*
X240188Y362688D01*
Y364021D01*
X239522Y364688D01*
X208479Y410993D02*
Y414992D01*
X210478D01*
X211145Y414325D01*
Y412992D01*
X210478Y412326D01*
X208479D01*
X209812D02*
X211145Y410993D01*
X214477D02*
Y414992D01*
X212477Y412992D01*
X215143D01*
X75621Y412810D02*
X71623D01*
Y414809D01*
X72289Y415475D01*
X73622D01*
X74288Y414809D01*
Y412810D01*
Y414142D02*
X75621Y415475D01*
X72289Y416808D02*
X71623Y417475D01*
Y418808D01*
X72289Y419474D01*
X72956D01*
X73622Y418808D01*
Y418141D01*
Y418808D01*
X74288Y419474D01*
X74955D01*
X75621Y418808D01*
Y417475D01*
X74955Y416808D01*
X160447Y414168D02*
Y418167D01*
X162447D01*
X163113Y417501D01*
Y416168D01*
X162447Y415501D01*
X160447D01*
X161780D02*
X163113Y414168D01*
X167112D02*
X164446D01*
X167112Y416834D01*
Y417501D01*
X166445Y418167D01*
X165112D01*
X164446Y417501D01*
X166898Y390855D02*
X170897D01*
Y388855D01*
X170230Y388189D01*
X168898D01*
X168231Y388855D01*
Y390855D01*
Y389522D02*
X166898Y388189D01*
Y386856D02*
Y385523D01*
Y386190D01*
X170897D01*
X170230Y386856D01*
X246184Y361659D02*
Y364325D01*
X245517Y364991D01*
X244185D01*
X243518Y364325D01*
Y361659D01*
X244185Y360993D01*
X245517D01*
X244851Y362326D02*
X246184Y360993D01*
X245517D02*
X246184Y361659D01*
X247517Y364325D02*
X248183Y364991D01*
X249516D01*
X250183Y364325D01*
Y363659D01*
X249516Y362992D01*
X248850D01*
X249516D01*
X250183Y362326D01*
Y361659D01*
X249516Y360993D01*
X248183D01*
X247517Y361659D01*
X246184Y376620D02*
Y379286D01*
X245517Y379952D01*
X244185D01*
X243518Y379286D01*
Y376620D01*
X244185Y375953D01*
X245517D01*
X244851Y377286D02*
X246184Y375953D01*
X245517D02*
X246184Y376620D01*
X250183Y375953D02*
X247517D01*
X250183Y378619D01*
Y379286D01*
X249516Y379952D01*
X248183D01*
X247517Y379286D01*
X247244Y391187D02*
Y393853D01*
X246578Y394519D01*
X245245D01*
X244578Y393853D01*
Y391187D01*
X245245Y390520D01*
X246578D01*
X245911Y391853D02*
X247244Y390520D01*
X246578D02*
X247244Y391187D01*
X248577Y390520D02*
X249910D01*
X249243D01*
Y394519D01*
X248577Y393853D01*
X269381Y423591D02*
Y427590D01*
X270714Y426257D01*
X272047Y427590D01*
Y423591D01*
X273380D02*
X274713D01*
X274047D01*
Y427590D01*
X273380Y426924D01*
X194519Y394157D02*
X190520D01*
Y391492D01*
X194519Y390159D02*
X193853D01*
X192520Y388826D01*
X193853Y387493D01*
X194519D01*
X192520Y388826D02*
X190520D01*
X194519Y386160D02*
Y384827D01*
Y385493D01*
X190520D01*
Y386160D01*
Y384827D01*
X194519Y382828D02*
X190520D01*
Y380828D01*
X191187Y380162D01*
X193853D01*
X194519Y380828D01*
Y382828D01*
X190520Y378829D02*
Y377496D01*
Y378163D01*
X194519D01*
X193853Y378829D01*
X276105Y409480D02*
X274772D01*
X275439D01*
Y406147D01*
X274772Y405481D01*
X274106D01*
X273439Y406147D01*
X280104Y405481D02*
X277438D01*
X280104Y408147D01*
Y408813D01*
X279437Y409480D01*
X278105D01*
X277438Y408813D01*
X71260Y403574D02*
X69927D01*
X70593D01*
Y400242D01*
X69927Y399575D01*
X69261D01*
X68594Y400242D01*
X72593Y399575D02*
X73926D01*
X73259D01*
Y403574D01*
X72593Y402908D01*
X295668Y419716D02*
X293002D01*
Y417717D01*
X294335D01*
X293002D01*
Y415717D01*
X297001Y419716D02*
X298334D01*
X297667D01*
Y415717D01*
X297001D01*
X298334D01*
X300333Y419716D02*
Y415717D01*
X302333D01*
X302999Y416384D01*
Y419049D01*
X302333Y419716D01*
X300333D01*
X304332Y419049D02*
X304998Y419716D01*
X306331D01*
X306998Y419049D01*
Y418383D01*
X306331Y417717D01*
X305665D01*
X306331D01*
X306998Y417050D01*
Y416384D01*
X306331Y415717D01*
X304998D01*
X304332Y416384D01*
X196094Y372048D02*
Y374714D01*
X194095D01*
Y373381D01*
Y374714D01*
X192095D01*
X196094Y370716D02*
Y369383D01*
Y370049D01*
X192095D01*
Y370716D01*
Y369383D01*
X196094Y367383D02*
X192095D01*
Y365384D01*
X192762Y364718D01*
X195427D01*
X196094Y365384D01*
Y367383D01*
X192095Y360719D02*
Y363385D01*
X194761Y360719D01*
X195427D01*
X196094Y361385D01*
Y362718D01*
X195427Y363385D01*
X145941Y365385D02*
X143275D01*
Y363386D01*
X144608D01*
X143275D01*
Y361386D01*
X147274Y365385D02*
X148607D01*
X147940D01*
Y361386D01*
X147274D01*
X148607D01*
X150606Y365385D02*
Y361386D01*
X152605D01*
X153272Y362053D01*
Y364719D01*
X152605Y365385D01*
X150606D01*
X154605Y361386D02*
X155938D01*
X155271D01*
Y365385D01*
X154605Y364719D01*
X91035Y411055D02*
Y407056D01*
X93034D01*
X93701Y407722D01*
Y410388D01*
X93034Y411055D01*
X91035D01*
X95034Y407056D02*
X96367D01*
X95700D01*
Y411055D01*
X95034Y410388D01*
X237916Y410782D02*
X237250Y411448D01*
X235917D01*
X235250Y410782D01*
Y408116D01*
X235917Y407449D01*
X237250D01*
X237916Y408116D01*
X241248Y407449D02*
Y411448D01*
X239249Y409449D01*
X241915D01*
X246215Y420352D02*
X246881Y421018D01*
Y422351D01*
X246215Y423017D01*
X243549D01*
X242882Y422351D01*
Y421018D01*
X243549Y420352D01*
X246215Y419019D02*
X246881Y418352D01*
Y417019D01*
X246215Y416353D01*
X245548D01*
X244882Y417019D01*
Y417686D01*
Y417019D01*
X244215Y416353D01*
X243549D01*
X242882Y417019D01*
Y418352D01*
X243549Y419019D01*
X173380Y374289D02*
X174047Y374955D01*
Y376288D01*
X173380Y376954D01*
X170714D01*
X170048Y376288D01*
Y374955D01*
X170714Y374289D01*
X170048Y370290D02*
Y372956D01*
X172714Y370290D01*
X173380D01*
X174047Y370956D01*
Y372289D01*
X173380Y372956D01*
X154724Y417527D02*
X154058Y418193D01*
X152725D01*
X152059Y417527D01*
Y414861D01*
X152725Y414194D01*
X154058D01*
X154724Y414861D01*
X156057Y414194D02*
X157390D01*
X156724D01*
Y418193D01*
X156057Y417527D01*
D12*
X217811Y416685D02*
Y422685D01*
X205811Y416685D02*
X205811Y422685D01*
X212811Y416685D02*
X217811D01*
X205811D02*
X210811D01*
X212811Y422685D02*
X217811D01*
X205811D02*
X210811D01*
X234209Y414791D02*
X240709Y414791D01*
X220709Y414791D02*
X227209Y414791D01*
X234209Y423791D02*
X240709Y423791D01*
X220709Y423791D02*
X227209Y423791D01*
X240709Y414791D02*
Y423791D01*
X220709Y414791D02*
Y423791D01*
X220772Y406449D02*
Y412449D01*
X232772Y406449D02*
Y412449D01*
X220772D02*
X225772D01*
X227772D02*
X232772D01*
X220772Y406449D02*
X225772Y406449D01*
X227772D02*
X232772Y406449D01*
X78571Y399843D02*
X87571D01*
X78571Y419842D02*
X87571D01*
X78571Y399843D02*
Y406343D01*
Y413343D02*
Y419842D01*
X87571Y399843D02*
Y406343D01*
Y413343D02*
Y419842D01*
X158886Y363313D02*
Y369813D01*
Y376813D02*
Y383313D01*
X167886Y363313D02*
Y369813D01*
Y376813D02*
Y383313D01*
X158886Y363313D02*
X167886D01*
X158886Y383313D02*
X167886D01*
X164811Y391945D02*
Y396945D01*
Y384945D02*
Y389945D01*
X158811Y391945D02*
Y396945D01*
Y384945D02*
Y389945D01*
Y396945D02*
X164811D01*
X158811Y384945D02*
X164811D01*
X166779Y406931D02*
Y411932D01*
Y399932D02*
Y404931D01*
X160780Y406931D02*
Y411932D01*
Y399932D02*
Y404931D01*
Y411932D02*
X166779D01*
X160780Y399932D02*
X166779D01*
X151724D02*
Y404931D01*
Y406931D02*
Y411932D01*
X157724Y399932D02*
Y404931D01*
Y406931D02*
Y411932D01*
X151724Y399932D02*
X157724D01*
X151724Y411932D02*
X157724D01*
D13*
X113189Y400394D02*
X138779D01*
X113189Y418504D02*
X138779D01*
Y400394D02*
Y418504D01*
X113189Y400394D02*
Y418504D01*
M02*
