G04*
G04 #@! TF.GenerationSoftware,Altium Limited,Altium Designer,20.1.8 (145)*
G04*
G04 Layer_Physical_Order=2*
G04 Layer_Color=16711680*
%FSLAX25Y25*%
%MOIN*%
G70*
G04*
G04 #@! TF.SameCoordinates,1964C53A-2E70-4359-B946-7E1BDDE66412*
G04*
G04*
G04 #@! TF.FilePolarity,Positive*
G04*
G01*
G75*
%ADD11C,0.01000*%
%ADD31C,0.03937*%
%ADD36C,0.08000*%
%ADD37C,0.02362*%
G36*
X298425Y358268D02*
X109449D01*
Y452756D01*
X298425D01*
Y358268D01*
D02*
G37*
%LPC*%
G36*
X219557Y448103D02*
Y446478D01*
X221182D01*
X221112Y446829D01*
X220630Y447551D01*
X219908Y448033D01*
X219557Y448103D01*
D02*
G37*
G36*
X218557D02*
X218206Y448033D01*
X217485Y447551D01*
X217003Y446829D01*
X216933Y446478D01*
X218557D01*
Y448103D01*
D02*
G37*
G36*
X221182Y445478D02*
X219557D01*
Y443854D01*
X219908Y443924D01*
X220630Y444406D01*
X221112Y445127D01*
X221182Y445478D01*
D02*
G37*
G36*
X218557D02*
X216933D01*
X217003Y445127D01*
X217485Y444406D01*
X218206Y443924D01*
X218557Y443854D01*
Y445478D01*
D02*
G37*
G36*
X265070Y444159D02*
Y442535D01*
X266695D01*
X266625Y442886D01*
X266143Y443608D01*
X265422Y444090D01*
X265070Y444159D01*
D02*
G37*
G36*
X264070D02*
X263719Y444090D01*
X262998Y443608D01*
X262516Y442886D01*
X262446Y442535D01*
X264070D01*
Y444159D01*
D02*
G37*
G36*
X255009Y444100D02*
Y442476D01*
X256633D01*
X256563Y442827D01*
X256081Y443548D01*
X255360Y444031D01*
X255009Y444100D01*
D02*
G37*
G36*
X254009D02*
X253658Y444031D01*
X252936Y443548D01*
X252454Y442827D01*
X252384Y442476D01*
X254009D01*
Y444100D01*
D02*
G37*
G36*
X240023Y444048D02*
Y442424D01*
X241648D01*
X241578Y442775D01*
X241096Y443497D01*
X240374Y443979D01*
X240023Y444048D01*
D02*
G37*
G36*
X239023D02*
X238672Y443979D01*
X237951Y443497D01*
X237469Y442775D01*
X237399Y442424D01*
X239023D01*
Y444048D01*
D02*
G37*
G36*
X266695Y441535D02*
X265070D01*
Y439911D01*
X265422Y439981D01*
X266143Y440462D01*
X266625Y441184D01*
X266695Y441535D01*
D02*
G37*
G36*
X264070D02*
X262446D01*
X262516Y441184D01*
X262998Y440462D01*
X263719Y439981D01*
X264070Y439911D01*
Y441535D01*
D02*
G37*
G36*
X256633Y441476D02*
X255009D01*
Y439852D01*
X255360Y439922D01*
X256081Y440404D01*
X256563Y441125D01*
X256633Y441476D01*
D02*
G37*
G36*
X254009D02*
X252384D01*
X252454Y441125D01*
X252936Y440404D01*
X253658Y439922D01*
X254009Y439852D01*
Y441476D01*
D02*
G37*
G36*
X241648Y441424D02*
X240023D01*
Y439800D01*
X240374Y439869D01*
X241096Y440351D01*
X241578Y441073D01*
X241648Y441424D01*
D02*
G37*
G36*
X239023D02*
X237399D01*
X237469Y441073D01*
X237951Y440351D01*
X238672Y439869D01*
X239023Y439800D01*
Y441424D01*
D02*
G37*
G36*
X284252Y452230D02*
X282487Y452091D01*
X280765Y451677D01*
X279129Y451000D01*
X277619Y450074D01*
X276272Y448924D01*
X275122Y447578D01*
X274197Y446068D01*
X273519Y444432D01*
X273106Y442710D01*
X272967Y440945D01*
X273106Y439180D01*
X273519Y437458D01*
X274197Y435822D01*
X275122Y434312D01*
X276272Y432965D01*
X277619Y431815D01*
X279129Y430890D01*
X280765Y430212D01*
X282487Y429799D01*
X284252Y429660D01*
X286017Y429799D01*
X287739Y430212D01*
X289375Y430890D01*
X290885Y431815D01*
X292231Y432965D01*
X293382Y434312D01*
X294307Y435822D01*
X294984Y437458D01*
X295398Y439180D01*
X295537Y440945D01*
X295398Y442710D01*
X294984Y444432D01*
X294307Y446068D01*
X293382Y447578D01*
X292231Y448924D01*
X290885Y450074D01*
X289375Y451000D01*
X287739Y451677D01*
X286017Y452091D01*
X284252Y452230D01*
D02*
G37*
G36*
X197364Y429557D02*
Y427933D01*
X198988D01*
X198919Y428284D01*
X198437Y429005D01*
X197715Y429487D01*
X197364Y429557D01*
D02*
G37*
G36*
X196364D02*
X196013Y429487D01*
X195292Y429005D01*
X194810Y428284D01*
X194740Y427933D01*
X196364D01*
Y429557D01*
D02*
G37*
G36*
X198988Y426932D02*
X197364D01*
Y425308D01*
X197715Y425378D01*
X198437Y425860D01*
X198919Y426581D01*
X198988Y426932D01*
D02*
G37*
G36*
X196364D02*
X194740D01*
X194810Y426581D01*
X195292Y425860D01*
X196013Y425378D01*
X196364Y425308D01*
Y426932D01*
D02*
G37*
G36*
X265164Y422799D02*
Y421175D01*
X266789D01*
X266719Y421526D01*
X266237Y422247D01*
X265515Y422729D01*
X265164Y422799D01*
D02*
G37*
G36*
X264164D02*
X263813Y422729D01*
X263092Y422247D01*
X262610Y421526D01*
X262540Y421175D01*
X264164D01*
Y422799D01*
D02*
G37*
G36*
X266789Y420175D02*
X265164D01*
Y418550D01*
X265515Y418620D01*
X266237Y419102D01*
X266719Y419824D01*
X266789Y420175D01*
D02*
G37*
G36*
X264164D02*
X262540D01*
X262610Y419824D01*
X263092Y419102D01*
X263813Y418620D01*
X264164Y418550D01*
Y420175D01*
D02*
G37*
G36*
X246781Y425151D02*
X202061D01*
X201476Y425035D01*
X200979Y424704D01*
X191416Y415140D01*
X191365Y415150D01*
X190514Y414981D01*
X189792Y414499D01*
X189310Y413777D01*
X189141Y412926D01*
X189310Y412075D01*
X189792Y411353D01*
X190514Y410872D01*
X191365Y410702D01*
X192216Y410872D01*
X192937Y411353D01*
X193419Y412075D01*
X193589Y412926D01*
X193579Y412977D01*
X202694Y422093D01*
X227298D01*
X227502Y421710D01*
X227512Y421593D01*
X227351Y420781D01*
X227520Y419930D01*
X228002Y419208D01*
X228045Y419179D01*
Y415237D01*
X228162Y414651D01*
X228493Y414155D01*
X238382Y404266D01*
X237971Y403274D01*
X237799Y401968D01*
X237971Y400663D01*
X238475Y399447D01*
X239277Y398403D01*
X240321Y397601D01*
X241537Y397097D01*
X242843Y396925D01*
X244148Y397097D01*
X245364Y397601D01*
X246409Y398403D01*
X247210Y399447D01*
X247714Y400663D01*
X247886Y401968D01*
X247714Y403274D01*
X247210Y404490D01*
X246409Y405535D01*
X245364Y406336D01*
X244148Y406840D01*
X242843Y407012D01*
X241537Y406840D01*
X240545Y406429D01*
X231104Y415870D01*
Y419179D01*
X231147Y419208D01*
X231629Y419930D01*
X231798Y420781D01*
X231637Y421593D01*
X231647Y421710D01*
X231851Y422093D01*
X232385D01*
X232621Y421652D01*
X232469Y421424D01*
X232300Y420573D01*
X232469Y419722D01*
X232951Y419001D01*
X233672Y418519D01*
X234523Y418349D01*
X235374Y418519D01*
X236096Y419001D01*
X236125Y419044D01*
X240942D01*
X242924Y417062D01*
X243420Y416731D01*
X244005Y416614D01*
X257036D01*
X257622Y416731D01*
X258118Y417062D01*
X259466Y418411D01*
X259517Y418400D01*
X260368Y418570D01*
X261090Y419052D01*
X261572Y419773D01*
X261741Y420624D01*
X261572Y421475D01*
X261090Y422197D01*
X260368Y422679D01*
X259517Y422848D01*
X258666Y422679D01*
X257945Y422197D01*
X257463Y421475D01*
X257293Y420624D01*
X257303Y420574D01*
X256403Y419673D01*
X251988D01*
X251673Y420173D01*
X251802Y420825D01*
X251633Y421676D01*
X251151Y422397D01*
X250429Y422879D01*
X249578Y423049D01*
X249528Y423038D01*
X247863Y424704D01*
X247366Y425035D01*
X246781Y425151D01*
D02*
G37*
G36*
X122047Y452230D02*
X120282Y452091D01*
X118560Y451677D01*
X116924Y451000D01*
X115414Y450074D01*
X114068Y448924D01*
X112918Y447578D01*
X111992Y446068D01*
X111315Y444432D01*
X110901Y442710D01*
X110762Y440945D01*
X110901Y439180D01*
X111315Y437458D01*
X111992Y435822D01*
X112918Y434312D01*
X114068Y432965D01*
X115414Y431815D01*
X116924Y430890D01*
X118560Y430212D01*
X119925Y429885D01*
X119891Y429379D01*
X119494Y429340D01*
X118174Y428939D01*
X116958Y428289D01*
X115892Y427415D01*
X115018Y426349D01*
X114368Y425133D01*
X113967Y423813D01*
X113832Y422441D01*
X113967Y421069D01*
X114368Y419749D01*
X115018Y418533D01*
X115892Y417467D01*
X116958Y416593D01*
X118174Y415942D01*
X119494Y415542D01*
X120866Y415407D01*
X122238Y415542D01*
X123558Y415942D01*
X124774Y416593D01*
X125840Y417467D01*
X126715Y418533D01*
X127365Y419749D01*
X127765Y421069D01*
X127900Y422441D01*
X127765Y423813D01*
X127365Y425133D01*
X126715Y426349D01*
X125840Y427415D01*
X124774Y428289D01*
X123558Y428939D01*
X122673Y429208D01*
X122728Y429714D01*
X123813Y429799D01*
X125534Y430212D01*
X127170Y430890D01*
X128680Y431815D01*
X130027Y432965D01*
X131177Y434312D01*
X132102Y435822D01*
X132780Y437458D01*
X133193Y439180D01*
X133332Y440945D01*
X133193Y442710D01*
X132780Y444432D01*
X132102Y446068D01*
X131177Y447578D01*
X130027Y448924D01*
X128680Y450074D01*
X127170Y451000D01*
X125534Y451677D01*
X123813Y452091D01*
X122047Y452230D01*
D02*
G37*
G36*
X210846Y416287D02*
Y414663D01*
X212470D01*
X212400Y415014D01*
X211918Y415735D01*
X211197Y416217D01*
X210846Y416287D01*
D02*
G37*
G36*
X209846D02*
X209495Y416217D01*
X208773Y415735D01*
X208291Y415014D01*
X208222Y414663D01*
X209846D01*
Y416287D01*
D02*
G37*
G36*
X212470Y413663D02*
X210846D01*
Y412038D01*
X211197Y412108D01*
X211918Y412590D01*
X212400Y413312D01*
X212470Y413663D01*
D02*
G37*
G36*
X209846D02*
X208222D01*
X208291Y413312D01*
X208773Y412590D01*
X209495Y412108D01*
X209846Y412038D01*
Y413663D01*
D02*
G37*
G36*
X287008Y421994D02*
X285636Y421859D01*
X284316Y421459D01*
X283100Y420809D01*
X282034Y419934D01*
X281159Y418868D01*
X280509Y417652D01*
X280109Y416333D01*
X279974Y414961D01*
X280109Y413588D01*
X280509Y412269D01*
X281159Y411053D01*
X282034Y409987D01*
X283100Y409112D01*
X284316Y408462D01*
X285636Y408062D01*
X287008Y407927D01*
X288380Y408062D01*
X289700Y408462D01*
X290916Y409112D01*
X291982Y409987D01*
X292856Y411053D01*
X293506Y412269D01*
X293907Y413588D01*
X294042Y414961D01*
X293907Y416333D01*
X293506Y417652D01*
X292856Y418868D01*
X291982Y419934D01*
X290916Y420809D01*
X289700Y421459D01*
X288380Y421859D01*
X287008Y421994D01*
D02*
G37*
G36*
X191736Y405036D02*
Y403412D01*
X193360D01*
X193290Y403763D01*
X192808Y404484D01*
X192087Y404966D01*
X191736Y405036D01*
D02*
G37*
G36*
X190736D02*
X190385Y404966D01*
X189663Y404484D01*
X189181Y403763D01*
X189112Y403412D01*
X190736D01*
Y405036D01*
D02*
G37*
G36*
X231524Y406946D02*
Y402468D01*
X236001D01*
X235895Y403274D01*
X235391Y404490D01*
X234590Y405535D01*
X233545Y406336D01*
X232329Y406840D01*
X231524Y406946D01*
D02*
G37*
G36*
X230524Y406946D02*
X229718Y406840D01*
X228502Y406336D01*
X227458Y405535D01*
X226656Y404490D01*
X226152Y403274D01*
X226046Y402468D01*
X230524D01*
Y406946D01*
D02*
G37*
G36*
X155224Y402912D02*
Y401287D01*
X156849D01*
X156779Y401638D01*
X156297Y402360D01*
X155575Y402842D01*
X155224Y402912D01*
D02*
G37*
G36*
X154224D02*
X153873Y402842D01*
X153152Y402360D01*
X152670Y401638D01*
X152600Y401287D01*
X154224D01*
Y402912D01*
D02*
G37*
G36*
X193360Y402412D02*
X191736D01*
Y400787D01*
X192087Y400857D01*
X192808Y401339D01*
X193290Y402061D01*
X193360Y402412D01*
D02*
G37*
G36*
X190736D02*
X189112D01*
X189181Y402061D01*
X189663Y401339D01*
X190385Y400857D01*
X190736Y400787D01*
Y402412D01*
D02*
G37*
G36*
X156849Y400287D02*
X155224D01*
Y398663D01*
X155575Y398733D01*
X156297Y399215D01*
X156779Y399936D01*
X156849Y400287D01*
D02*
G37*
G36*
X154224D02*
X152600D01*
X152670Y399936D01*
X153152Y399215D01*
X153873Y398733D01*
X154224Y398663D01*
Y400287D01*
D02*
G37*
G36*
X230524Y401469D02*
X226046D01*
X226152Y400663D01*
X226656Y399447D01*
X227458Y398403D01*
X228502Y397601D01*
X229718Y397097D01*
X230524Y396991D01*
Y401469D01*
D02*
G37*
G36*
X236001D02*
X231524D01*
Y396991D01*
X232329Y397097D01*
X233545Y397601D01*
X234590Y398403D01*
X235391Y399447D01*
X235895Y400663D01*
X236001Y401469D01*
D02*
G37*
G36*
X242843Y395201D02*
X241537Y395029D01*
X240321Y394525D01*
X239277Y393724D01*
X238475Y392679D01*
X237971Y391463D01*
X237799Y390158D01*
X237971Y388852D01*
X238475Y387636D01*
X239277Y386591D01*
X240321Y385790D01*
X241537Y385286D01*
X242843Y385114D01*
X244148Y385286D01*
X245364Y385790D01*
X246409Y386591D01*
X247210Y387636D01*
X247714Y388852D01*
X247886Y390158D01*
X247714Y391463D01*
X247210Y392679D01*
X246409Y393724D01*
X245364Y394525D01*
X244148Y395029D01*
X242843Y395201D01*
D02*
G37*
G36*
X231024D02*
X229718Y395029D01*
X228502Y394525D01*
X227458Y393724D01*
X226656Y392679D01*
X226152Y391463D01*
X225980Y390158D01*
X226152Y388852D01*
X226656Y387636D01*
X227458Y386591D01*
X228502Y385790D01*
X229718Y385286D01*
X231024Y385114D01*
X232329Y385286D01*
X233545Y385790D01*
X234590Y386591D01*
X235391Y387636D01*
X235895Y388852D01*
X236067Y390158D01*
X235895Y391463D01*
X235391Y392679D01*
X234590Y393724D01*
X233545Y394525D01*
X232329Y395029D01*
X231024Y395201D01*
D02*
G37*
G36*
X259842Y397096D02*
X258489Y396963D01*
X257187Y396568D01*
X255988Y395927D01*
X254936Y395064D01*
X254073Y394012D01*
X253432Y392813D01*
X253037Y391511D01*
X252904Y390158D01*
X253037Y388804D01*
X253432Y387502D01*
X254073Y386302D01*
X254936Y385251D01*
X255988Y384388D01*
X257187Y383747D01*
X258489Y383352D01*
X259842Y383219D01*
X261196Y383352D01*
X262498Y383747D01*
X263698Y384388D01*
X264749Y385251D01*
X265612Y386302D01*
X266253Y387502D01*
X266648Y388804D01*
X266781Y390158D01*
X266648Y391511D01*
X266253Y392813D01*
X265612Y394012D01*
X264749Y395064D01*
X263698Y395927D01*
X262498Y396568D01*
X261196Y396963D01*
X259842Y397096D01*
D02*
G37*
G36*
X146921Y390870D02*
X145616Y390698D01*
X144400Y390194D01*
X143355Y389393D01*
X142554Y388348D01*
X142050Y387132D01*
X141878Y385827D01*
X142050Y384522D01*
X142554Y383305D01*
X143355Y382261D01*
X144400Y381459D01*
X145616Y380956D01*
X146921Y380784D01*
X148226Y380956D01*
X149443Y381459D01*
X150487Y382261D01*
X151289Y383305D01*
X151793Y384522D01*
X151964Y385827D01*
X151793Y387132D01*
X151289Y388348D01*
X150487Y389393D01*
X149443Y390194D01*
X148226Y390698D01*
X146921Y390870D01*
D02*
G37*
G36*
X188858Y394827D02*
X178858D01*
Y385327D01*
X178858D01*
Y377328D01*
X178858D01*
Y376827D01*
X188858D01*
Y394827D01*
D02*
G37*
G36*
X242843Y383390D02*
X241537Y383218D01*
X240321Y382714D01*
X239277Y381912D01*
X238475Y380868D01*
X237971Y379652D01*
X237799Y378346D01*
X237971Y377041D01*
X238475Y375825D01*
X239277Y374780D01*
X240321Y373979D01*
X241537Y373475D01*
X242843Y373303D01*
X244148Y373475D01*
X245364Y373979D01*
X246409Y374780D01*
X247210Y375825D01*
X247714Y377041D01*
X247886Y378346D01*
X247714Y379652D01*
X247210Y380868D01*
X246409Y381912D01*
X245364Y382714D01*
X244148Y383218D01*
X242843Y383390D01*
D02*
G37*
G36*
X231024D02*
X229718Y383218D01*
X228502Y382714D01*
X227458Y381912D01*
X226656Y380868D01*
X226152Y379652D01*
X225980Y378346D01*
X226152Y377041D01*
X226656Y375825D01*
X227458Y374780D01*
X228502Y373979D01*
X229718Y373475D01*
X231024Y373303D01*
X232329Y373475D01*
X233545Y373979D01*
X234590Y374780D01*
X235391Y375825D01*
X235895Y377041D01*
X236067Y378346D01*
X235895Y379652D01*
X235391Y380868D01*
X234590Y381912D01*
X233545Y382714D01*
X232329Y383218D01*
X231024Y383390D01*
D02*
G37*
G36*
X129921Y386860D02*
X128568Y386727D01*
X127266Y386332D01*
X126066Y385691D01*
X125015Y384828D01*
X124152Y383776D01*
X123511Y382577D01*
X123116Y381275D01*
X122982Y379921D01*
X123116Y378568D01*
X123511Y377266D01*
X124152Y376066D01*
X125015Y375015D01*
X126066Y374152D01*
X127266Y373511D01*
X128568Y373116D01*
X129921Y372982D01*
X131275Y373116D01*
X132577Y373511D01*
X133776Y374152D01*
X134828Y375015D01*
X135691Y376066D01*
X136332Y377266D01*
X136727Y378568D01*
X136860Y379921D01*
X136727Y381275D01*
X136332Y382577D01*
X135691Y383776D01*
X134828Y384828D01*
X133776Y385691D01*
X132577Y386332D01*
X131275Y386727D01*
X129921Y386860D01*
D02*
G37*
G36*
X146921Y379059D02*
X145616Y378887D01*
X144400Y378383D01*
X143355Y377582D01*
X142554Y376537D01*
X142050Y375321D01*
X141878Y374016D01*
X142050Y372710D01*
X142554Y371494D01*
X143355Y370450D01*
X144400Y369648D01*
X145616Y369145D01*
X146921Y368973D01*
X148226Y369145D01*
X149443Y369648D01*
X150487Y370450D01*
X151289Y371494D01*
X151793Y372710D01*
X151964Y374016D01*
X151793Y375321D01*
X151289Y376537D01*
X150487Y377582D01*
X149443Y378383D01*
X148226Y378887D01*
X146921Y379059D01*
D02*
G37*
G36*
X163727Y365827D02*
Y364202D01*
X165351D01*
X165282Y364553D01*
X164800Y365275D01*
X164078Y365757D01*
X163727Y365827D01*
D02*
G37*
G36*
X162727D02*
X162376Y365757D01*
X161655Y365275D01*
X161172Y364553D01*
X161103Y364202D01*
X162727D01*
Y365827D01*
D02*
G37*
G36*
X165351Y363202D02*
X163727D01*
Y361578D01*
X164078Y361648D01*
X164800Y362130D01*
X165282Y362851D01*
X165351Y363202D01*
D02*
G37*
G36*
X162727D02*
X161103D01*
X161172Y362851D01*
X161655Y362130D01*
X162376Y361648D01*
X162727Y361578D01*
Y363202D01*
D02*
G37*
G36*
X184646Y375144D02*
X183273Y375009D01*
X181954Y374609D01*
X180738Y373959D01*
X179672Y373084D01*
X178797Y372018D01*
X178147Y370802D01*
X177747Y369482D01*
X177612Y368110D01*
X177747Y366738D01*
X178147Y365419D01*
X178797Y364202D01*
X179672Y363137D01*
X180738Y362262D01*
X181954Y361612D01*
X183273Y361211D01*
X184646Y361076D01*
X186018Y361211D01*
X187337Y361612D01*
X188554Y362262D01*
X189619Y363137D01*
X190494Y364202D01*
X191144Y365419D01*
X191544Y366738D01*
X191680Y368110D01*
X191544Y369482D01*
X191144Y370802D01*
X190494Y372018D01*
X189619Y373084D01*
X188554Y373959D01*
X187337Y374609D01*
X186018Y375009D01*
X184646Y375144D01*
D02*
G37*
%LPD*%
D11*
X191365Y412926D02*
X202061Y423622D01*
X246781D02*
X249578Y420825D01*
X202061Y423622D02*
X246781D01*
X229574Y415237D02*
X242843Y401968D01*
X234523Y420573D02*
X241576D01*
X244005Y418144D01*
X229574Y415237D02*
Y420781D01*
X244005Y418144D02*
X257036D01*
X259517Y420624D01*
X180858Y379328D02*
Y383327D01*
X184857Y379328D01*
X185857D01*
X186856Y380328D01*
Y382327D01*
X185857Y383327D01*
D31*
X287008Y414961D02*
D03*
X120866Y422441D02*
D03*
X184646Y368110D02*
D03*
D36*
X242843Y401968D02*
D03*
X242843Y390158D02*
D03*
X231024Y401968D02*
D03*
X231024Y390158D02*
D03*
X231024Y378346D02*
D03*
X242843D02*
D03*
X146921Y374016D02*
D03*
Y385827D02*
D03*
D37*
X254509Y441976D02*
D03*
X219057Y445978D02*
D03*
X210346Y414163D02*
D03*
X264665Y420675D02*
D03*
X264570Y442035D02*
D03*
X239524Y441924D02*
D03*
X163227Y363702D02*
D03*
X191236Y402912D02*
D03*
X234523Y420573D02*
D03*
X229574Y420781D02*
D03*
X191365Y412926D02*
D03*
X249578Y420825D02*
D03*
X259517Y420624D02*
D03*
X154724Y400787D02*
D03*
X196864Y427432D02*
D03*
M02*
