G04*
G04 #@! TF.GenerationSoftware,Altium Limited,Altium Designer,20.1.8 (145)*
G04*
G04 Layer_Color=16711935*
%FSLAX25Y25*%
%MOIN*%
G70*
G04*
G04 #@! TF.SameCoordinates,21E5CCAA-87AA-48E4-8A7B-6489D773F89B*
G04*
G04*
G04 #@! TF.FilePolarity,Positive*
G04*
G01*
G75*
%ADD41C,0.10500*%
%ADD42C,0.06000*%
D41*
X264843Y417323D02*
X264740Y418329D01*
X264437Y419295D01*
X263946Y420179D01*
X263287Y420947D01*
X262487Y421566D01*
X261579Y422012D01*
X260600Y422265D01*
X259589Y422316D01*
X258589Y422163D01*
X257641Y421812D01*
X256782Y421277D01*
X256049Y420580D01*
X255471Y419749D01*
X255072Y418820D01*
X254868Y417829D01*
Y416817D01*
X255072Y415826D01*
X255471Y414896D01*
X256049Y414066D01*
X256782Y413369D01*
X257641Y412834D01*
X258589Y412482D01*
X259589Y412329D01*
X260600Y412381D01*
X261579Y412634D01*
X262487Y413080D01*
X263287Y413699D01*
X263946Y414466D01*
X264437Y415351D01*
X264740Y416316D01*
X264843Y417323D01*
D42*
X287252Y420472D02*
X287089Y421447D01*
X286619Y422315D01*
X285893Y422984D01*
X284988Y423381D01*
X284004Y423462D01*
X283047Y423220D01*
X282220Y422680D01*
X281613Y421900D01*
X281293Y420966D01*
Y419979D01*
X281613Y419045D01*
X282220Y418265D01*
X283047Y417725D01*
X284004Y417483D01*
X284988Y417564D01*
X285893Y417961D01*
X286619Y418630D01*
X287089Y419498D01*
X287252Y420472D01*
X151819Y372835D02*
X151656Y373809D01*
X151186Y374677D01*
X150460Y375346D01*
X149555Y375743D01*
X148571Y375824D01*
X147614Y375582D01*
X146787Y375042D01*
X146180Y374262D01*
X145860Y373328D01*
Y372341D01*
X146180Y371407D01*
X146787Y370627D01*
X147614Y370087D01*
X148571Y369845D01*
X149555Y369927D01*
X150460Y370323D01*
X151186Y370992D01*
X151656Y371861D01*
X151819Y372835D01*
X187646Y368110D02*
X187483Y369084D01*
X187013Y369953D01*
X186286Y370622D01*
X185382Y371018D01*
X184398Y371100D01*
X183441Y370858D01*
X182614Y370317D01*
X182007Y369538D01*
X181687Y368604D01*
Y367616D01*
X182007Y366682D01*
X182614Y365903D01*
X183441Y365363D01*
X184398Y365121D01*
X185382Y365202D01*
X186286Y365599D01*
X187013Y366268D01*
X187483Y367136D01*
X187646Y368110D01*
M02*
