G04*
G04 #@! TF.GenerationSoftware,Altium Limited,Altium Designer,20.1.14 (287)*
G04*
G04 Layer_Color=8388736*
%FSLAX25Y25*%
%MOIN*%
G70*
G04*
G04 #@! TF.SameCoordinates,4FB9827E-06E0-404B-8E69-8936AD8A3D5E*
G04*
G04*
G04 #@! TF.FilePolarity,Negative*
G04*
G01*
G75*
%ADD14R,0.03162X0.06312*%
%ADD15R,0.05918X0.06706*%
%ADD16R,0.05500X0.07900*%
%ADD17R,0.04800X0.03800*%
%ADD18R,0.06902X0.03162*%
%ADD19R,0.03800X0.04800*%
%ADD20R,0.08674X0.03162*%
%ADD21R,0.07900X0.05500*%
%ADD22R,0.03800X0.03800*%
%ADD23C,0.20472*%
%ADD24C,0.13811*%
%ADD25C,0.08800*%
G36*
X135000Y358500D02*
X115000D01*
Y424500D01*
X135000D01*
Y358500D01*
D02*
G37*
D14*
X204000Y400224D02*
D03*
X207740Y390776D02*
D03*
X200260D02*
D03*
X187760D02*
D03*
X195240D02*
D03*
X191500Y400224D02*
D03*
X179000D02*
D03*
X182740Y390776D02*
D03*
X175260D02*
D03*
D15*
X143110Y407000D02*
D03*
Y417000D02*
D03*
X106890Y407000D02*
D03*
Y417000D02*
D03*
D16*
X80392Y407500D02*
D03*
X93608D02*
D03*
X163108Y407000D02*
D03*
X149892D02*
D03*
D17*
X214000Y364876D02*
D03*
Y371124D02*
D03*
X208000D02*
D03*
Y364876D02*
D03*
D18*
X179500Y377000D02*
D03*
Y372000D02*
D03*
Y367000D02*
D03*
Y362000D02*
D03*
X200760Y377000D02*
D03*
Y372000D02*
D03*
Y367000D02*
D03*
Y362000D02*
D03*
D19*
X200876Y383000D02*
D03*
X207124D02*
D03*
X161376Y414500D02*
D03*
X167624D02*
D03*
X155624D02*
D03*
X149376D02*
D03*
D20*
X141000Y363000D02*
D03*
Y368000D02*
D03*
Y373000D02*
D03*
Y378000D02*
D03*
Y383000D02*
D03*
Y388000D02*
D03*
Y393000D02*
D03*
Y398000D02*
D03*
X162260Y363000D02*
D03*
Y368000D02*
D03*
Y373000D02*
D03*
Y378000D02*
D03*
Y383000D02*
D03*
Y388000D02*
D03*
Y393000D02*
D03*
Y398000D02*
D03*
D21*
X221500Y376108D02*
D03*
Y362892D02*
D03*
D22*
X84000Y417000D02*
D03*
X95000D02*
D03*
D23*
X220000Y413000D02*
D03*
D24*
X89500Y378500D02*
D03*
X263000Y385000D02*
D03*
D25*
X106500Y372594D02*
D03*
Y384405D02*
D03*
X246000Y396811D02*
D03*
Y385000D02*
D03*
X234181Y396811D02*
D03*
Y385000D02*
D03*
Y373189D02*
D03*
X246000D02*
D03*
M02*
