G04*
G04 #@! TF.GenerationSoftware,Altium Limited,Altium Designer,20.1.8 (145)*
G04*
G04 Layer_Color=8388736*
%FSLAX25Y25*%
%MOIN*%
G70*
G04*
G04 #@! TF.SameCoordinates,1964C53A-2E70-4359-B946-7E1BDDE66412*
G04*
G04*
G04 #@! TF.FilePolarity,Negative*
G04*
G01*
G75*
%ADD14R,0.03800X0.04800*%
%ADD15R,0.06312X0.03162*%
%ADD16R,0.03800X0.03800*%
%ADD17R,0.05918X0.06706*%
%ADD18C,0.11811*%
%ADD19R,0.07900X0.05500*%
%ADD20R,0.04800X0.03800*%
%ADD21R,0.06902X0.03162*%
%ADD22R,0.03162X0.08674*%
%ADD23C,0.20472*%
%ADD24C,0.13811*%
%ADD25C,0.08800*%
%ADD26C,0.03162*%
D14*
X210184Y430315D02*
D03*
X203937D02*
D03*
D15*
X207480Y386614D02*
D03*
X216929Y390354D02*
D03*
Y382874D02*
D03*
X216929Y366705D02*
D03*
Y374185D02*
D03*
X207480Y370445D02*
D03*
X216929Y399016D02*
D03*
Y406496D02*
D03*
X207480Y402756D02*
D03*
D16*
X139394Y436221D02*
D03*
X150394D02*
D03*
D17*
X193610Y427500D02*
D03*
Y437500D02*
D03*
X157390Y427500D02*
D03*
Y437500D02*
D03*
D18*
X287008Y414961D02*
D03*
X120866Y422441D02*
D03*
X184646Y368110D02*
D03*
D19*
X219291Y430006D02*
D03*
Y443222D02*
D03*
X142520Y416929D02*
D03*
Y403713D02*
D03*
X163386Y379921D02*
D03*
Y366705D02*
D03*
D20*
X210236Y416168D02*
D03*
Y422415D02*
D03*
X161811Y387821D02*
D03*
Y394069D02*
D03*
X163779Y402808D02*
D03*
Y409055D02*
D03*
X154724D02*
D03*
Y402808D02*
D03*
D21*
X194882Y402874D02*
D03*
Y407874D02*
D03*
Y412874D02*
D03*
Y417874D02*
D03*
X173622Y402874D02*
D03*
Y407874D02*
D03*
Y412874D02*
D03*
X173622Y417874D02*
D03*
D22*
X264606Y425197D02*
D03*
X259606D02*
D03*
X254606D02*
D03*
X249606D02*
D03*
X244606D02*
D03*
X239606D02*
D03*
X234606D02*
D03*
X229606D02*
D03*
X264606Y446457D02*
D03*
X259606Y446457D02*
D03*
X254606D02*
D03*
X249606Y446457D02*
D03*
X244606D02*
D03*
X239606D02*
D03*
X234606Y446457D02*
D03*
X229606D02*
D03*
D23*
X284252Y440945D02*
D03*
X122047D02*
D03*
D24*
X259842Y390158D02*
D03*
X129921Y379921D02*
D03*
D25*
X242843Y401968D02*
D03*
X242843Y390158D02*
D03*
X231024Y401968D02*
D03*
X231024Y390158D02*
D03*
X231024Y378346D02*
D03*
X242843D02*
D03*
X146921Y374016D02*
D03*
Y385827D02*
D03*
D26*
X254509Y441976D02*
D03*
X219057Y445978D02*
D03*
X210346Y414163D02*
D03*
X264665Y420675D02*
D03*
X264570Y442035D02*
D03*
X239524Y441924D02*
D03*
X163227Y363702D02*
D03*
X191236Y402912D02*
D03*
X234523Y420573D02*
D03*
X229574Y420781D02*
D03*
X191365Y412926D02*
D03*
X249578Y420825D02*
D03*
X259517Y420624D02*
D03*
X154724Y400787D02*
D03*
X196864Y427432D02*
D03*
M02*
