M48
;Layer_Color=9474304
;FILE_FORMAT=2:5
INCH,TZ
;TYPE=PLATED
T1F00S00C0.01378
T2F00S00C0.04000
T3F00S00C0.11811
;TYPE=NON_PLATED
T4F00S00C0.12598
%
T01
X144009Y400792
X154724Y400787
X191236Y402912
X211417Y401575
X218110Y405905
X229917Y412018
X237495Y415075
X234763Y389891
X234768Y375062
X234878Y364924
X204331Y364961
X163227Y363702
T02
X103220Y372835
Y384646
X275976Y385827
X275976Y374016
X287795
X287795Y385827
X287795Y397638
X275976
T03
X86221Y378740
X304795Y385827
T04
X259842Y417323
M30
