M48
;Layer_Color=9474304
;FILE_FORMAT=2:5
INCH,TZ
;TYPE=PLATED
T1F00S00C0.01575
T2F00S00C0.01968
T3F00S00C0.02362
T4F00S00C0.03543
%
T01
X247500Y175000
Y180000
X254500Y171500
X265500
X253500Y207000
X249000Y212000
X237000Y207000
X247500Y230000
Y235000
X253500Y262000
X249000Y267000
X237000Y262000
T02
X232500Y163500
Y171500
Y218500
Y226500
Y273500
Y281500
X260000Y286000
Y294000
X287500Y281500
Y273500
Y226500
Y218500
Y171500
Y163500
T03
X223100Y178100
X231500Y186500
Y241500
X242500Y290000
X277500
X296900Y178100
T04
X224000Y142500
X234000
X244000
X254000
X266000
X276000
X286000
X296000
M30
