G04*
G04 #@! TF.GenerationSoftware,Altium Limited,Altium Designer,20.1.14 (287)*
G04*
G04 Layer_Color=32896*
%FSLAX25Y25*%
%MOIN*%
G70*
G04*
G04 #@! TF.SameCoordinates,C01F18E2-E006-4B54-A768-756A2DF816C6*
G04*
G04*
G04 #@! TF.FilePolarity,Positive*
G04*
G01*
G75*
%ADD40C,0.02000*%
D40*
X247742Y268835D02*
X241077D01*
X239411Y270501D01*
Y273834D01*
X241077Y275500D01*
X247742D01*
X249408Y273834D01*
Y270501D01*
X246075Y272168D02*
X249408Y268835D01*
Y270501D02*
X247742Y268835D01*
X239411Y265503D02*
X247742D01*
X249408Y263837D01*
Y260505D01*
X247742Y258839D01*
X239411D01*
Y255506D02*
Y248842D01*
Y252174D01*
X249408D01*
Y245510D02*
X239411D01*
X242743Y242177D01*
X239411Y238845D01*
X249408D01*
X241077Y228848D02*
X239411Y230514D01*
Y233847D01*
X241077Y235513D01*
X242743D01*
X244409Y233847D01*
Y230514D01*
X246075Y228848D01*
X247742D01*
X249408Y230514D01*
Y233847D01*
X247742Y235513D01*
X239411Y215519D02*
Y208855D01*
Y212187D01*
X249408D01*
X241077Y198858D02*
X239411Y200524D01*
Y203856D01*
X241077Y205522D01*
X242743D01*
X244409Y203856D01*
Y200524D01*
X246075Y198858D01*
X247742D01*
X249408Y200524D01*
Y203856D01*
X247742Y205522D01*
X249408Y195526D02*
X242743D01*
X239411Y192193D01*
X242743Y188861D01*
X249408D01*
X244409D01*
Y195526D01*
X239411Y185529D02*
X249408D01*
Y178864D01*
X266204Y275500D02*
Y272168D01*
Y273834D01*
X256207D01*
X257873Y275500D01*
X266204Y260505D02*
Y267169D01*
X259539Y260505D01*
X257873D01*
X256207Y262171D01*
Y265503D01*
X257873Y267169D01*
X261205Y247176D02*
Y240511D01*
X266204Y227182D02*
Y223850D01*
Y225516D01*
X256207D01*
X257873Y227182D01*
X256207Y212187D02*
Y218851D01*
X261205D01*
X259539Y215519D01*
Y213853D01*
X261205Y212187D01*
X264538D01*
X266204Y213853D01*
Y217185D01*
X264538Y218851D01*
X256207Y208855D02*
X262872D01*
X266204Y205522D01*
X262872Y202190D01*
X256207D01*
X273003Y275500D02*
Y268835D01*
X274669D01*
X281334Y275500D01*
X283000D01*
Y265503D02*
X281334D01*
Y263837D01*
X283000D01*
Y265503D01*
X273003Y250508D02*
Y257172D01*
X278001D01*
X276335Y253840D01*
Y252174D01*
X278001Y250508D01*
X281334D01*
X283000Y252174D01*
Y255506D01*
X281334Y257172D01*
X273003Y247176D02*
X283000D01*
X279668Y243843D01*
X283000Y240511D01*
X273003D01*
M02*
