G04*
G04 #@! TF.GenerationSoftware,Altium Limited,Altium Designer,19.0.15 (446)*
G04*
G04 Layer_Color=8388736*
%FSLAX25Y25*%
%MOIN*%
G70*
G01*
G75*
%ADD14R,0.04800X0.04300*%
%ADD15R,0.05328X0.11430*%
%ADD16R,0.07099X0.12611*%
%ADD17R,0.23635X0.25210*%
%ADD18C,0.20485*%
%ADD19C,0.06706*%
%ADD20R,0.06706X0.06706*%
%ADD21C,0.03950*%
%ADD22C,0.04000*%
D14*
X249587Y62000D02*
D03*
X255587D02*
D03*
X274524D02*
D03*
X280524D02*
D03*
X299461D02*
D03*
X305461D02*
D03*
X324398D02*
D03*
X330398D02*
D03*
X349335D02*
D03*
X355335D02*
D03*
X113173D02*
D03*
X107173D02*
D03*
X89046D02*
D03*
X83046D02*
D03*
X64919D02*
D03*
X58919D02*
D03*
X40792D02*
D03*
X34792D02*
D03*
X16665D02*
D03*
X10665D02*
D03*
X249587Y48500D02*
D03*
X255587D02*
D03*
X274524D02*
D03*
X280524D02*
D03*
X299461D02*
D03*
X305461D02*
D03*
X324398D02*
D03*
X330398D02*
D03*
X349335D02*
D03*
X355335D02*
D03*
X113173D02*
D03*
X107173D02*
D03*
X89046D02*
D03*
X83046D02*
D03*
X64919D02*
D03*
X58919D02*
D03*
X40792D02*
D03*
X34792D02*
D03*
X16665D02*
D03*
X10665D02*
D03*
X249587Y35000D02*
D03*
X255587D02*
D03*
X274524D02*
D03*
X280524D02*
D03*
X299461D02*
D03*
X305461D02*
D03*
X324398D02*
D03*
X330398D02*
D03*
X349335D02*
D03*
X355335D02*
D03*
X113173D02*
D03*
X107173D02*
D03*
X89046D02*
D03*
X83046D02*
D03*
X64919D02*
D03*
X58919D02*
D03*
X40792D02*
D03*
X34792D02*
D03*
X16665D02*
D03*
X10665D02*
D03*
X249587Y21500D02*
D03*
X255587D02*
D03*
X274524D02*
D03*
X280524D02*
D03*
X299461D02*
D03*
X305461D02*
D03*
X324398D02*
D03*
X330398D02*
D03*
X349335D02*
D03*
X355335D02*
D03*
X113173D02*
D03*
X107173D02*
D03*
X89046D02*
D03*
X83046D02*
D03*
X64919D02*
D03*
X58919D02*
D03*
X40792D02*
D03*
X34792D02*
D03*
X16665D02*
D03*
X10665D02*
D03*
D15*
X235405Y62000D02*
D03*
X223594D02*
D03*
X130595D02*
D03*
X142405D02*
D03*
X235405Y48500D02*
D03*
X223594D02*
D03*
X130595D02*
D03*
X142405D02*
D03*
X235405Y35000D02*
D03*
X223594D02*
D03*
X130595D02*
D03*
X142405D02*
D03*
X235405Y21500D02*
D03*
X223594D02*
D03*
X130595D02*
D03*
X142405D02*
D03*
D16*
X189484Y32177D02*
D03*
X207516D02*
D03*
X158484D02*
D03*
X176516D02*
D03*
D17*
X198500Y60524D02*
D03*
X167500D02*
D03*
D18*
X354000Y78000D02*
D03*
X12000D02*
D03*
D19*
X168000Y15500D02*
D03*
X178000D02*
D03*
X188000D02*
D03*
D20*
X198000D02*
D03*
D21*
X151000Y27909D02*
D03*
X200500Y32500D02*
D03*
X183177Y48315D02*
D03*
Y62906D02*
D03*
X167558Y39500D02*
D03*
X168000Y23500D02*
D03*
X183000Y32000D02*
D03*
D22*
X229500Y34909D02*
D03*
Y27909D02*
D03*
Y42358D02*
D03*
X216500Y48409D02*
D03*
Y42409D02*
D03*
Y54909D02*
D03*
X136500Y34909D02*
D03*
Y27409D02*
D03*
Y42409D02*
D03*
X149500Y48654D02*
D03*
Y54909D02*
D03*
Y42094D02*
D03*
M02*
