M48
;Layer_Color=9474304
;FILE_FORMAT=2:5
INCH,TZ
;TYPE=PLATED
T1F00S00C0.01575
T2F00S00C0.01600
T3F00S00C0.03543
;TYPE=NON_PLATED
T4F00S00C0.12598
%
T01
X151000Y27909
X168000Y23500
X167558Y39500
X183000Y32000
X183177Y48315
Y62906
X200500Y32500
T02
X136500Y27409
Y34909
Y42409
X149500Y42094
Y48654
Y54909
X216500
Y48409
Y42409
X229500Y42358
Y34909
Y27909
T03
X168000Y15500
X178000
X188000
X198000
T04
X12000Y78000
X354000
M30
