G04*
G04 #@! TF.GenerationSoftware,Altium Limited,Altium Designer,19.0.15 (446)*
G04*
G04 Layer_Color=32896*
%FSLAX25Y25*%
%MOIN*%
G70*
G01*
G75*
%ADD10C,0.00984*%
%ADD11C,0.01000*%
%ADD12C,0.00787*%
%ADD13C,0.00600*%
%ADD44C,0.02362*%
D10*
X193827Y65248D02*
X193089Y65674D01*
Y64822D01*
X193827Y65248D01*
D11*
X270524Y60500D02*
Y63500D01*
X44792Y20000D02*
Y23000D01*
X345335Y47000D02*
Y50000D01*
Y33500D02*
Y36500D01*
X320398Y47000D02*
Y50000D01*
X295461Y47000D02*
Y50000D01*
X270524Y47000D02*
Y50000D01*
X245587Y60500D02*
Y63500D01*
Y20000D02*
Y23000D01*
X270524Y20000D02*
Y23000D01*
X117173Y60500D02*
Y63500D01*
Y47000D02*
Y50000D01*
X93046Y47000D02*
Y50000D01*
X117173Y20000D02*
Y23000D01*
X93046Y20000D02*
Y23000D01*
X68919Y33500D02*
Y36500D01*
X44792Y33500D02*
Y36500D01*
X68919Y20000D02*
Y23000D01*
X20665Y33500D02*
Y36500D01*
Y20000D02*
Y23000D01*
X320398Y33500D02*
Y36500D01*
X295461Y33500D02*
Y36500D01*
X270524Y33500D02*
Y36500D01*
X245587Y47000D02*
Y50000D01*
Y33500D02*
Y36500D01*
X345335Y60500D02*
Y63500D01*
Y20000D02*
Y23000D01*
X320398Y60500D02*
Y63500D01*
Y20000D02*
Y23000D01*
X295461Y60500D02*
Y63500D01*
Y20000D02*
Y23000D01*
X117173Y33500D02*
Y36500D01*
X93046Y60500D02*
Y63500D01*
Y33500D02*
Y36500D01*
X68919Y60500D02*
Y63500D01*
Y47000D02*
Y50000D01*
X44792Y60500D02*
Y63500D01*
Y47000D02*
Y50000D01*
X20665Y60500D02*
Y63500D01*
Y47000D02*
Y50000D01*
D12*
X166180Y31803D02*
Y32197D01*
X168936Y31803D02*
Y32197D01*
X200728Y55803D02*
Y56197D01*
X204272Y55803D02*
Y56197D01*
X161728Y54303D02*
Y54697D01*
X165272Y54303D02*
Y54697D01*
X167803Y69378D02*
X168197D01*
X167803Y66622D02*
X168197D01*
X176701Y44657D02*
X189299D01*
X176701Y64342D02*
X189299D01*
X176701Y44657D02*
Y64342D01*
X189299Y44657D02*
Y64342D01*
X227335Y39921D02*
X231665D01*
X227335Y30079D02*
X231665D01*
X227335Y66921D02*
X231665D01*
X227335Y57079D02*
X231665D01*
X227335Y26421D02*
X231665D01*
X227335Y16579D02*
X231665D01*
X134335Y43579D02*
X138665D01*
X134335Y53421D02*
X138665D01*
X134335Y30079D02*
X138665D01*
X134335Y39921D02*
X138665D01*
X227335Y53421D02*
X231665D01*
X227335Y43579D02*
X231665D01*
X134335Y57079D02*
X138665D01*
X134335Y66921D02*
X138665D01*
X134335Y16579D02*
X138665D01*
X134335Y26421D02*
X138665D01*
D13*
X339167Y49166D02*
X339500Y49499D01*
X340167D01*
X340500Y49166D01*
Y47833D01*
X340167Y47500D01*
X339500D01*
X339167Y47833D01*
Y48500D01*
X339834D01*
X340500Y33909D02*
Y35909D01*
X339500D01*
X339167Y35576D01*
Y34909D01*
X339500Y34576D01*
X340500D01*
X339834D02*
X339167Y33909D01*
X340500Y61000D02*
Y62999D01*
X339500D01*
X339167Y62666D01*
Y62000D01*
X339500Y61666D01*
X340500D01*
X339834D02*
X339167Y61000D01*
Y22166D02*
X339500Y22499D01*
X340167D01*
X340500Y22166D01*
Y20833D01*
X340167Y20500D01*
X339500D01*
X339167Y20833D01*
Y21500D01*
X339834D01*
X264667Y49166D02*
X265000Y49499D01*
X265667D01*
X266000Y49166D01*
Y47833D01*
X265667Y47500D01*
X265000D01*
X264667Y47833D01*
Y48500D01*
X265334D01*
X266000Y34000D02*
Y35999D01*
X265000D01*
X264667Y35666D01*
Y35000D01*
X265000Y34666D01*
X266000D01*
X265334D02*
X264667Y34000D01*
X98167Y49166D02*
X98500Y49499D01*
X99167D01*
X99500Y49166D01*
Y47833D01*
X99167Y47500D01*
X98500D01*
X98167Y47833D01*
Y48500D01*
X98834D01*
X99500Y33909D02*
Y35909D01*
X98500D01*
X98167Y35576D01*
Y34909D01*
X98500Y34576D01*
X99500D01*
X98834D02*
X98167Y33909D01*
X25167Y49166D02*
X25500Y49499D01*
X26167D01*
X26500Y49166D01*
Y47833D01*
X26167Y47500D01*
X25500D01*
X25167Y47833D01*
Y48500D01*
X25834D01*
X26500Y34000D02*
Y35999D01*
X25500D01*
X25167Y35666D01*
Y35000D01*
X25500Y34666D01*
X26500D01*
X25834D02*
X25167Y34000D01*
X266000Y61000D02*
Y62999D01*
X265000D01*
X264667Y62666D01*
Y62000D01*
X265000Y61666D01*
X266000D01*
X265334D02*
X264667Y61000D01*
Y22166D02*
X265000Y22499D01*
X265667D01*
X266000Y22166D01*
Y20833D01*
X265667Y20500D01*
X265000D01*
X264667Y20833D01*
Y21500D01*
X265334D01*
X99500Y61000D02*
Y62999D01*
X98500D01*
X98167Y62666D01*
Y62000D01*
X98500Y61666D01*
X99500D01*
X98834D02*
X98167Y61000D01*
Y22166D02*
X98500Y22499D01*
X99167D01*
X99500Y22166D01*
Y20833D01*
X99167Y20500D01*
X98500D01*
X98167Y20833D01*
Y21500D01*
X98834D01*
X26500Y61000D02*
Y62999D01*
X25500D01*
X25167Y62666D01*
Y62000D01*
X25500Y61666D01*
X26500D01*
X25834D02*
X25167Y61000D01*
Y22166D02*
X25500Y22499D01*
X26167D01*
X26500Y22166D01*
Y20833D01*
X26167Y20500D01*
X25500D01*
X25167Y20833D01*
Y21500D01*
X25834D01*
X199395Y7166D02*
X199729Y7499D01*
X200395D01*
X200728Y7166D01*
Y5833D01*
X200395Y5500D01*
X199729D01*
X199395Y5833D01*
Y6500D01*
X200062D01*
X198729Y5500D02*
Y7499D01*
X197396Y5500D01*
Y7499D01*
X196730D02*
Y5500D01*
X195730D01*
X195397Y5833D01*
Y7166D01*
X195730Y7499D01*
X196730D01*
X190500Y5500D02*
X189833D01*
X190167D01*
Y7499D01*
X190500Y7166D01*
X187501Y5500D02*
X188834D01*
X187501Y6833D01*
Y7166D01*
X187834Y7499D01*
X188501D01*
X188834Y7166D01*
X186835Y7499D02*
Y6166D01*
X186168Y5500D01*
X185502Y6166D01*
Y7499D01*
X179500D02*
X180167D01*
X180500Y7166D01*
Y5833D01*
X180167Y5500D01*
X179500D01*
X179167Y5833D01*
Y7166D01*
X179500Y7499D01*
X177168D02*
X178501D01*
Y6500D01*
X177834D01*
X178501D01*
Y5500D01*
X175168Y7499D02*
X176501D01*
Y6500D01*
X175835D01*
X176501D01*
Y5500D01*
X168500Y7499D02*
X169167D01*
X169500Y7166D01*
Y5833D01*
X169167Y5500D01*
X168500D01*
X168167Y5833D01*
Y7166D01*
X168500Y7499D01*
X167501Y5500D02*
Y7499D01*
X166168Y5500D01*
Y7499D01*
X195650Y72849D02*
Y69516D01*
X194983Y68850D01*
X193651D01*
X192984Y69516D01*
Y72849D01*
X191651Y68850D02*
X190318D01*
X190985D01*
Y72849D01*
X191651Y72182D01*
X163000Y36500D02*
Y40499D01*
X161001D01*
X160334Y39832D01*
Y38499D01*
X161001Y37833D01*
X163000D01*
X161667D02*
X160334Y36500D01*
X159001Y39832D02*
X158335Y40499D01*
X157002D01*
X156335Y39832D01*
Y39166D01*
X157002Y38499D01*
X157668D01*
X157002D01*
X156335Y37833D01*
Y37166D01*
X157002Y36500D01*
X158335D01*
X159001Y37166D01*
X159500Y62000D02*
Y65999D01*
X157501D01*
X156834Y65332D01*
Y63999D01*
X157501Y63333D01*
X159500D01*
X158167D02*
X156834Y62000D01*
X152836D02*
X155501D01*
X152836Y64666D01*
Y65332D01*
X153502Y65999D01*
X154835D01*
X155501Y65332D01*
X172000Y72500D02*
Y76499D01*
X170001D01*
X169334Y75832D01*
Y74499D01*
X170001Y73833D01*
X172000D01*
X170667D02*
X169334Y72500D01*
X168001D02*
X166668D01*
X167335D01*
Y76499D01*
X168001Y75832D01*
X203434Y69732D02*
X204101Y70399D01*
X205434D01*
X206100Y69732D01*
Y67066D01*
X205434Y66400D01*
X204101D01*
X203434Y67066D01*
X199435Y66400D02*
X202101D01*
X199435Y69066D01*
Y69732D01*
X200102Y70399D01*
X201435D01*
X202101Y69732D01*
X186484Y79982D02*
X187151Y80649D01*
X188484D01*
X189150Y79982D01*
Y77316D01*
X188484Y76650D01*
X187151D01*
X186484Y77316D01*
X185151Y76650D02*
X183818D01*
X184485D01*
Y80649D01*
X185151Y79982D01*
D44*
X186543Y60405D02*
X186099Y61329D01*
X185099Y61557D01*
X184298Y60918D01*
Y59893D01*
X185099Y59254D01*
X186099Y59482D01*
X186543Y60405D01*
M02*
