G04*
G04 #@! TF.GenerationSoftware,Altium Limited,Altium Designer,19.0.15 (446)*
G04*
G04 Layer_Color=16711935*
%FSLAX25Y25*%
%MOIN*%
G70*
G01*
G75*
%ADD14R,0.04800X0.04300*%
%ADD15R,0.05328X0.11430*%
%ADD18C,0.20485*%
%ADD19C,0.06706*%
%ADD20R,0.06706X0.06706*%
%ADD21C,0.03950*%
%ADD22C,0.04000*%
%ADD39R,0.04343X0.03556*%
%ADD40R,0.05131X0.05131*%
%ADD41R,0.05918X0.06509*%
%ADD42R,0.03556X0.04343*%
G04:AMPARAMS|DCode=43|XSize=29.65mil|YSize=57.21mil|CornerRadius=5.95mil|HoleSize=0mil|Usage=FLASHONLY|Rotation=90.000|XOffset=0mil|YOffset=0mil|HoleType=Round|Shape=RoundedRectangle|*
%AMROUNDEDRECTD43*
21,1,0.02965,0.04532,0,0,90.0*
21,1,0.01776,0.05721,0,0,90.0*
1,1,0.01190,0.02266,0.00888*
1,1,0.01190,0.02266,-0.00888*
1,1,0.01190,-0.02266,-0.00888*
1,1,0.01190,-0.02266,0.00888*
%
%ADD43ROUNDEDRECTD43*%
D14*
X274524Y62000D02*
D03*
X280524D02*
D03*
X40792Y21500D02*
D03*
X34792D02*
D03*
X349335Y48500D02*
D03*
X355335D02*
D03*
X349335Y35000D02*
D03*
X355335D02*
D03*
X324398Y48500D02*
D03*
X330398D02*
D03*
X299461D02*
D03*
X305461D02*
D03*
X274524D02*
D03*
X280524D02*
D03*
X249587Y62000D02*
D03*
X255587D02*
D03*
X249587Y21500D02*
D03*
X255587D02*
D03*
X274524D02*
D03*
X280524D02*
D03*
X113173Y62000D02*
D03*
X107173D02*
D03*
X113173Y48500D02*
D03*
X107173D02*
D03*
X89046D02*
D03*
X83046D02*
D03*
X113173Y21500D02*
D03*
X107173D02*
D03*
X89046D02*
D03*
X83046D02*
D03*
X64919Y35000D02*
D03*
X58919D02*
D03*
X40792D02*
D03*
X34792D02*
D03*
X64919Y21500D02*
D03*
X58919D02*
D03*
X16665Y35000D02*
D03*
X10665D02*
D03*
X16665Y21500D02*
D03*
X10665D02*
D03*
X324398Y35000D02*
D03*
X330398D02*
D03*
X299461D02*
D03*
X305461D02*
D03*
X274524D02*
D03*
X280524D02*
D03*
X249587Y48500D02*
D03*
X255587D02*
D03*
X249587Y35000D02*
D03*
X255587D02*
D03*
X349335Y62000D02*
D03*
X355335D02*
D03*
X349335Y21500D02*
D03*
X355335D02*
D03*
X324398Y62000D02*
D03*
X330398D02*
D03*
X324398Y21500D02*
D03*
X330398D02*
D03*
X299461Y62000D02*
D03*
X305461D02*
D03*
X299461Y21500D02*
D03*
X305461D02*
D03*
X113173Y35000D02*
D03*
X107173D02*
D03*
X89046Y62000D02*
D03*
X83046D02*
D03*
X89046Y35000D02*
D03*
X83046D02*
D03*
X64919Y62000D02*
D03*
X58919D02*
D03*
X64919Y48500D02*
D03*
X58919D02*
D03*
X40792Y62000D02*
D03*
X34792D02*
D03*
X40792Y48500D02*
D03*
X34792D02*
D03*
X16665Y62000D02*
D03*
X10665D02*
D03*
X16665Y48500D02*
D03*
X10665D02*
D03*
D15*
X235405Y35000D02*
D03*
X223594D02*
D03*
X235405Y62000D02*
D03*
X223594D02*
D03*
X235405Y21500D02*
D03*
X223594D02*
D03*
X130595Y48500D02*
D03*
X142405D02*
D03*
X130595Y35000D02*
D03*
X142405D02*
D03*
X235405Y48500D02*
D03*
X223594D02*
D03*
X130595Y62000D02*
D03*
X142405D02*
D03*
X130595Y21500D02*
D03*
X142405D02*
D03*
D18*
X354000Y78000D02*
D03*
X12000D02*
D03*
D19*
X168000Y15500D02*
D03*
X178000D02*
D03*
X188000D02*
D03*
D20*
X198000D02*
D03*
D21*
X151000Y27909D02*
D03*
X200500Y32500D02*
D03*
X183177Y48315D02*
D03*
Y62906D02*
D03*
X167558Y39500D02*
D03*
X168000Y23500D02*
D03*
X183000Y32000D02*
D03*
D22*
X229500Y34909D02*
D03*
Y27909D02*
D03*
Y42358D02*
D03*
X216500Y48409D02*
D03*
Y42409D02*
D03*
Y54909D02*
D03*
X136500Y34909D02*
D03*
Y27409D02*
D03*
Y42409D02*
D03*
X149500Y48654D02*
D03*
Y54909D02*
D03*
Y42094D02*
D03*
D39*
X167558Y29244D02*
D03*
Y34756D02*
D03*
D40*
X202500Y59543D02*
D03*
Y52457D02*
D03*
X163500Y58043D02*
D03*
Y50957D02*
D03*
D41*
X179850Y70000D02*
D03*
X186150D02*
D03*
D42*
X165244Y68000D02*
D03*
X170756D02*
D03*
D43*
X172665Y47000D02*
D03*
Y52000D02*
D03*
Y57000D02*
D03*
Y62000D02*
D03*
X193335Y47000D02*
D03*
Y52000D02*
D03*
Y57000D02*
D03*
Y62000D02*
D03*
M02*
