G04*
G04 #@! TF.GenerationSoftware,Altium Limited,Altium Designer,21.3.2 (30)*
G04*
G04 Layer_Color=255*
%FSLAX25Y25*%
%MOIN*%
G70*
G04*
G04 #@! TF.SameCoordinates,6CEF4A8F-711D-4CFA-BBFF-D2CDE4DC2355*
G04*
G04*
G04 #@! TF.FilePolarity,Positive*
G04*
G01*
G75*
%ADD12R,0.05906X0.03937*%
%ADD13R,0.01968X0.12992*%
%ADD14R,0.03937X0.05906*%
%ADD15R,0.12992X0.01968*%
%ADD24C,0.03937*%
%ADD25R,0.05906X0.05906*%
%ADD26C,0.05906*%
D12*
X378400Y130000D02*
D03*
X359600D02*
D03*
X338400D02*
D03*
X319600D02*
D03*
X301400D02*
D03*
X282600D02*
D03*
X359600Y182000D02*
D03*
X378400D02*
D03*
X320600D02*
D03*
X339400D02*
D03*
X277600D02*
D03*
X296400D02*
D03*
D13*
X363488Y130000D02*
D03*
X374512D02*
D03*
X323488D02*
D03*
X334512D02*
D03*
X286488D02*
D03*
X297512D02*
D03*
X374512Y182000D02*
D03*
X363488D02*
D03*
X335512D02*
D03*
X324488D02*
D03*
X292512D02*
D03*
X281488D02*
D03*
D14*
X259000Y148600D02*
D03*
Y167400D02*
D03*
D15*
Y163512D02*
D03*
Y152488D02*
D03*
D24*
X369000Y134000D02*
D03*
Y126000D02*
D03*
X329000Y134000D02*
D03*
Y126000D02*
D03*
X292000Y134000D02*
D03*
Y126000D02*
D03*
X369000Y178000D02*
D03*
Y186000D02*
D03*
X330000Y178000D02*
D03*
Y186000D02*
D03*
X287000Y178000D02*
D03*
Y186000D02*
D03*
X263000Y158000D02*
D03*
X255000D02*
D03*
D25*
X403000Y150212D02*
D03*
Y192000D02*
D03*
D26*
Y140212D02*
D03*
Y130212D02*
D03*
Y120212D02*
D03*
Y162000D02*
D03*
Y172000D02*
D03*
Y182000D02*
D03*
M02*
