G04*
G04 #@! TF.GenerationSoftware,Altium Limited,Altium Designer,21.3.1 (25)*
G04*
G04 Layer_Physical_Order=2*
G04 Layer_Color=16711680*
%FSLAX25Y25*%
%MOIN*%
G70*
G04*
G04 #@! TF.SameCoordinates,418F5990-4BBF-4DAF-8A5A-E609F629B44B*
G04*
G04*
G04 #@! TF.FilePolarity,Positive*
G04*
G01*
G75*
%ADD24C,0.03937*%
%ADD25R,0.05906X0.05906*%
%ADD26C,0.05906*%
G36*
X395000Y114000D02*
X241590D01*
X241002Y196645D01*
X241355Y197000D01*
X395000D01*
Y114000D01*
D02*
G37*
%LPC*%
G36*
X369500Y188939D02*
Y186500D01*
X371939D01*
X371766Y187146D01*
X371375Y187823D01*
X370823Y188375D01*
X370146Y188766D01*
X369500Y188939D01*
D02*
G37*
G36*
X368500D02*
X367854Y188766D01*
X367177Y188375D01*
X366625Y187823D01*
X366234Y187146D01*
X366061Y186500D01*
X368500D01*
Y188939D01*
D02*
G37*
G36*
X330500D02*
Y186500D01*
X332939D01*
X332766Y187146D01*
X332375Y187823D01*
X331823Y188375D01*
X331146Y188766D01*
X330500Y188939D01*
D02*
G37*
G36*
X329500D02*
X328854Y188766D01*
X328177Y188375D01*
X327625Y187823D01*
X327234Y187146D01*
X327061Y186500D01*
X329500D01*
Y188939D01*
D02*
G37*
G36*
X287500D02*
Y186500D01*
X289939D01*
X289766Y187146D01*
X289375Y187823D01*
X288823Y188375D01*
X288146Y188766D01*
X287500Y188939D01*
D02*
G37*
G36*
X286500D02*
X285854Y188766D01*
X285177Y188375D01*
X284625Y187823D01*
X284234Y187146D01*
X284061Y186500D01*
X286500D01*
Y188939D01*
D02*
G37*
G36*
X371939Y185500D02*
X369500D01*
Y183061D01*
X370146Y183234D01*
X370823Y183625D01*
X371375Y184177D01*
X371766Y184854D01*
X371939Y185500D01*
D02*
G37*
G36*
X368500D02*
X366061D01*
X366234Y184854D01*
X366625Y184177D01*
X367177Y183625D01*
X367854Y183234D01*
X368500Y183061D01*
Y185500D01*
D02*
G37*
G36*
X332939D02*
X330500D01*
Y183061D01*
X331146Y183234D01*
X331823Y183625D01*
X332375Y184177D01*
X332766Y184854D01*
X332939Y185500D01*
D02*
G37*
G36*
X329500D02*
X327061D01*
X327234Y184854D01*
X327625Y184177D01*
X328177Y183625D01*
X328854Y183234D01*
X329500Y183061D01*
Y185500D01*
D02*
G37*
G36*
X289939D02*
X287500D01*
Y183061D01*
X288146Y183234D01*
X288823Y183625D01*
X289375Y184177D01*
X289766Y184854D01*
X289939Y185500D01*
D02*
G37*
G36*
X286500D02*
X284061D01*
X284234Y184854D01*
X284625Y184177D01*
X285177Y183625D01*
X285854Y183234D01*
X286500Y183061D01*
Y185500D01*
D02*
G37*
G36*
X369500Y180939D02*
Y178500D01*
X371939D01*
X371766Y179146D01*
X371375Y179823D01*
X370823Y180375D01*
X370146Y180766D01*
X369500Y180939D01*
D02*
G37*
G36*
X368500D02*
X367854Y180766D01*
X367177Y180375D01*
X366625Y179823D01*
X366234Y179146D01*
X366061Y178500D01*
X368500D01*
Y180939D01*
D02*
G37*
G36*
X330500D02*
Y178500D01*
X332939D01*
X332766Y179146D01*
X332375Y179823D01*
X331823Y180375D01*
X331146Y180766D01*
X330500Y180939D01*
D02*
G37*
G36*
X329500D02*
X328854Y180766D01*
X328177Y180375D01*
X327625Y179823D01*
X327234Y179146D01*
X327061Y178500D01*
X329500D01*
Y180939D01*
D02*
G37*
G36*
X287500D02*
Y178500D01*
X289939D01*
X289766Y179146D01*
X289375Y179823D01*
X288823Y180375D01*
X288146Y180766D01*
X287500Y180939D01*
D02*
G37*
G36*
X286500D02*
X285854Y180766D01*
X285177Y180375D01*
X284625Y179823D01*
X284234Y179146D01*
X284061Y178500D01*
X286500D01*
Y180939D01*
D02*
G37*
G36*
X371939Y177500D02*
X369500D01*
Y175061D01*
X370146Y175234D01*
X370823Y175625D01*
X371375Y176177D01*
X371766Y176854D01*
X371939Y177500D01*
D02*
G37*
G36*
X368500D02*
X366061D01*
X366234Y176854D01*
X366625Y176177D01*
X367177Y175625D01*
X367854Y175234D01*
X368500Y175061D01*
Y177500D01*
D02*
G37*
G36*
X332939D02*
X330500D01*
Y175061D01*
X331146Y175234D01*
X331823Y175625D01*
X332375Y176177D01*
X332766Y176854D01*
X332939Y177500D01*
D02*
G37*
G36*
X329500D02*
X327061D01*
X327234Y176854D01*
X327625Y176177D01*
X328177Y175625D01*
X328854Y175234D01*
X329500Y175061D01*
Y177500D01*
D02*
G37*
G36*
X289939D02*
X287500D01*
Y175061D01*
X288146Y175234D01*
X288823Y175625D01*
X289375Y176177D01*
X289766Y176854D01*
X289939Y177500D01*
D02*
G37*
G36*
X286500D02*
X284061D01*
X284234Y176854D01*
X284625Y176177D01*
X285177Y175625D01*
X285854Y175234D01*
X286500Y175061D01*
Y177500D01*
D02*
G37*
G36*
X263500Y160939D02*
Y158500D01*
X265939D01*
X265766Y159146D01*
X265375Y159823D01*
X264823Y160375D01*
X264146Y160766D01*
X263500Y160939D01*
D02*
G37*
G36*
X255500D02*
Y158500D01*
X257939D01*
X257766Y159146D01*
X257375Y159823D01*
X256823Y160375D01*
X256146Y160766D01*
X255500Y160939D01*
D02*
G37*
G36*
X262500D02*
X261854Y160766D01*
X261177Y160375D01*
X260625Y159823D01*
X260234Y159146D01*
X260061Y158500D01*
X262500D01*
Y160939D01*
D02*
G37*
G36*
X254500D02*
X253854Y160766D01*
X253177Y160375D01*
X252625Y159823D01*
X252234Y159146D01*
X252061Y158500D01*
X254500D01*
Y160939D01*
D02*
G37*
G36*
X265939Y157500D02*
X263500D01*
Y155061D01*
X264146Y155234D01*
X264823Y155625D01*
X265375Y156177D01*
X265766Y156854D01*
X265939Y157500D01*
D02*
G37*
G36*
X257939D02*
X255500D01*
Y155061D01*
X256146Y155234D01*
X256823Y155625D01*
X257375Y156177D01*
X257766Y156854D01*
X257939Y157500D01*
D02*
G37*
G36*
X262500D02*
X260061D01*
X260234Y156854D01*
X260625Y156177D01*
X261177Y155625D01*
X261854Y155234D01*
X262500Y155061D01*
Y157500D01*
D02*
G37*
G36*
X254500D02*
X252061D01*
X252234Y156854D01*
X252625Y156177D01*
X253177Y155625D01*
X253854Y155234D01*
X254500Y155061D01*
Y157500D01*
D02*
G37*
G36*
X369500Y136939D02*
Y134500D01*
X371939D01*
X371766Y135146D01*
X371375Y135823D01*
X370823Y136375D01*
X370146Y136766D01*
X369500Y136939D01*
D02*
G37*
G36*
X329500D02*
Y134500D01*
X331939D01*
X331766Y135146D01*
X331375Y135823D01*
X330823Y136375D01*
X330146Y136766D01*
X329500Y136939D01*
D02*
G37*
G36*
X292500D02*
Y134500D01*
X294939D01*
X294766Y135146D01*
X294375Y135823D01*
X293823Y136375D01*
X293146Y136766D01*
X292500Y136939D01*
D02*
G37*
G36*
X368500D02*
X367854Y136766D01*
X367177Y136375D01*
X366625Y135823D01*
X366234Y135146D01*
X366061Y134500D01*
X368500D01*
Y136939D01*
D02*
G37*
G36*
X328500D02*
X327854Y136766D01*
X327177Y136375D01*
X326625Y135823D01*
X326234Y135146D01*
X326061Y134500D01*
X328500D01*
Y136939D01*
D02*
G37*
G36*
X291500D02*
X290854Y136766D01*
X290177Y136375D01*
X289625Y135823D01*
X289234Y135146D01*
X289061Y134500D01*
X291500D01*
Y136939D01*
D02*
G37*
G36*
X331939Y133500D02*
X329500D01*
Y131061D01*
X330146Y131234D01*
X330823Y131625D01*
X331375Y132177D01*
X331766Y132854D01*
X331939Y133500D01*
D02*
G37*
G36*
X294939D02*
X292500D01*
Y131061D01*
X293146Y131234D01*
X293823Y131625D01*
X294375Y132177D01*
X294766Y132854D01*
X294939Y133500D01*
D02*
G37*
G36*
X371939D02*
X369500D01*
Y131061D01*
X370146Y131234D01*
X370823Y131625D01*
X371375Y132177D01*
X371766Y132854D01*
X371939Y133500D01*
D02*
G37*
G36*
X368500D02*
X366061D01*
X366234Y132854D01*
X366625Y132177D01*
X367177Y131625D01*
X367854Y131234D01*
X368500Y131061D01*
Y133500D01*
D02*
G37*
G36*
X328500D02*
X326061D01*
X326234Y132854D01*
X326625Y132177D01*
X327177Y131625D01*
X327854Y131234D01*
X328500Y131061D01*
Y133500D01*
D02*
G37*
G36*
X291500D02*
X289061D01*
X289234Y132854D01*
X289625Y132177D01*
X290177Y131625D01*
X290854Y131234D01*
X291500Y131061D01*
Y133500D01*
D02*
G37*
G36*
X369500Y128939D02*
Y126500D01*
X371939D01*
X371766Y127146D01*
X371375Y127823D01*
X370823Y128375D01*
X370146Y128766D01*
X369500Y128939D01*
D02*
G37*
G36*
X329500D02*
Y126500D01*
X331939D01*
X331766Y127146D01*
X331375Y127823D01*
X330823Y128375D01*
X330146Y128766D01*
X329500Y128939D01*
D02*
G37*
G36*
X292500D02*
Y126500D01*
X294939D01*
X294766Y127146D01*
X294375Y127823D01*
X293823Y128375D01*
X293146Y128766D01*
X292500Y128939D01*
D02*
G37*
G36*
X368500D02*
X367854Y128766D01*
X367177Y128375D01*
X366625Y127823D01*
X366234Y127146D01*
X366061Y126500D01*
X368500D01*
Y128939D01*
D02*
G37*
G36*
X328500D02*
X327854Y128766D01*
X327177Y128375D01*
X326625Y127823D01*
X326234Y127146D01*
X326061Y126500D01*
X328500D01*
Y128939D01*
D02*
G37*
G36*
X291500D02*
X290854Y128766D01*
X290177Y128375D01*
X289625Y127823D01*
X289234Y127146D01*
X289061Y126500D01*
X291500D01*
Y128939D01*
D02*
G37*
G36*
X371939Y125500D02*
X369500D01*
Y123061D01*
X370146Y123234D01*
X370823Y123625D01*
X371375Y124177D01*
X371766Y124854D01*
X371939Y125500D01*
D02*
G37*
G36*
X331939D02*
X329500D01*
Y123061D01*
X330146Y123234D01*
X330823Y123625D01*
X331375Y124177D01*
X331766Y124854D01*
X331939Y125500D01*
D02*
G37*
G36*
X294939D02*
X292500D01*
Y123061D01*
X293146Y123234D01*
X293823Y123625D01*
X294375Y124177D01*
X294766Y124854D01*
X294939Y125500D01*
D02*
G37*
G36*
X328500D02*
X326061D01*
X326234Y124854D01*
X326625Y124177D01*
X327177Y123625D01*
X327854Y123234D01*
X328500Y123061D01*
Y125500D01*
D02*
G37*
G36*
X291500D02*
X289061D01*
X289234Y124854D01*
X289625Y124177D01*
X290177Y123625D01*
X290854Y123234D01*
X291500Y123061D01*
Y125500D01*
D02*
G37*
G36*
X368500D02*
X366061D01*
X366234Y124854D01*
X366625Y124177D01*
X367177Y123625D01*
X367854Y123234D01*
X368500Y123061D01*
Y125500D01*
D02*
G37*
%LPD*%
D24*
X369000Y134000D02*
D03*
Y126000D02*
D03*
X329000Y134000D02*
D03*
Y126000D02*
D03*
X292000Y134000D02*
D03*
Y126000D02*
D03*
X369000Y178000D02*
D03*
Y186000D02*
D03*
X330000Y178000D02*
D03*
Y186000D02*
D03*
X287000Y178000D02*
D03*
Y186000D02*
D03*
X263000Y158000D02*
D03*
X255000D02*
D03*
D25*
X403000Y150212D02*
D03*
Y192000D02*
D03*
D26*
Y140212D02*
D03*
Y130212D02*
D03*
Y120212D02*
D03*
Y162000D02*
D03*
Y172000D02*
D03*
Y182000D02*
D03*
M02*
