M48
;Layer_Color=9474304
;FILE_FORMAT=2:4
INCH,TZ
;TYPE=PLATED
T1F00S00C0.0197
T2F00S00C0.0354
%
T01
X29200Y12600
Y13400
X32900
Y12600
X36900
Y13400
Y17800
Y18600
X33000
Y17800
X28700
Y18600
X26300Y15800
X25500
T02
X40300Y12021
Y13021
Y14021
Y15021
Y16200
Y17200
Y18200
Y19200
M30
