G04*
G04 #@! TF.GenerationSoftware,Altium Limited,Altium Designer,21.3.2 (30)*
G04*
G04 Layer_Color=65535*
%FSLAX25Y25*%
%MOIN*%
G70*
G04*
G04 #@! TF.SameCoordinates,6CEF4A8F-711D-4CFA-BBFF-D2CDE4DC2355*
G04*
G04*
G04 #@! TF.FilePolarity,Positive*
G04*
G01*
G75*
%ADD10C,0.00787*%
%ADD11C,0.01000*%
D10*
X376500Y119000D02*
Y123000D01*
X379500Y119000D02*
Y121250D01*
X377500Y121000D02*
X379500Y119000D01*
X377500Y121000D02*
X379500Y123000D01*
Y119500D02*
Y123000D01*
X336500Y119000D02*
Y123000D01*
X339500Y119000D02*
Y121250D01*
X337500Y121000D02*
X339500Y119000D01*
X337500Y121000D02*
X339500Y123000D01*
Y119500D02*
Y123000D01*
X299500Y119000D02*
Y123000D01*
X302500Y119000D02*
Y121250D01*
X300500Y121000D02*
X302500Y119000D01*
X300500Y121000D02*
X302500Y123000D01*
Y119500D02*
Y123000D01*
X361500Y189000D02*
Y193000D01*
X358500Y190750D02*
Y193000D01*
X360500Y191000D01*
X358500Y189000D02*
X360500Y191000D01*
X358500Y189000D02*
Y192500D01*
X322500Y189000D02*
Y193000D01*
X319500Y190750D02*
Y193000D01*
X321500Y191000D01*
X319500Y189000D02*
X321500Y191000D01*
X319500Y189000D02*
Y192500D01*
X279500Y189000D02*
Y193000D01*
X276500Y190750D02*
Y193000D01*
X278500Y191000D01*
X276500Y189000D02*
X278500Y191000D01*
X276500Y189000D02*
Y192500D01*
X248000Y150500D02*
X252000D01*
X248000Y147500D02*
X250250D01*
X248000D02*
X250000Y149500D01*
X252000Y147500D01*
X248500D02*
X252000D01*
X398000Y115212D02*
X408000D01*
X398000D02*
Y155212D01*
X408000Y115212D02*
Y155212D01*
X398000D02*
X408000D01*
X398000Y197000D02*
X408000D01*
Y157000D02*
Y197000D01*
X398000Y157000D02*
Y197000D01*
Y157000D02*
X408000D01*
D11*
X382500Y117000D02*
Y143000D01*
X355500Y117000D02*
Y143000D01*
Y117000D02*
X382500D01*
X355500Y143000D02*
X382500D01*
X342500Y117000D02*
Y143000D01*
X315500Y117000D02*
Y143000D01*
Y117000D02*
X342500D01*
X315500Y143000D02*
X342500D01*
X305500Y117000D02*
Y143000D01*
X278500Y117000D02*
Y143000D01*
Y117000D02*
X305500D01*
X278500Y143000D02*
X305500D01*
X355500Y169000D02*
Y195000D01*
X382500Y169000D02*
Y195000D01*
X355500D02*
X382500D01*
X355500Y169000D02*
X382500D01*
X316500D02*
Y195000D01*
X343500Y169000D02*
Y195000D01*
X316500D02*
X343500D01*
X316500Y169000D02*
X343500D01*
X273500D02*
Y195000D01*
X300500Y169000D02*
Y195000D01*
X273500D02*
X300500D01*
X273500Y169000D02*
X300500D01*
X246000Y144500D02*
X272000D01*
X246000Y171500D02*
X272000D01*
X246000Y144500D02*
Y171500D01*
X272000Y144500D02*
Y171500D01*
X411249Y122499D02*
X409750D01*
X409000Y121749D01*
Y118750D01*
X409750Y118000D01*
X411249D01*
X411999Y118750D01*
Y121749D01*
X411249Y122499D01*
X413498D02*
Y118750D01*
X414248Y118000D01*
X415748D01*
X416498Y118750D01*
Y122499D01*
X417997D02*
X420996D01*
X419497D01*
Y118000D01*
X422496D02*
Y122499D01*
X424745D01*
X425495Y121749D01*
Y120249D01*
X424745Y119500D01*
X422496D01*
X423995D02*
X425495Y118000D01*
X409000Y132499D02*
Y129499D01*
X410499Y128000D01*
X411999Y129499D01*
Y132499D01*
X413498D02*
Y128000D01*
X416498D01*
X420996Y132499D02*
X417997D01*
Y128000D01*
X420996D01*
X417997Y130249D02*
X419497D01*
X422496Y128000D02*
Y132499D01*
X424745D01*
X425495Y131749D01*
Y130249D01*
X424745Y129499D01*
X422496D01*
X423995D02*
X425495Y128000D01*
X409000Y142499D02*
Y139499D01*
X410499Y138000D01*
X411999Y139499D01*
Y142499D01*
X413498D02*
Y138000D01*
X416498D01*
X420996Y142499D02*
X417997D01*
Y138000D01*
X420996D01*
X417997Y140249D02*
X419497D01*
X425495Y141749D02*
X424745Y142499D01*
X423245D01*
X422496Y141749D01*
Y138750D01*
X423245Y138000D01*
X424745D01*
X425495Y138750D01*
Y140249D01*
X423995D01*
X411249Y152499D02*
X409750D01*
X409000Y151749D01*
Y148750D01*
X409750Y148000D01*
X411249D01*
X411999Y148750D01*
Y151749D01*
X411249Y152499D01*
X413498D02*
Y148750D01*
X414248Y148000D01*
X415748D01*
X416498Y148750D01*
Y152499D01*
X417997D02*
X420996D01*
X419497D01*
Y148000D01*
X425495Y151749D02*
X424745Y152499D01*
X423245D01*
X422496Y151749D01*
Y148750D01*
X423245Y148000D01*
X424745D01*
X425495Y148750D01*
Y150249D01*
X423995D01*
X411249Y164499D02*
X409750D01*
X409000Y163749D01*
Y160750D01*
X409750Y160000D01*
X411249D01*
X411999Y160750D01*
Y163749D01*
X411249Y164499D01*
X413498D02*
Y160750D01*
X414248Y160000D01*
X415748D01*
X416498Y160750D01*
Y164499D01*
X417997D02*
X420996D01*
X419497D01*
Y160000D01*
X425495Y163749D02*
X424745Y164499D01*
X423245D01*
X422496Y163749D01*
Y160750D01*
X423245Y160000D01*
X424745D01*
X425495Y160750D01*
Y162249D01*
X423995D01*
X410000Y173499D02*
Y170500D01*
X411500Y169000D01*
X412999Y170500D01*
Y173499D01*
X414499D02*
Y169000D01*
X417498D01*
X421996Y173499D02*
X418997D01*
Y169000D01*
X421996D01*
X418997Y171249D02*
X420497D01*
X426495Y172749D02*
X425745Y173499D01*
X424245D01*
X423496Y172749D01*
Y169750D01*
X424245Y169000D01*
X425745D01*
X426495Y169750D01*
Y171249D01*
X424995D01*
X409000Y184499D02*
Y181500D01*
X410499Y180000D01*
X411999Y181500D01*
Y184499D01*
X413498D02*
Y180000D01*
X416498D01*
X420996Y184499D02*
X417997D01*
Y180000D01*
X420996D01*
X417997Y182249D02*
X419497D01*
X422496Y180000D02*
Y184499D01*
X424745D01*
X425495Y183749D01*
Y182249D01*
X424745Y181500D01*
X422496D01*
X423995D02*
X425495Y180000D01*
X411249Y195499D02*
X409750D01*
X409000Y194749D01*
Y191750D01*
X409750Y191000D01*
X411249D01*
X411999Y191750D01*
Y194749D01*
X411249Y195499D01*
X413498D02*
Y191750D01*
X414248Y191000D01*
X415748D01*
X416498Y191750D01*
Y195499D01*
X417997D02*
X420996D01*
X419497D01*
Y191000D01*
X422496D02*
Y195499D01*
X424745D01*
X425495Y194749D01*
Y193249D01*
X424745Y192499D01*
X422496D01*
X423995D02*
X425495Y191000D01*
X386002Y148001D02*
Y153999D01*
X389001D01*
X390000Y152999D01*
Y151000D01*
X389001Y150000D01*
X386002D01*
X395998Y148001D02*
X392000D01*
X395998Y152000D01*
Y152999D01*
X394999Y153999D01*
X392999D01*
X392000Y152999D01*
X387001Y189001D02*
Y194999D01*
X390000D01*
X391000Y193999D01*
Y192000D01*
X390000Y191000D01*
X387001D01*
X392999Y189001D02*
X394999D01*
X393999D01*
Y194999D01*
X392999Y193999D01*
X361003Y149999D02*
Y144001D01*
X364002D01*
X365001Y145001D01*
Y148999D01*
X364002Y149999D01*
X361003D01*
X370999Y148999D02*
X370000Y149999D01*
X368000D01*
X367001Y148999D01*
Y148000D01*
X368000Y147000D01*
X370000D01*
X370999Y146000D01*
Y145001D01*
X370000Y144001D01*
X368000D01*
X367001Y145001D01*
X372999Y149999D02*
X376997D01*
Y148999D01*
X372999Y145001D01*
Y144001D01*
X321003Y149999D02*
Y144001D01*
X324002D01*
X325001Y145001D01*
Y148999D01*
X324002Y149999D01*
X321003D01*
X330999Y148999D02*
X330000Y149999D01*
X328000D01*
X327001Y148999D01*
Y148000D01*
X328000Y147000D01*
X330000D01*
X330999Y146000D01*
Y145001D01*
X330000Y144001D01*
X328000D01*
X327001Y145001D01*
X336997Y149999D02*
X334998Y148999D01*
X332999Y147000D01*
Y145001D01*
X333998Y144001D01*
X335998D01*
X336997Y145001D01*
Y146000D01*
X335998Y147000D01*
X332999D01*
X285003Y149999D02*
Y144001D01*
X288002D01*
X289001Y145001D01*
Y148999D01*
X288002Y149999D01*
X285003D01*
X294999Y148999D02*
X294000Y149999D01*
X292000D01*
X291001Y148999D01*
Y148000D01*
X292000Y147000D01*
X294000D01*
X294999Y146000D01*
Y145001D01*
X294000Y144001D01*
X292000D01*
X291001Y145001D01*
X300997Y149999D02*
X296999D01*
Y147000D01*
X298998Y148000D01*
X299998D01*
X300997Y147000D01*
Y145001D01*
X299998Y144001D01*
X297998D01*
X296999Y145001D01*
X362003Y167999D02*
Y162001D01*
X365002D01*
X366001Y163001D01*
Y166999D01*
X365002Y167999D01*
X362003D01*
X371999Y166999D02*
X371000Y167999D01*
X369000D01*
X368001Y166999D01*
Y166000D01*
X369000Y165000D01*
X371000D01*
X371999Y164000D01*
Y163001D01*
X371000Y162001D01*
X369000D01*
X368001Y163001D01*
X376998Y162001D02*
Y167999D01*
X373999Y165000D01*
X377997D01*
X323003Y167999D02*
Y162001D01*
X326002D01*
X327001Y163001D01*
Y166999D01*
X326002Y167999D01*
X323003D01*
X332999Y166999D02*
X332000Y167999D01*
X330000D01*
X329001Y166999D01*
Y166000D01*
X330000Y165000D01*
X332000D01*
X332999Y164000D01*
Y163001D01*
X332000Y162001D01*
X330000D01*
X329001Y163001D01*
X334999Y166999D02*
X335998Y167999D01*
X337998D01*
X338997Y166999D01*
Y166000D01*
X337998Y165000D01*
X336998D01*
X337998D01*
X338997Y164000D01*
Y163001D01*
X337998Y162001D01*
X335998D01*
X334999Y163001D01*
X254003Y193999D02*
Y188001D01*
X257002D01*
X258001Y189001D01*
Y192999D01*
X257002Y193999D01*
X254003D01*
X263999Y192999D02*
X263000Y193999D01*
X261000D01*
X260001Y192999D01*
Y192000D01*
X261000Y191000D01*
X263000D01*
X263999Y190000D01*
Y189001D01*
X263000Y188001D01*
X261000D01*
X260001Y189001D01*
X269997Y188001D02*
X265999D01*
X269997Y192000D01*
Y192999D01*
X268998Y193999D01*
X266998D01*
X265999Y192999D01*
X274001Y152002D02*
X279999D01*
Y155001D01*
X278999Y156001D01*
X275001D01*
X274001Y155001D01*
Y152002D01*
X275001Y161999D02*
X274001Y160999D01*
Y159000D01*
X275001Y158000D01*
X276000D01*
X277000Y159000D01*
Y160999D01*
X278000Y161999D01*
X278999D01*
X279999Y160999D01*
Y159000D01*
X278999Y158000D01*
X279999Y163998D02*
Y165998D01*
Y164998D01*
X274001D01*
X275001Y163998D01*
M02*
