G04*
G04 #@! TF.GenerationSoftware,Altium Limited,Altium Designer,21.3.2 (30)*
G04*
G04 Layer_Color=128*
%FSLAX25Y25*%
%MOIN*%
G70*
G04*
G04 #@! TF.SameCoordinates,6CEF4A8F-711D-4CFA-BBFF-D2CDE4DC2355*
G04*
G04*
G04 #@! TF.FilePolarity,Positive*
G04*
G01*
G75*
%ADD28C,0.00200*%
D28*
X368016Y134000D02*
X369984D01*
X369000Y133016D02*
Y134984D01*
X368016Y126000D02*
X369984D01*
X369000Y125016D02*
Y126984D01*
X328016Y134000D02*
X329984D01*
X329000Y133016D02*
Y134984D01*
X328016Y126000D02*
X329984D01*
X329000Y125016D02*
Y126984D01*
X291016Y134000D02*
X292984D01*
X292000Y133016D02*
Y134984D01*
X291016Y126000D02*
X292984D01*
X292000Y125016D02*
Y126984D01*
X368016Y178000D02*
X369984D01*
X369000Y177016D02*
Y178984D01*
X368016Y186000D02*
X369984D01*
X369000Y185016D02*
Y186984D01*
X329016Y178000D02*
X330984D01*
X330000Y177016D02*
Y178984D01*
X329016Y186000D02*
X330984D01*
X330000Y185016D02*
Y186984D01*
X286016Y178000D02*
X287984D01*
X287000Y177016D02*
Y178984D01*
X286016Y186000D02*
X287984D01*
X287000Y185016D02*
Y186984D01*
X262016Y158000D02*
X263984D01*
X263000Y157016D02*
Y158984D01*
X254016Y158000D02*
X255984D01*
X255000Y157016D02*
Y158984D01*
X401228Y150212D02*
X404772D01*
X403000Y148440D02*
Y151983D01*
X401228Y140212D02*
X404772D01*
X403000Y138440D02*
Y141983D01*
X401228Y130212D02*
X404772D01*
X403000Y128440D02*
Y131983D01*
X401228Y120212D02*
X404772D01*
X403000Y118440D02*
Y121983D01*
X401228Y162000D02*
X404772D01*
X403000Y160228D02*
Y163772D01*
X401228Y172000D02*
X404772D01*
X403000Y170228D02*
Y173772D01*
X401228Y182000D02*
X404772D01*
X403000Y180228D02*
Y183772D01*
X401228Y192000D02*
X404772D01*
X403000Y190228D02*
Y193772D01*
M02*
